{
.appVersion = "1271";
copyright = "Copyright © 2010 by __Designer__. All rights reserved.";
customParameters = (
{
name = panose;
value = (
2,
0,
5,
7,
8,
0,
0,
2,
0,
2
);
},
{
name = unicodeRanges;
value = (
0
);
},
{
name = fsType;
value = (
2
);
},
{
name = blueScale;
value = 0.03295;
},
{
name = glyphOrder;
value = (
.notdef,
.null,
CR,
space,
threequarters,
brokenbar,
minus,
multiply,
RS,
US,
onequarter,
exclam,
quotedbl,
numbersign,
dollar,
percent,
ampersand,
quotesingle,
parenleft,
parenright,
asterisk,
plus,
comma,
hyphen,
period,
slash,
zero,
one,
two,
three,
four,
five,
six,
seven,
eight,
nine,
colon,
semicolon,
less,
equal,
greater,
question,
at,
A,
B,
C,
D,
E,
F,
G,
H,
I,
J,
K,
L,
M,
N,
O,
P,
Q,
R,
S,
T,
U,
V,
W,
X,
Y,
Z,
Z.stroke,
bracketleft,
backslash,
bracketright,
asciicircum,
underscore,
grave,
a,
b,
c,
d,
e,
f,
g,
h,
i,
j,
k,
l,
m,
n,
o,
p,
q,
r,
s,
t,
u,
v,
w,
x,
y,
z,
z.alt,
z.stroke,
braceleft,
bar,
braceright,
asciitilde,
DEL,
Adieresis,
Aring,
Ccedilla,
Eacute,
Ntilde,
Odieresis,
Udieresis,
aacute,
agrave,
acircumflex,
adieresis,
atilde,
aring,
ccedilla,
eacute,
egrave,
ecircumflex,
edieresis,
iacute,
igrave,
icircumflex,
idieresis,
ntilde,
oacute,
ograve,
ocircumflex,
odieresis,
otilde,
uacute,
ugrave,
ucircumflex,
udieresis,
dagger,
degree,
cent,
sterling,
bullet,
paragraph,
germandbls,
registered,
copyright,
trademark,
acute,
dieresis,
notequal,
AE,
infinity,
plusminus,
lessequal,
greaterequal,
yen,
mu,
partialdiff,
pi,
integral,
ordfeminine,
ordmasculine,
summation,
Omega,
ae,
questiondown,
exclamdown,
logicalnot,
radical,
florin,
approxequal,
Delta,
guillemotleft,
guillemotright,
ellipsis,
nbspace,
Agrave,
Atilde,
Otilde,
OE,
oe,
endash,
emdash,
quotedblleft,
quotedblright,
quoteleft,
quoteright,
Euro,
ydieresis,
Ydieresis,
fraction,
currency,
guilsinglleft,
guilsinglright,
daggerdbl,
quotesinglbase,
quotedblbase,
perthousand,
Acircumflex,
Ecircumflex,
Aacute,
Edieresis,
Egrave,
Iacute,
Icircumflex,
Idieresis,
Igrave,
Oacute,

glyphs = (
{
glyphname = threequarters;
lastChange = "2020-01-01 22:27:46 +0000";
layers = (
{
hints = (
{
horizontal = 1;
place = "{571, 22}";
type = Stem;
}
);
layerId = "61E7180A-0B32-4047-B910-001D8BB62225";
paths = (
{
closed = 1;
nodes = (
"377 443 OFFCURVE",
"353 417 OFFCURVE",
"332 392 CURVE SMOOTH",
"322 382 OFFCURVE",
"311 371 OFFCURVE",
"301 360 CURVE SMOOTH",
"285 345 OFFCURVE",
"270 329 OFFCURVE",
"258 314 CURVE",
"255 300 LINE",
"365 302 LINE",
"356 285 OFFCURVE",
"319 217 OFFCURVE",
"319 214 CURVE",
"332 206 OFFCURVE",
"363 217 OFFCURVE",
"366 220 CURVE",
"410 305 LINE",
"421 305 LINE",
"444 314 OFFCURVE",
"443 320 OFFCURVE",
"424 323 CURVE",
"420 323 LINE",
"429 340 OFFCURVE",
"449 379 OFFCURVE",
"449 381 CURVE",
"460 400 OFFCURVE",
"416 391 OFFCURVE",
"405 378 CURVE",
"391 350 OFFCURVE",
"386 341 OFFCURVE",
"377 322 CURVE",
"286 320 LINE",
"296 333 OFFCURVE",
"306 342 OFFCURVE",
"318 352 CURVE SMOOTH",
"371 397 OFFCURVE",
"458 470 OFFCURVE",
"459 482 CURVE",
"449 489 OFFCURVE",
"409 491 OFFCURVE",
"396 470 CURVE"
);
},
{
closed = 1;
nodes = (
"372 618 OFFCURVE",
"137 321 OFFCURVE",
"49 221 CURVE SMOOTH",
"41 212 OFFCURVE",
"44 206 OFFCURVE",
"57 214 CURVE SMOOTH",
"119 253 OFFCURVE",
"377 584 OFFCURVE",
"442 665 CURVE SMOOTH",
"453 680 OFFCURVE",
"420 682 OFFCURVE",
"409 669 CURVE"
);
},
{
closed = 1;
nodes = (
"237 673 OFFCURVE",
"217 683 OFFCURVE",
"194 683 CURVE SMOOTH",
"156 683 OFFCURVE",
"125 655 OFFCURVE",
"102 627 CURVE",
"100 614 OFFCURVE",
"107 617 OFFCURVE",
"112 622 CURVE SMOOTH",
"127 639 OFFCURVE",
"150 658 OFFCURVE",
"171 658 CURVE SMOOTH",
"179 658 OFFCURVE",
"191 654 OFFCURVE",
"191 646 CURVE SMOOTH",
"191 596 OFFCURVE",
"126 557 OFFCURVE",
"88 549 CURVE",
"81 546 OFFCURVE",
"80 536 OFFCURVE",
"98 540 CURVE SMOOTH",
"107 542 OFFCURVE",
"126 550 OFFCURVE",
"133 550 CURVE SMOOTH",
"147 550 OFFCURVE",
"156 538 OFFCURVE",
"156 522 CURVE SMOOTH",
"156 475 OFFCURVE",
"106 409 OFFCURVE",
"48 409 CURVE SMOOTH",
"32 409 OFFCURVE",
"18 421 OFFCURVE",
"13 434 CURVE",
"1 440 OFFCURVE",
"2 433 OFFCURVE",
"5 425 CURVE SMOOTH",
"13 405 OFFCURVE",
"29 397 OFFCURVE",
"51 397 CURVE SMOOTH",
"120 397 OFFCURVE",
"197 457 OFFCURVE",
"197 517 CURVE SMOOTH",
"197 546 OFFCURVE",
"173 559 OFFCURVE",
"148 563 CURVE",
"186 578 OFFCURVE",
"237 607 OFFCURVE",
"237 649 CURVE SMOOTH"
);
}
);
width = 467;
}
);
note = threequarters;
unicode = 00BE;
},
{
glyphname = brokenbar;
lastChange = "2020-01-01 22:27:46 +0000";
layers = (
{
hints = (
{
horizontal = 1;
place = "{-173, 21}";
target = up;
type = BottomGhost;
},
{
horizontal = 1;
place = "{562, -20}";
target = down;
type = TopGhost;
}
);
layerId = "61E7180A-0B32-4047-B910-001D8BB62225";
paths = (
{
closed = 1;
nodes = (
"321 776 LINE",
"282 776 LINE",
"215 460 LINE",
"251 456 LINE"
);
},
{
closed = 1;
nodes = (
"233 377 LINE",
"198 380 LINE",
"126 41 LINE",
"165 41 LINE"
);
}
);
width = 364;
}
);
note = brokenbar;
unicode = 00A6;
},
{
glyphname = minus;
lastChange = "2020-01-01 22:27:46 +0000";
layers = (
{
hints = (
{
horizontal = 1;
place = "{155, 18}";
type = Stem;
},
{
place = "{80, 191}";
type = Stem;
}
);
layerId = "61E7180A-0B32-4047-B910-001D8BB62225";
paths = (
{
closed = 1;
nodes = (
"272 371 LINE",
"272 386 LINE",
"271 387 LINE",
"81 387 LINE",
"80 386 LINE",
"80 371 LINE",
"81 370 LINE",
"271 370 LINE"
);
}
);
width = 280;
}
);
note = minus;
unicode = 2212;
},
{
glyphname = multiply;
lastChange = "2020-01-01 22:27:46 +0000";
layers = (
{
hints = (
{
horizontal = 1;
place = "{76, 21}";
target = up;
type = BottomGhost;
},
{
horizontal = 1;
place = "{233, -20}";
target = down;
type = TopGhost;
}
);
layerId = "61E7180A-0B32-4047-B910-001D8BB62225";
paths = (
{
closed = 1;
nodes = (
"195 428 LINE",
"195 431 OFFCURVE",
"190 444 OFFCURVE",
"187 444 CURVE",
"131 384 LINE",
"100 448 LINE",
"97 447 OFFCURVE",
"86 436 OFFCURVE",
"86 433 CURVE",
"118 370 LINE",
"62 310 LINE",
"62 308 OFFCURVE",
"68 295 OFFCURVE",
"71 294 CURVE",
"126 354 LINE",
"158 290 LINE",
"161 291 OFFCURVE",
"171 302 OFFCURVE",
"172 305 CURVE",
"140 368 LINE"
);
}
);
width = 228;
}
);
note = multiply;
unicode = 00D7;
},
{
glyphname = onequarter;
lastChange = "2020-01-01 22:27:46 +0000";
layers = (
{
hints = (
{
horizontal = 1;
place = "{571, 22}";
type = Stem;
}
);
layerId = "61E7180A-0B32-4047-B910-001D8BB62225";
paths = (
{
closed = 1;
nodes = (
"372 618 OFFCURVE",
"137 321 OFFCURVE",
"49 221 CURVE SMOOTH",
"41 212 OFFCURVE",
"44 206 OFFCURVE",
"57 214 CURVE SMOOTH",
"119 253 OFFCURVE",
"377 584 OFFCURVE",
"442 665 CURVE SMOOTH",
"453 680 OFFCURVE",
"420 682 OFFCURVE",
"409 669 CURVE"
);
},
{
closed = 1;
nodes = (
"173 676 OFFCURVE",
"164 666 OFFCURVE",
"158 660 CURVE SMOOTH",
"137 638 OFFCURVE",
"106 607 OFFCURVE",
"82 589 CURVE SMOOTH",
"70 580 LINE",
"54 563 OFFCURVE",
"69 568 OFFCURVE",
"78 573 CURVE",
"96 587 OFFCURVE",
"121 598 OFFCURVE",
"136 610 CURVE",
"24 402 LINE",
"23 395 OFFCURVE",
"59 397 OFFCURVE",
"65 407 CURVE",
"113 493 OFFCURVE",
"152 580 OFFCURVE",
"199 665 CURVE",
"204 679 OFFCURVE",
"199 678 OFFCURVE",
"184 677 CURVE SMOOTH"
);
},
{
closed = 1;
nodes = (
"377 443 OFFCURVE",
"353 417 OFFCURVE",
"332 392 CURVE SMOOTH",
"322 382 OFFCURVE",
"311 371 OFFCURVE",
"301 360 CURVE SMOOTH",
"285 345 OFFCURVE",
"270 329 OFFCURVE",
"258 314 CURVE",
"255 300 LINE",
"365 302 LINE",
"356 285 OFFCURVE",
"319 217 OFFCURVE",
"319 214 CURVE",
"332 206 OFFCURVE",
"363 217 OFFCURVE",
"366 220 CURVE",
"410 305 LINE",
"421 305 LINE",
"444 314 OFFCURVE",
"443 320 OFFCURVE",
"424 323 CURVE",
"420 323 LINE",
"429 340 OFFCURVE",
"449 379 OFFCURVE",
"449 381 CURVE",
"460 400 OFFCURVE",
"416 391 OFFCURVE",
"405 378 CURVE",
"391 350 OFFCURVE",
"386 341 OFFCURVE",
"377 322 CURVE",
"286 320 LINE",
"296 333 OFFCURVE",
"306 342 OFFCURVE",
"318 352 CURVE SMOOTH",
"371 397 OFFCURVE",
"458 470 OFFCURVE",
"459 482 CURVE",
"449 489 OFFCURVE",
"409 491 OFFCURVE",
"396 470 CURVE"
);
}
);
width = 467;
}
);
note = onequarter;
unicode = 00BC;
},
{
glyphname = exclam;
lastChange = "2020-01-01 22:27:46 +0000";
layers = (
{
hints = (
{
horizontal = 1;
place = "{-11, 62}";
type = Stem;
}
);
layerId = "61E7180A-0B32-4047-B910-001D8BB62225";
paths = (
{
closed = 1;
nodes = (
"404 677 LINE",
"400 679 LINE",
"380 678 OFFCURVE",
"348 684 OFFCURVE",
"338 664 CURVE SMOOTH",
"147 301 LINE",
"146 296 LINE",
"154 295 LINE",
"182 337 OFFCURVE",
"397 650 OFFCURVE",
"405 673 CURVE"
);
},
{
closed = 1;
nodes = (
"155 252 OFFCURVE",
"143 266 OFFCURVE",
"126 266 CURVE SMOOTH",
"109 266 OFFCURVE",
"92 252 OFFCURVE",
"90 235 CURVE SMOOTH",
"87 218 OFFCURVE",
"98 204 OFFCURVE",
"116 204 CURVE SMOOTH",
"133 204 OFFCURVE",
"149 218 OFFCURVE",
"152 235 CURVE SMOOTH"
);
}
);
width = 263;
}
);
note = exclam;
unicode = 0021;
},
{
glyphname = quotedbl;
lastChange = "2020-01-01 22:27:46 +0000";
layers = (
{
hints = (
{
horizontal = 1;
place = "{312, 15}";
type = Stem;
}
);
layerId = "61E7180A-0B32-4047-B910-001D8BB62225";
paths = (
{
closed = 1;
nodes = (
"247 702 OFFCURVE",
"242 707 OFFCURVE",
"231 707 CURVE SMOOTH",
"218 707 OFFCURVE",
"208 698 OFFCURVE",
"209 683 CURVE SMOOTH",
"215 559 LINE",
"223 559 LINE",
"228 581 OFFCURVE",
"253 671 OFFCURVE",
"248 692 CURVE SMOOTH"
);
},
{
closed = 1;
nodes = (
"165 703 OFFCURVE",
"159 707 OFFCURVE",
"150 707 CURVE SMOOTH",
"137 707 OFFCURVE",
"127 695 OFFCURVE",
"128 683 CURVE SMOOTH",
"134 559 LINE",
"142 559 LINE",
"148 582 OFFCURVE",
"171 671 OFFCURVE",
"167 693 CURVE SMOOTH"
);
}
);
width = 239;
}
);
note = quotedbl;
unicode = 0022;
},
{
glyphname = numbersign;
lastChange = "2020-01-01 22:27:46 +0000";
layers = (
{
hints = (
{
horizontal = 1;
place = "{0, 207}";
type = Stem;
},
{
horizontal = 1;
place = "{313, 36}";
type = Stem;
}
);
layerId = "61E7180A-0B32-4047-B910-001D8BB62225";
paths = (
{
closed = 1;
nodes = (
"539 563 LINE",
"428 563 LINE",
"533 737 LINE",
"492 737 LINE",
"388 563 LINE",
"283 563 LINE",
"388 737 LINE",
"347 737 LINE",
"243 563 LINE",
"116 563 LINE",
"94 527 LINE",
"221 527 LINE",
"158 422 LINE",
"41 422 LINE",
"19 386 LINE",
"137 386 LINE",
"34 215 LINE",
"74 215 LINE",
"178 386 LINE",
"281 386 LINE",
"179 215 LINE",
"218 215 LINE",
"323 386 LINE",
"443 386 LINE",
"465 422 LINE",
"344 422 LINE",
"407 527 LINE",
"518 527 LINE"
);
},
{
closed = 1;
nodes = (
"366 527 LINE",
"303 422 LINE",
"198 422 LINE",
"262 527 LINE"
);
}
);
width = 560;
}
);
note = numbersign;
unicode = 0023;
},
{
glyphname = dollar;
lastChange = "2020-01-01 22:27:46 +0000";
layers = (
{
hints = (
{
horizontal = 1;
place = "{316, 66}";
type = Stem;
},
{
place = "{119, 47}";
type = Stem;
},
{
place = "{208, 47}";
type = Stem;
},
{
place = "{340, 17}";
type = Stem;
}
);
layerId = "61E7180A-0B32-4047-B910-001D8BB62225";
paths = (
{
closed = 1;
nodes = (
"356 608 OFFCURVE",
"341 637 OFFCURVE",
"301 644 CURVE",
"326 689 LINE",
"302 685 LINE",
"281 646 LINE",
"213 646 OFFCURVE",
"118 611 OFFCURVE",
"118 530 CURVE SMOOTH",
"118 494 OFFCURVE",
"141 461 OFFCURVE",
"163 434 CURVE",
"51 230 LINE",
"21 236 OFFCURVE",
"-8 250 OFFCURVE",
"-30 272 CURVE",
"-37 272 LINE",
"-40 269 OFFCURVE",
"-50 259 OFFCURVE",
"-50 254 CURVE",
"-32 230 OFFCURVE",
"14 220 OFFCURVE",
"42 215 CURVE",
"16 169 LINE",
"41 173 LINE",
"62 213 LINE",
"145 213 OFFCURVE",
"254 263 OFFCURVE",
"254 359 CURVE SMOOTH",
"254 400 OFFCURVE",
"228 438 OFFCURVE",
"204 470 CURVE",
"292 629 LINE",
"313 624 OFFCURVE",
"335 614 OFFCURVE",
"339 584 CURVE",
"337 590 OFFCURVE",
"324 596 OFFCURVE",
"316 596 CURVE SMOOTH",
"296 596 OFFCURVE",
"283 583 OFFCURVE",
"282 565 CURVE SMOOTH",
"281 546 OFFCURVE",
"296 530 OFFCURVE",
"315 530 CURVE SMOOTH",
"339 530 OFFCURVE",
"356 554 OFFCURVE",
"356 580 CURVE SMOOTH"
);
},
{
closed = 1;
nodes = (
"192 486 LINE",
"179 507 OFFCURVE",
"165 524 OFFCURVE",
"165 549 CURVE SMOOTH",
"165 599 OFFCURVE",
"218 632 OFFCURVE",
"263 632 CURVE SMOOTH",
"266 632 OFFCURVE",
"269 632 OFFCURVE",
"273 632 CURVE"
);
},
{
closed = 1;
nodes = (
"207 275 OFFCURVE",
"135 228 OFFCURVE",
"71 228 CURVE",
"176 419 LINE",
"192 398 OFFCURVE",
"207 372 OFFCURVE",
"207 345 CURVE SMOOTH"
);
}
);
width = 337;
}
);
note = dollar;
unicode = 0024;
},
{
glyphname = percent;
lastChange = "2020-01-01 22:27:46 +0000";
layers = (
{
hints = (
{
horizontal = 1;
place = "{-22, 17}";
type = Stem;
},
{
horizontal = 1;
place = "{217, 24}";
type = Stem;
},
{
horizontal = 1;
place = "{286, 17}";
type = Stem;
},
{
horizontal = 1;
place = "{311, 80}";
type = Stem;
},
{
horizontal = 1;
place = "{525, 24}";
type = Stem;
},
{
place = "{47, 42}";
type = Stem;
},
{
place = "{145, 49}";
type = Stem;
},
{
place = "{209, 42}";
type = Stem;
},
{
place = "{403, 20}";
type = Stem;
}
);
layerId = "61E7180A-0B32-4047-B910-001D8BB62225";
paths = (
{
closed = 1;
nodes = (
"465 710 LINE",
"465 719 OFFCURVE",
"448 715 OFFCURVE",
"446 713 CURVE SMOOTH",
"435 707 OFFCURVE",
"344 598 OFFCURVE",
"310 572 CURVE SMOOTH",
"255 528 OFFCURVE",
"200 501 OFFCURVE",
"179 539 CURVE",
"231 587 OFFCURVE",
"317 761 OFFCURVE",
"205 764 CURVE SMOOTH",
"155 764 OFFCURVE",
"92 706 OFFCURVE",
"62 638 CURVE SMOOTH",
"34 571 OFFCURVE",
"42 502 OFFCURVE",
"99 500 CURVE SMOOTH",
"122 500 OFFCURVE",
"144 510 OFFCURVE",
"164 526 CURVE",
"204 485 OFFCURVE",
"269 519 OFFCURVE",
"328 569 CURVE",
"214 428 OFFCURVE",
"101 287 OFFCURVE",
"-25 155 CURVE",
"-24 152 LINE",
"4 152 LINE"
);
},
{
closed = 1;
nodes = (
"317 457 OFFCURVE",
"254 398 OFFCURVE",
"225 329 CURVE SMOOTH",
"197 263 OFFCURVE",
"205 194 OFFCURVE",
"262 193 CURVE SMOOTH",
"367 190 OFFCURVE",
"500 452 OFFCURVE",
"368 455 CURVE SMOOTH"
);
},
{
closed = 1;
nodes = (
"269 725 OFFCURVE",
"213 605 OFFCURVE",
"191 575 CURVE",
"193 578 OFFCURVE",
"193 580 OFFCURVE",
"193 583 CURVE SMOOTH",
"193 596 OFFCURVE",
"183 605 OFFCURVE",
"170 605 CURVE SMOOTH",
"152 605 OFFCURVE",
"145 590 OFFCURVE",
"145 573 CURVE SMOOTH",
"144 562 OFFCURVE",
"149 548 OFFCURVE",
"156 536 CURVE",
"138 521 OFFCURVE",
"120 514 OFFCURVE",
"105 518 CURVE SMOOTH",
"78 526 OFFCURVE",
"86 578 OFFCURVE",
"114 640 CURVE SMOOTH",
"143 700 OFFCURVE",
"188 747 OFFCURVE",
"221 738 CURVE SMOOTH"
);
},
{
closed = 1;
nodes = (
"380 313 OFFCURVE",
"365 281 OFFCURVE",
"354 267 CURVE SMOOTH",
"336 245 OFFCURVE",
"302 200 OFFCURVE",
"268 210 CURVE SMOOTH",
"241 218 OFFCURVE",
"248 270 OFFCURVE",
"277 332 CURVE SMOOTH",
"305 392 OFFCURVE",
"351 440 OFFCURVE",
"384 430 CURVE SMOOTH",
"410 422 OFFCURVE",
"405 383 OFFCURVE",
"392 344 CURVE SMOOTH"
);
}
);
width = 466;
}
);
note = percent;
unicode = 0025;
},
{
glyphname = ampersand;
lastChange = "2020-01-01 22:27:46 +0000";
layers = (
{
hints = (
{
horizontal = 1;
place = "{-34, 10}";
type = Stem;
},
{
horizontal = 1;
place = "{184, 29}";
type = Stem;
},
{
horizontal = 1;
place = "{253, 13}";
type = Stem;
},
{
horizontal = 1;
place = "{287, 13}";
type = Stem;
},
{
horizontal = 1;
place = "{406, 70}";
type = Stem;
},
{
horizontal = 1;
place = "{507, 20}";
type = Stem;
},
{
place = "{8, 74}";
type = Stem;
},
{
place = "{205, 40}";
type = Stem;
},
{
place = "{336, 13}";
type = Stem;
},
{
place = "{377, 39}";
type = Stem;
},
{
place = "{503, 20}";
type = Stem;
},
{
place = "{548, 12}";
type = Stem;
}
);
layerId = "61E7180A-0B32-4047-B910-001D8BB62225";
paths = (
{
closed = 1;
nodes = (
"543 538 OFFCURVE",
"535 532 OFFCURVE",
"540 524 CURVE SMOOTH",
"580 464 OFFCURVE",
"440 427 OFFCURVE",
"404 427 CURVE SMOOTH",
"272 427 LINE SMOOTH",
"119 427 OFFCURVE",
"80 319 OFFCURVE",
"212 248 CURVE SMOOTH",
"221 244 OFFCURVE",
"220 260 OFFCURVE",
"212 264 CURVE SMOOTH",
"173 284 OFFCURVE",
"158 310 OFFCURVE",
"162 333 CURVE SMOOTH",
"176 419 OFFCURVE",
"381 420 OFFCURVE",
"377 337 CURVE SMOOTH",
"374 278 OFFCURVE",
"302 191 OFFCURVE",
"196 191 CURVE SMOOTH",
"21 191 OFFCURVE",
"58 474 OFFCURVE",
"236 500 CURVE",
"251 485 OFFCURVE",
"278 467 OFFCURVE",
"311 467 CURVE SMOOTH",
"364 467 OFFCURVE",
"357 511 OFFCURVE",
"314 515 CURVE SMOOTH",
"291 516 OFFCURVE",
"267 513 OFFCURVE",
"251 513 CURVE",
"228 562 OFFCURVE",
"272 629 OFFCURVE",
"306 660 CURVE SMOOTH",
"356 704 OFFCURVE",
"413 722 OFFCURVE",
"452 722 CURVE SMOOTH",
"479 721 OFFCURVE",
"509 710 OFFCURVE",
"503 677 CURVE",
"500 683 OFFCURVE",
"487 690 OFFCURVE",
"478 690 CURVE SMOOTH",
"458 691 OFFCURVE",
"443 677 OFFCURVE",
"442 656 CURVE SMOOTH",
"441 637 OFFCURVE",
"457 620 OFFCURVE",
"477 620 CURVE SMOOTH",
"503 620 OFFCURVE",
"523 647 OFFCURVE",
"523 676 CURVE SMOOTH",
"523 726 OFFCURVE",
"474 741 OFFCURVE",
"433 742 CURVE SMOOTH",
"340 743 OFFCURVE",
"207 685 OFFCURVE",
"205 578 CURVE SMOOTH",
"205 555 OFFCURVE",
"212 530 OFFCURVE",
"226 511 CURVE",
"-43 482 OFFCURVE",
"-74 181 OFFCURVE",
"196 181 CURVE SMOOTH",
"362 181 OFFCURVE",
"470 335 OFFCURVE",
"389 403 CURVE",
"488 401 OFFCURVE",
"594 461 OFFCURVE",
"548 530 CURVE SMOOTH"
);
},
{
closed = 1;
nodes = (
"340 500 OFFCURVE",
"348 480 OFFCURVE",
"311 480 CURVE SMOOTH",
"287 480 OFFCURVE",
"269 488 OFFCURVE",
"257 503 CURVE",
"275 503 OFFCURVE",
"293 503 OFFCURVE",
"313 502 CURVE SMOOTH"
);
}
);
width = 455;
}
);
note = ampersand;
unicode = 0026;
},
{
glyphname = quotesingle;
lastChange = "2020-01-01 22:27:46 +0000";
layers = (
{
hints = (
{
horizontal = 1;
place = "{358, 62}";
type = Stem;
},
{
place = "{121, 20}";
type = Stem;
}
);
layerId = "61E7180A-0B32-4047-B910-001D8BB62225";
paths = (
{
closed = 1;
nodes = (
"141 612 OFFCURVE",
"132 634 OFFCURVE",
"110 634 CURVE SMOOTH",
"93 634 OFFCURVE",
"77 620 OFFCURVE",
"74 603 CURVE SMOOTH",
"71 586 OFFCURVE",
"83 572 OFFCURVE",
"100 572 CURVE SMOOTH",
"108 572 OFFCURVE",
"115 575 OFFCURVE",
"122 579 CURVE",
"117 545 OFFCURVE",
"92 524 OFFCURVE",
"64 514 CURVE SMOOTH",
"55 511 OFFCURVE",
"56 503 OFFCURVE",
"66 506 CURVE SMOOTH",
"98 516 OFFCURVE",
"141 544 OFFCURVE",
"141 593 CURVE SMOOTH"
);
}
);
width = 119;
}
);
note = quotesingle;
unicode = 0027;
},
{
glyphname = parenleft;
lastChange = "2020-01-01 22:27:46 +0000";
layers = (
{
hints = (
{
horizontal = 1;
place = "{-45, 17}";
type = Stem;
},
{
place = "{19, 44}";
type = Stem;
}
);
layerId = "61E7180A-0B32-4047-B910-001D8BB62225";
paths = (
{
closed = 1;
nodes = (
"200 737 OFFCURVE",
"60 568 OFFCURVE",
"31 458 CURVE SMOOTH",
"-14 286 OFFCURVE",
"66 158 OFFCURVE",
"173 170 CURVE SMOOTH",
"197 173 OFFCURVE",
"197 189 OFFCURVE",
"178 187 CURVE SMOOTH",
"66 173 OFFCURVE",
"37 326 OFFCURVE",
"82 464 CURVE SMOOTH",
"110 551 OFFCURVE",
"200 720 OFFCURVE",
"372 765 CURVE SMOOTH",
"394 771 OFFCURVE",
"397 787 OFFCURVE",
"372 781 CURVE SMOOTH"
);
}
);
width = 263;
}
);
note = parenleft;
unicode = 0028;
},
{
glyphname = parenright;
lastChange = "2020-01-01 22:27:46 +0000";
layers = (
{
hints = (
{
horizontal = 1;
place = "{557, 17}";
type = Stem;
},
{
place = "{338, 44}";
type = Stem;
}
);
layerId = "61E7180A-0B32-4047-B910-001D8BB62225";
paths = (
{
closed = 1;
nodes = (
"413 671 OFFCURVE",
"334 800 OFFCURVE",
"227 787 CURVE SMOOTH",
"203 784 OFFCURVE",
"203 768 OFFCURVE",
"223 770 CURVE SMOOTH",
"334 783 OFFCURVE",
"363 632 OFFCURVE",
"318 493 CURVE SMOOTH",
"290 406 OFFCURVE",
"200 237 OFFCURVE",
"29 192 CURVE SMOOTH",
"6 186 OFFCURVE",
"3 170 OFFCURVE",
"28 176 CURVE SMOOTH",
"200 221 OFFCURVE",
"341 389 OFFCURVE",
"369 500 CURVE SMOOTH"
);
}
);
width = 389;
}
);
note = parenright;
unicode = 0029;
},
{
glyphname = asterisk;
lastChange = "2020-01-01 22:27:46 +0000";
layers = (
{
hints = (
{
horizontal = 1;
place = "{268, 25}";
type = Stem;
}
);
layerId = "61E7180A-0B32-4047-B910-001D8BB62225";
paths = (
{
closed = 1;
nodes = (
"192 506 LINE",
"256 575 LINE SMOOTH",
"275 596 OFFCURVE",
"266 618 OFFCURVE",
"251 602 CURVE SMOOTH",
"164 515 LINE",
"150 541 OFFCURVE",
"136 569 OFFCURVE",
"119 601 CURVE SMOOTH",
"107 625 OFFCURVE",
"84 620 OFFCURVE",
"94 600 CURVE SMOOTH",
"110 567 OFFCURVE",
"124 536 OFFCURVE",
"137 506 CURVE",
"28 506 LINE SMOOTH",
"1 506 OFFCURVE",
"14 472 OFFCURVE",
"27 473 CURVE SMOOTH",
"126 476 LINE",
"51 401 LINE SMOOTH",
"31 380 OFFCURVE",
"63 367 OFFCURVE",
"73 377 CURVE SMOOTH",
"155 466 LINE",
"171 429 OFFCURVE",
"184 400 OFFCURVE",
"192 382 CURVE SMOOTH",
"205 357 OFFCURVE",
"227 388 OFFCURVE",
"221 400 CURVE SMOOTH",
"206 427 OFFCURVE",
"194 452 OFFCURVE",
"181 479 CURVE",
"280 482 LINE SMOOTH",
"306 483 OFFCURVE",
"315 506 OFFCURVE",
"294 506 CURVE SMOOTH"
);
}
);
width = 323;
}
);
note = asterisk;
unicode = 002A;
},
{
glyphname = plus;
lastChange = "2020-01-01 22:27:46 +0000";
layers = (
{
hints = (
{
horizontal = 1;
place = "{152, 27}";
type = Stem;
}
);
layerId = "61E7180A-0B32-4047-B910-001D8BB62225";
paths = (
{
closed = 1;
nodes = (
"314 394 OFFCURVE",
"278 393 OFFCURVE",
"248 394 CURVE",
"254 425 OFFCURVE",
"264 478 OFFCURVE",
"271 506 CURVE SMOOTH",
"275 526 OFFCURVE",
"254 520 OFFCURVE",
"250 503 CURVE SMOOTH",
"242 473 OFFCURVE",
"230 422 OFFCURVE",
"224 394 CURVE",
"184 395 OFFCURVE",
"136 396 OFFCURVE",
"119 396 CURVE SMOOTH",
"97 396 OFFCURVE",
"99 359 OFFCURVE",
"110 360 CURVE SMOOTH",
"132 362 OFFCURVE",
"181 364 OFFCURVE",
"216 367 CURVE",
"206 326 OFFCURVE",
"194 283 OFFCURVE",
"191 266 CURVE SMOOTH",
"185 244 OFFCURVE",
"225 255 OFFCURVE",
"227 266 CURVE SMOOTH",
"229 288 OFFCURVE",
"238 332 OFFCURVE",
"244 368 CURVE",
"276 371 OFFCURVE",
"315 373 OFFCURVE",
"344 373 CURVE SMOOTH",
"364 373 OFFCURVE",
"362 392 OFFCURVE",
"346 393 CURVE SMOOTH"
);
}
);
width = 344;
}
);
note = plus;
unicode = 002B;
},
{
glyphname = comma;
lastChange = "2020-01-01 22:28:00 +0000";
layers = (
{
hints = (
{
horizontal = 1;
place = "{-11, 62}";
type = Stem;
},
{
place = "{63, 20}";
type = Stem;
}
);
layerId = "61E7180A-0B32-4047-B910-001D8BB62225";
paths = (
{
closed = 1;
nodes = (
"86 249 OFFCURVE",
"74 266 OFFCURVE",
"53 266 CURVE SMOOTH",
"35 266 OFFCURVE",
"19 252 OFFCURVE",
"17 235 CURVE SMOOTH",
"14 218 OFFCURVE",
"25 204 OFFCURVE",
"42 204 CURVE SMOOTH",
"50 204 OFFCURVE",
"57 207 OFFCURVE",
"63 212 CURVE",
"59 178 OFFCURVE",
"34 155 OFFCURVE",
"6 146 CURVE SMOOTH",
"-4 143 OFFCURVE",
"-2 134 OFFCURVE",
"8 138 CURVE SMOOTH",
"39 149 OFFCURVE",
"86 180 OFFCURVE",
"86 230 CURVE SMOOTH"
);
}
);
width = 115;
}
);
note = comma;
unicode = 002C;
},
{
glyphname = hyphen;
lastChange = "2020-01-01 22:28:00 +0000";
layers = (
{
hints = (
{
horizontal = 1;
place = "{158, 20}";
type = Stem;
},
{
place = "{110, 194}";
type = Stem;
}
);
layerId = "61E7180A-0B32-4047-B910-001D8BB62225";
paths = (
{
closed = 1;
nodes = (
"311 373 OFFCURVE",
"305 392 OFFCURVE",
"288 393 CURVE SMOOTH",
"201 395 OFFCURVE",
"155 396 OFFCURVE",
"123 396 CURVE SMOOTH",
"101 396 OFFCURVE",
"113 359 OFFCURVE",
"123 360 CURVE SMOOTH",
"168 365 OFFCURVE",
"222 373 OFFCURVE",
"291 373 CURVE SMOOTH"
);
}
);
width = 305;
}
);
note = hyphen;
unicode = 002D;
},
{
glyphname = period;
lastChange = "2020-01-01 22:28:00 +0000";
layers = (
{
hints = (
{
horizontal = 1;
place = "{-11, 62}";
type = Stem;
}
);
layerId = "61E7180A-0B32-4047-B910-001D8BB62225";
paths = (
{
closed = 1;
nodes = (
"142 252 OFFCURVE",
"130 266 OFFCURVE",
"113 266 CURVE SMOOTH",
"96 266 OFFCURVE",
"80 252 OFFCURVE",
"77 235 CURVE SMOOTH",
"74 218 OFFCURVE",
"86 204 OFFCURVE",
"103 204 CURVE SMOOTH",
"120 204 OFFCURVE",
"136 218 OFFCURVE",
"139 235 CURVE SMOOTH"
);
}
);
width = 156;
}
);
note = period;
unicode = 002E;
},
{
glyphname = slash;
lastChange = "2020-01-01 22:28:00 +0000";
layers = (
{
hints = (
{
horizontal = 1;
place = "{571, 22}";
type = Stem;
}
);
layerId = "61E7180A-0B32-4047-B910-001D8BB62225";
paths = (
{
closed = 1;
nodes = (
"317 554 OFFCURVE",
"95 267 OFFCURVE",
"20 202 CURVE SMOOTH",
"5 189 OFFCURVE",
"13 177 OFFCURVE",
"33 190 CURVE SMOOTH",
"125 250 OFFCURVE",
"437 662 OFFCURVE",
"561 806 CURVE SMOOTH",
"579 826 OFFCURVE",
"539 835 OFFCURVE",
"524 815 CURVE SMOOTH"
);
}
);
width = 411;
}
);
note = slash;
unicode = 002F;
},
{
glyphname = zero;
lastChange = "2020-01-01 22:28:00 +0000";
layers = (
{
hints = (
{
horizontal = 1;
place = "{-8, 15}";
type = Stem;
},
{
horizontal = 1;
place = "{420, 14}";
type = Stem;
},
{
place = "{39, 45}";
type = Stem;
},
{
place = "{350, 29}";
type = Stem;
}
);
layerId = "61E7180A-0B32-4047-B910-001D8BB62225";
paths = (
{
closed = 1;
nodes = (
"379 612 OFFCURVE",
"361 649 OFFCURVE",
"309 649 CURVE SMOOTH",
"183 649 OFFCURVE",
"39 418 OFFCURVE",
"39 304 CURVE SMOOTH",
"39 253 OFFCURVE",
"65 206 OFFCURVE",
"121 206 CURVE SMOOTH",
"257 206 OFFCURVE",
"379 447 OFFCURVE",
"379 566 CURVE SMOOTH"
);
},
{
closed = 1;
nodes = (
"350 490 OFFCURVE",
"232 221 OFFCURVE",
"130 221 CURVE SMOOTH",
"95 221 OFFCURVE",
"84 247 OFFCURVE",
"84 278 CURVE SMOOTH",
"84 362 OFFCURVE",
"212 635 OFFCURVE",
"310 635 CURVE SMOOTH",
"342 635 OFFCURVE",
"350 608 OFFCURVE",
"350 580 CURVE SMOOTH"
);
}
);
width = 377;
}
);
note = zero;
unicode = 0030;
},
{
glyphname = one;
lastChange = "2020-01-01 22:28:00 +0000";
layers = (
{
hints = (
{
horizontal = 1;
place = "{-2, 15}";
type = Stem;
}
);
layerId = "61E7180A-0B32-4047-B910-001D8BB62225";
paths = (
{
closed = 1;
nodes = (
"320 637 LINE",
"320 641 LINE",
"318 641 OFFCURVE",
"317 642 OFFCURVE",
"315 641 CURVE",
"292 639 LINE SMOOTH",
"279 638 OFFCURVE",
"266 623 OFFCURVE",
"258 614 CURVE SMOOTH",
"215 569 OFFCURVE",
"171 537 OFFCURVE",
"121 499 CURVE",
"119 494 LINE",
"122 488 LINE",
"125 488 LINE",
"170 515 OFFCURVE",
"209 546 OFFCURVE",
"248 581 CURVE",
"180 461 OFFCURVE",
"113 340 OFFCURVE",
"45 219 CURVE",
"46 215 LINE",
"47 215 OFFCURVE",
"51 213 OFFCURVE",
"53 213 CURVE SMOOTH",
"62 214 OFFCURVE",
"84 214 OFFCURVE",
"92 218 CURVE",
"316 629 LINE"
);
}
);
width = 284;
}
);
note = one;
unicode = 0031;
},
{
glyphname = two;
lastChange = "2020-01-01 22:28:00 +0000";
layers = (
{
hints = (
{
horizontal = 1;
place = "{-9, 42}";
type = Stem;
},
{
horizontal = 1;
place = "{409, 23}";
type = Stem;
},
{
place = "{324, 53}";
type = Stem;
}
);
layerId = "61E7180A-0B32-4047-B910-001D8BB62225";
paths = (
{
closed = 1;
nodes = (
"377 625 OFFCURVE",
"347 647 OFFCURVE",
"309 647 CURVE SMOOTH",
"233 647 OFFCURVE",
"175 574 OFFCURVE",
"152 509 CURVE",
"153 504 LINE",
"162 504 LINE",
"165 507 LINE",
"184 556 OFFCURVE",
"232 623 OFFCURVE",
"289 623 CURVE SMOOTH",
"311 623 OFFCURVE",
"325 614 OFFCURVE",
"325 590 CURVE SMOOTH",
"325 505 OFFCURVE",
"152 350 OFFCURVE",
"91 295 CURVE",
"86 297 OFFCURVE",
"79 296 OFFCURVE",
"74 296 CURVE SMOOTH",
"70 294 OFFCURVE",
"2 220 OFFCURVE",
"1 215 CURVE",
"11 209 LINE",
"63 250 LINE",
"81 242 OFFCURVE",
"158 206 OFFCURVE",
"180 206 CURVE SMOOTH",
"220 206 OFFCURVE",
"275 266 OFFCURVE",
"299 295 CURVE",
"299 298 LINE",
"293 302 LINE",
"284 299 OFFCURVE",
"251 248 OFFCURVE",
"209 248 CURVE SMOOTH",
"191 248 OFFCURVE",
"125 281 OFFCURVE",
"106 290 CURVE",
"163 338 OFFCURVE",
"377 503 OFFCURVE",
"377 584 CURVE SMOOTH"
);
}
);
width = 366;
}
);
note = two;
unicode = 0032;
},
{
glyphname = three;
lastChange = "2020-01-01 22:28:00 +0000";
layers = (
{
hints = (
{
horizontal = 1;
place = "{-8, 17}";
type = Stem;
},
{
horizontal = 1;
place = "{410, 24}";
type = Stem;
},
{
place = "{248, 51}";
type = Stem;
},
{
place = "{314, 51}";
type = Stem;
}
);
layerId = "61E7180A-0B32-4047-B910-001D8BB62225";
paths = (
{
closed = 1;
nodes = (
"365 635 OFFCURVE",
"338 648 OFFCURVE",
"308 648 CURVE SMOOTH",
"251 648 OFFCURVE",
"205 607 OFFCURVE",
"171 566 CURVE",
"171 562 LINE",
"176 557 LINE",
"180 557 LINE",
"204 584 OFFCURVE",
"245 624 OFFCURVE",
"284 624 CURVE SMOOTH",
"302 624 OFFCURVE",
"313 616 OFFCURVE",
"313 597 CURVE SMOOTH",
"313 524 OFFCURVE",
"195 467 OFFCURVE",
"140 446 CURVE",
"137 442 LINE",
"138 435 LINE",
"143 433 LINE",
"160 437 OFFCURVE",
"179 443 OFFCURVE",
"196 443 CURVE SMOOTH",
"224 443 OFFCURVE",
"248 428 OFFCURVE",
"248 397 CURVE SMOOTH",
"248 317 OFFCURVE",
"146 223 OFFCURVE",
"69 223 CURVE SMOOTH",
"53 223 OFFCURVE",
"31 227 OFFCURVE",
"17 234 CURVE",
"13 233 LINE",
"8 228 LINE",
"8 224 LINE",
"27 210 OFFCURVE",
"54 206 OFFCURVE",
"77 206 CURVE SMOOTH",
"163 206 OFFCURVE",
"299 299 OFFCURVE",
"299 391 CURVE SMOOTH",
"299 445 OFFCURVE",
"242 460 OFFCURVE",
"198 460 CURVE",
"257 481 OFFCURVE",
"365 527 OFFCURVE",
"365 602 CURVE SMOOTH"
);
}
);
width = 344;
}
);
note = three;
unicode = 0033;
},
{
glyphname = four;
lastChange = "2020-01-01 22:28:00 +0000";
layers = (
{
hints = (
{
horizontal = 1;
place = "{141, 16}";
type = Stem;
}
);
layerId = "61E7180A-0B32-4047-B910-001D8BB62225";
paths = (
{
closed = 1;
nodes = (
"363 641 LINE",
"358 644 LINE",
"318 636 OFFCURVE",
"305 641 OFFCURVE",
"281 609 CURVE SMOOTH",
"248 566 OFFCURVE",
"215 527 OFFCURVE",
"179 487 CURVE SMOOTH",
"143 446 OFFCURVE",
"95 404 OFFCURVE",
"62 362 CURVE SMOOTH",
"61 361 OFFCURVE",
"60 359 OFFCURVE",
"59 357 CURVE",
"59 351 LINE",
"242 356 LINE",
"235 344 OFFCURVE",
"167 218 OFFCURVE",
"167 213 CURVE SMOOTH",
"167 210 LINE",
"170 209 LINE",
"176 209 OFFCURVE",
"215 217 OFFCURVE",
"218 221 CURVE SMOOTH",
"227 229 OFFCURVE",
"280 340 OFFCURVE",
"289 358 CURVE",
"311 359 LINE",
"316 362 LINE",
"320 371 LINE",
"315 374 LINE",
"297 374 LINE",
"302 383 OFFCURVE",
"347 470 OFFCURVE",
"347 473 CURVE SMOOTH",
"347 478 LINE",
"342 480 LINE",
"329 479 OFFCURVE",
"306 480 OFFCURVE",
"299 466 CURVE SMOOTH",
"251 371 LINE",
"88 368 LINE",
"112 390 OFFCURVE",
"365 612 OFFCURVE",
"364 636 CURVE SMOOTH"
);
}
);
width = 348;
}
);
note = four;
unicode = 0034;
},
{
glyphname = five;
lastChange = "2020-01-01 22:28:00 +0000";
layers = (
{
hints = (
{
horizontal = 1;
place = "{-10, 14}";
type = Stem;
},
{
horizontal = 1;
place = "{243, 20}";
type = Stem;
},
{
horizontal = 1;
place = "{370, 48}";
type = Stem;
},
{
place = "{237, 50}";
type = Stem;
}
);
layerId = "61E7180A-0B32-4047-B910-001D8BB62225";
paths = (
{
closed = 1;
nodes = (
"377 648 LINE",
"332 614 OFFCURVE",
"251 649 OFFCURVE",
"205 630 CURVE",
"195 622 OFFCURVE",
"92 442 OFFCURVE",
"85 422 CURVE",
"85 417 LINE",
"89 416 LINE",
"121 431 OFFCURVE",
"152 458 OFFCURVE",
"188 458 CURVE SMOOTH",
"219 458 OFFCURVE",
"237 440 OFFCURVE",
"237 410 CURVE SMOOTH",
"237 326 OFFCURVE",
"129 219 OFFCURVE",
"45 219 CURVE SMOOTH",
"30 219 OFFCURVE",
"13 221 OFFCURVE",
"-2 226 CURVE",
"-5 224 LINE",
"-9 219 LINE",
"-9 214 LINE",
"3 206 OFFCURVE",
"30 205 OFFCURVE",
"44 205 CURVE SMOOTH",
"140 205 OFFCURVE",
"287 308 OFFCURVE",
"287 412 CURVE SMOOTH",
"287 457 OFFCURVE",
"254 477 OFFCURVE",
"212 477 CURVE SMOOTH",
"179 477 OFFCURVE",
"140 462 OFFCURVE",
"112 443 CURVE",
"194 587 LINE",
"257 583 OFFCURVE",
"353 574 OFFCURVE",
"380 647 CURVE"
);
}
);
width = 334;
}
);
note = five;
unicode = 0035;
},
{
glyphname = six;
lastChange = "2020-01-01 22:28:00 +0000";
layers = (
{
hints = (
{
horizontal = 1;
place = "{-8, 17}";
type = Stem;
},
{
horizontal = 1;
place = "{230, 23}";
type = Stem;
},
{
place = "{28, 44}";
type = Stem;
},
{
place = "{254, 47}";
type = Stem;
}
);
layerId = "61E7180A-0B32-4047-B910-001D8BB62225";
paths = (
{
closed = 1;
nodes = (
"320 656 LINE",
"315 655 LINE",
"211 583 OFFCURVE",
"28 423 OFFCURVE",
"28 287 CURVE SMOOTH",
"28 236 OFFCURVE",
"59 206 OFFCURVE",
"109 206 CURVE SMOOTH",
"196 206 OFFCURVE",
"300 323 OFFCURVE",
"300 408 CURVE SMOOTH",
"300 441 OFFCURVE",
"282 467 OFFCURVE",
"247 467 CURVE SMOOTH",
"180 467 OFFCURVE",
"122 383 OFFCURVE",
"108 325 CURVE",
"110 320 LINE",
"117 321 LINE",
"120 325 LINE",
"136 366 OFFCURVE",
"179 444 OFFCURVE",
"229 444 CURVE SMOOTH",
"248 444 OFFCURVE",
"254 431 OFFCURVE",
"254 414 CURVE SMOOTH",
"254 351 OFFCURVE",
"184 224 OFFCURVE",
"113 224 CURVE SMOOTH",
"86 224 OFFCURVE",
"72 245 OFFCURVE",
"72 270 CURVE SMOOTH",
"72 341 OFFCURVE",
"132 437 OFFCURVE",
"173 492 CURVE SMOOTH",
"203 530 OFFCURVE",
"235 566 OFFCURVE",
"270 598 CURVE SMOOTH",
"286 612 OFFCURVE",
"308 626 OFFCURVE",
"321 641 CURVE SMOOTH",
"323 643 OFFCURVE",
"323 646 OFFCURVE",
"325 647 CURVE"
);
}
);
width = 316;
}
);
note = six;
unicode = 0036;
},
{
glyphname = seven;
lastChange = "2020-01-01 22:28:00 +0000";
layers = (
{
hints = (
{
horizontal = 1;
place = "{-4, 15}";
type = Stem;
},
{
horizontal = 1;
place = "{374, 50}";
type = Stem;
}
);
layerId = "61E7180A-0B32-4047-B910-001D8BB62225";
paths = (
{
closed = 1;
nodes = (
"434 636 LINE",
"431 641 LINE",
"427 641 OFFCURVE",
"419 635 OFFCURVE",
"416 633 CURVE",
"380 638 OFFCURVE",
"344 638 OFFCURVE",
"309 638 CURVE SMOOTH",
"220 638 OFFCURVE",
"204 620 OFFCURVE",
"164 541 CURVE",
"164 536 LINE",
"166 535 LINE",
"188 536 OFFCURVE",
"189 589 OFFCURVE",
"255 589 CURVE SMOOTH",
"295 589 OFFCURVE",
"335 587 OFFCURVE",
"374 586 CURVE",
"338 551 OFFCURVE",
"15 245 OFFCURVE",
"8 216 CURVE",
"8 213 LINE",
"13 211 LINE",
"28 212 OFFCURVE",
"54 212 OFFCURVE",
"67 218 CURVE SMOOTH",
"71 220 OFFCURVE",
"112 273 OFFCURVE",
"117 279 CURVE SMOOTH",
"170 347 OFFCURVE",
"226 413 OFFCURVE",
"285 475 CURVE SMOOTH",
"335 527 OFFCURVE",
"386 578 OFFCURVE",
"432 631 CURVE"
);
}
);
width = 366;
}
);
note = seven;
unicode = 0037;
},
{
glyphname = eight;
lastChange = "2020-01-01 22:28:00 +0000";
layers = (
{
hints = (
{
horizontal = 1;
place = "{-8, 16}";
type = Stem;
},
{
horizontal = 1;
place = "{433, -20}";
target = down;
type = TopGhost;
},
{
place = "{11, 35}";
type = Stem;
},
{
place = "{199, 48}";
type = Stem;
},
{
place = "{319, 27}";
type = Stem;
}
);
layerId = "61E7180A-0B32-4047-B910-001D8BB62225";
paths = (
{
closed = 1;
nodes = (
"346 630 OFFCURVE",
"314 647 OFFCURVE",
"277 647 CURVE SMOOTH",
"212 647 OFFCURVE",
"151 591 OFFCURVE",
"151 525 CURVE SMOOTH",
"151 505 OFFCURVE",
"155 484 OFFCURVE",
"164 465 CURVE",
"111 426 OFFCURVE",
"11 350 OFFCURVE",
"11 279 CURVE SMOOTH",
"11 231 OFFCURVE",
"53 206 OFFCURVE",
"96 206 CURVE SMOOTH",
"168 206 OFFCURVE",
"247 269 OFFCURVE",
"247 344 CURVE SMOOTH",
"247 377 OFFCURVE",
"246 398 OFFCURVE",
"233 428 CURVE",
"276 466 OFFCURVE",
"346 527 OFFCURVE",
"346 590 CURVE SMOOTH"
);
},
{
closed = 1;
nodes = (
"319 535 OFFCURVE",
"268 476 OFFCURVE",
"227 443 CURVE",
"216 473 OFFCURVE",
"200 517 OFFCURVE",
"200 550 CURVE SMOOTH",
"200 591 OFFCURVE",
"235 632 OFFCURVE",
"278 632 CURVE SMOOTH",
"304 632 OFFCURVE",
"319 617 OFFCURVE",
"319 590 CURVE SMOOTH"
);
},
{
closed = 1;
nodes = (
"199 278 OFFCURVE",
"154 222 OFFCURVE",
"98 222 CURVE SMOOTH",
"63 222 OFFCURVE",
"45 244 OFFCURVE",
"45 277 CURVE SMOOTH",
"45 349 OFFCURVE",
"115 412 OFFCURVE",
"167 451 CURVE",
"182 416 OFFCURVE",
"199 369 OFFCURVE",
"199 332 CURVE SMOOTH"
);
}
);
width = 315;
}
);
note = eight;
unicode = 0038;
},
{
glyphname = nine;
lastChange = "2020-01-01 22:28:00 +0000";
layers = (
{
hints = (
{
horizontal = 1;
place = "{156, 44}";
type = Stem;
},
{
horizontal = 1;
place = "{417, 21}";
target = up;
type = BottomGhost;
},
{
place = "{56, 43}";
type = Stem;
},
{
place = "{284, 45}";
type = Stem;
}
);
layerId = "61E7180A-0B32-4047-B910-001D8BB62225";
paths = (
{
closed = 1;
nodes = (
"329 602 OFFCURVE",
"307 647 OFFCURVE",
"255 647 CURVE SMOOTH",
"169 647 OFFCURVE",
"56 514 OFFCURVE",
"56 429 CURVE SMOOTH",
"56 396 OFFCURVE",
"74 371 OFFCURVE",
"109 371 CURVE SMOOTH",
"175 371 OFFCURVE",
"230 462 OFFCURVE",
"251 516 CURVE",
"250 520 LINE",
"242 521 LINE",
"239 518 LINE",
"221 477 OFFCURVE",
"188 414 OFFCURVE",
"136 414 CURVE SMOOTH",
"110 414 OFFCURVE",
"98 432 OFFCURVE",
"98 456 CURVE SMOOTH",
"98 522 OFFCURVE",
"171 632 OFFCURVE",
"242 632 CURVE SMOOTH",
"274 632 OFFCURVE",
"284 608 OFFCURVE",
"284 580 CURVE SMOOTH",
"284 562 OFFCURVE",
"281 543 OFFCURVE",
"276 526 CURVE SMOOTH",
"242 391 OFFCURVE",
"158 288 OFFCURVE",
"47 209 CURVE",
"44 205 LINE",
"47 198 LINE",
"52 198 LINE",
"159 269 OFFCURVE",
"329 417 OFFCURVE",
"329 557 CURVE SMOOTH"
);
}
);
width = 326;
}
);
note = nine;
unicode = 0039;
},
{
glyphname = colon;
lastChange = "2020-01-01 22:28:00 +0000";
layers = (
{
hints = (
{
horizontal = 1;
place = "{-11, 62}";
type = Stem;
},
{
horizontal = 1;
place = "{158, 62}";
type = Stem;
}
);
layerId = "61E7180A-0B32-4047-B910-001D8BB62225";
paths = (
{
closed = 1;
nodes = (
"194 420 OFFCURVE",
"182 434 OFFCURVE",
"165 434 CURVE SMOOTH",
"148 434 OFFCURVE",
"131 420 OFFCURVE",
"129 403 CURVE SMOOTH",
"126 386 OFFCURVE",
"137 372 OFFCURVE",
"155 372 CURVE SMOOTH",
"172 372 OFFCURVE",
"188 386 OFFCURVE",
"191 403 CURVE SMOOTH"
);
},
{
closed = 1;
nodes = (
"111 252 OFFCURVE",
"100 266 OFFCURVE",
"83 266 CURVE SMOOTH",
"65 266 OFFCURVE",
"50 252 OFFCURVE",
"47 235 CURVE SMOOTH",
"44 218 OFFCURVE",
"56 204 OFFCURVE",
"72 204 CURVE SMOOTH",
"89 204 OFFCURVE",
"106 218 OFFCURVE",
"108 235 CURVE SMOOTH"
);
}
);
width = 192;
}
);
note = colon;
unicode = 003A;
},
{
glyphname = semicolon;
lastChange = "2020-01-01 22:28:00 +0000";
layers = (
{
hints = (
{
horizontal = 1;
place = "{-11, 62}";
type = Stem;
},
{
horizontal = 1;
place = "{158, 62}";
type = Stem;
},
{
place = "{94, 20}";
type = Stem;
}
);
layerId = "61E7180A-0B32-4047-B910-001D8BB62225";
paths = (
{
closed = 1;
nodes = (
"194 420 OFFCURVE",
"182 434 OFFCURVE",
"165 434 CURVE SMOOTH",
"148 434 OFFCURVE",
"131 420 OFFCURVE",
"129 403 CURVE SMOOTH",
"126 386 OFFCURVE",
"137 372 OFFCURVE",
"155 372 CURVE SMOOTH",
"172 372 OFFCURVE",
"188 386 OFFCURVE",
"191 403 CURVE SMOOTH"
);
},
{
closed = 1;
nodes = (
"113 245 OFFCURVE",
"104 266 OFFCURVE",
"83 266 CURVE SMOOTH",
"65 266 OFFCURVE",
"50 252 OFFCURVE",
"47 235 CURVE SMOOTH",
"44 218 OFFCURVE",
"56 204 OFFCURVE",
"72 204 CURVE SMOOTH",
"80 204 OFFCURVE",
"87 207 OFFCURVE",
"94 212 CURVE",
"89 178 OFFCURVE",
"64 155 OFFCURVE",
"36 146 CURVE SMOOTH",
"27 143 OFFCURVE",
"29 134 OFFCURVE",
"38 138 CURVE SMOOTH",
"70 149 OFFCURVE",
"113 176 OFFCURVE",
"113 225 CURVE SMOOTH"
);
}
);
width = 191;
}
);
note = semicolon;
unicode = 003B;
},
{
glyphname = less;
lastChange = "2020-01-01 22:28:00 +0000";
layers = (
{
hints = (
{
horizontal = 1;
place = "{16, 21}";
target = up;
type = BottomGhost;
}
);
layerId = "61E7180A-0B32-4047-B910-001D8BB62225";
paths = (
{
closed = 1;
nodes = (
"249 443 LINE",
"244 445 LINE",
"236 446 OFFCURVE",
"101 359 OFFCURVE",
"84 349 CURVE",
"93 311 OFFCURVE",
"98 268 OFFCURVE",
"113 233 CURVE",
"114 231 OFFCURVE",
"116 230 OFFCURVE",
"119 230 CURVE",
"124 233 LINE",
"128 240 LINE",
"128 342 LINE",
"149 358 OFFCURVE",
"236 415 OFFCURVE",
"250 437 CURVE"
);
}
);
width = 247;
}
);
note = less;
unicode = 003C;
},
{
glyphname = equal;
lastChange = "2020-01-01 22:28:00 +0000";
layers = (
{
hints = (
{
horizontal = 1;
place = "{146, 36}";
type = Stem;
},
{
horizontal = 1;
place = "{221, 36}";
type = Stem;
},
{
place = "{110, 197}";
type = Stem;
}
);
layerId = "61E7180A-0B32-4047-B910-001D8BB62225";
paths = (
{
closed = 1;
nodes = (
"307 472 OFFCURVE",
"244 471 OFFCURVE",
"233 471 CURVE SMOOTH",
"123 471 LINE SMOOTH",
"115 471 OFFCURVE",
"110 464 OFFCURVE",
"110 457 CURVE SMOOTH",
"110 450 OFFCURVE",
"114 435 OFFCURVE",
"123 435 CURVE SMOOTH",
"143 435 OFFCURVE",
"161 440 OFFCURVE",
"181 442 CURVE SMOOTH",
"218 446 OFFCURVE",
"257 448 OFFCURVE",
"294 448 CURVE SMOOTH",
"299 448 OFFCURVE",
"307 449 OFFCURVE",
"307 456 CURVE SMOOTH"
);
},
{
closed = 1;
nodes = (
"307 397 OFFCURVE",
"244 396 OFFCURVE",
"233 396 CURVE SMOOTH",
"123 396 LINE SMOOTH",
"115 396 OFFCURVE",
"110 389 OFFCURVE",
"110 382 CURVE SMOOTH",
"110 375 OFFCURVE",
"114 360 OFFCURVE",
"123 360 CURVE SMOOTH",
"143 360 OFFCURVE",
"161 365 OFFCURVE",
"181 367 CURVE SMOOTH",
"218 371 OFFCURVE",
"257 373 OFFCURVE",
"294 373 CURVE SMOOTH",
"299 373 OFFCURVE",
"307 374 OFFCURVE",
"307 381 CURVE SMOOTH"
);
}
);
width = 344;
}
);
note = equal;
unicode = 003D;
},
{
glyphname = greater;
lastChange = "2020-01-01 22:28:00 +0000";
layers = (
{
hints = (
{
horizontal = 1;
place = "{16, 21}";
target = up;
type = BottomGhost;
},
{
horizontal = 1;
place = "{230, -20}";
target = down;
type = TopGhost;
}
);
layerId = "61E7180A-0B32-4047-B910-001D8BB62225";
paths = (
{
closed = 1;
nodes = (
"186 327 LINE",
"178 364 OFFCURVE",
"173 407 OFFCURVE",
"159 442 CURVE",
"152 445 LINE",
"146 442 LINE",
"145 440 OFFCURVE",
"144 437 OFFCURVE",
"143 435 CURVE",
"142 333 LINE",
"139 331 OFFCURVE",
"20 251 OFFCURVE",
"20 235 CURVE",
"21 232 LINE",
"23 231 OFFCURVE",
"26 230 OFFCURVE",
"27 230 CURVE SMOOTH",
"32 231 LINE"
);
}
);
width = 247;
}
);
note = greater;
unicode = 003E;
},
{
glyphname = question;
lastChange = "2020-01-01 22:28:00 +0000";
layers = (
{
hints = (
{
horizontal = 1;
place = "{-11, 62}";
type = Stem;
},
{
horizontal = 1;
place = "{453, 33}";
type = Stem;
},
{
place = "{155, 87}";
type = Stem;
},
{
place = "{313, 54}";
type = Stem;
}
);
layerId = "61E7180A-0B32-4047-B910-001D8BB62225";
paths = (
{
closed = 1;
nodes = (
"434 679 OFFCURVE",
"320 737 OFFCURVE",
"215 677 CURVE SMOOTH",
"195 665 OFFCURVE",
"170 650 OFFCURVE",
"161 628 CURVE SMOOTH",
"139 576 OFFCURVE",
"185 545 OFFCURVE",
"225 575 CURVE SMOOTH",
"260 602 OFFCURVE",
"239 654 OFFCURVE",
"195 630 CURVE SMOOTH",
"183 623 OFFCURVE",
"172 615 OFFCURVE",
"169 603 CURVE",
"166 621 OFFCURVE",
"188 644 OFFCURVE",
"211 655 CURVE SMOOTH",
"284 690 OFFCURVE",
"353 650 OFFCURVE",
"287 566 CURVE SMOOTH",
"231 497 OFFCURVE",
"154 415 OFFCURVE",
"136 340 CURVE SMOOTH",
"134 330 OFFCURVE",
"146 326 OFFCURVE",
"150 335 CURVE SMOOTH",
"188 436 OFFCURVE",
"254 474 OFFCURVE",
"318 548 CURVE SMOOTH"
);
},
{
closed = 1;
nodes = (
"155 252 OFFCURVE",
"143 266 OFFCURVE",
"126 266 CURVE SMOOTH",
"109 266 OFFCURVE",
"92 252 OFFCURVE",
"90 235 CURVE SMOOTH",
"87 218 OFFCURVE",
"98 204 OFFCURVE",
"116 204 CURVE SMOOTH",
"133 204 OFFCURVE",
"149 218 OFFCURVE",
"152 235 CURVE SMOOTH"
);
}
);
width = 287;
}
);
note = question;
unicode = 003F;
},
{
glyphname = at;
lastChange = "2020-01-01 22:28:00 +0000";
layers = (
{
hints = (
{
horizontal = 1;
place = "{-111, 17}";
type = Stem;
},
{
horizontal = 1;
place = "{29, 26}";
type = Stem;
},
{
horizontal = 1;
place = "{344, 23}";
type = Stem;
},
{
horizontal = 1;
place = "{494, 21}";
target = up;
type = BottomGhost;
},
{
place = "{57, 36}";
type = Stem;
},
{
place = "{211, 43}";
type = Stem;
},
{
place = "{677, 30}";
type = Stem;
}
);
layerId = "61E7180A-0B32-4047-B910-001D8BB62225";
paths = (
{
closed = 1;
nodes = (
"697 674 OFFCURVE",
"573 724 OFFCURVE",
"460 724 CURVE SMOOTH",
"251 724 OFFCURVE",
"40 539 OFFCURVE",
"57 322 CURVE SMOOTH",
"70 167 OFFCURVE",
"200 104 OFFCURVE",
"338 104 CURVE SMOOTH",
"429 104 OFFCURVE",
"512 134 OFFCURVE",
"584 182 CURVE",
"596 188 OFFCURVE",
"584 203 OFFCURVE",
"575 194 CURVE",
"509 149 OFFCURVE",
"428 120 OFFCURVE",
"344 120 CURVE SMOOTH",
"224 120 OFFCURVE",
"104 179 OFFCURVE",
"94 313 CURVE SMOOTH",
"77 518 OFFCURVE",
"258 708 OFFCURVE",
"461 708 CURVE SMOOTH",
"566 708 OFFCURVE",
"667 664 OFFCURVE",
"677 545 CURVE SMOOTH",
"683 455 OFFCURVE",
"640 357 OFFCURVE",
"573 303 CURVE SMOOTH",
"530 268 OFFCURVE",
"422 229 OFFCURVE",
"442 324 CURVE SMOOTH",
"453 381 OFFCURVE",
"509 481 OFFCURVE",
"530 500 CURVE",
"516 498 OFFCURVE",
"502 504 OFFCURVE",
"490 505 CURVE SMOOTH",
"460 507 OFFCURVE",
"446 484 OFFCURVE",
"425 443 CURVE SMOOTH",
"401 398 OFFCURVE",
"375 351 OFFCURVE",
"341 311 CURVE SMOOTH",
"297 260 OFFCURVE",
"245 251 OFFCURVE",
"254 317 CURVE SMOOTH",
"260 353 OFFCURVE",
"285 400 OFFCURVE",
"293 413 CURVE SMOOTH",
"327 469 OFFCURVE",
"376 524 OFFCURVE",
"419 548 CURVE SMOOTH",
"453 567 OFFCURVE",
"489 560 OFFCURVE",
"500 524 CURVE",
"515 521 OFFCURVE",
"522 537 OFFCURVE",
"509 551 CURVE SMOOTH",
"455 611 OFFCURVE",
"347 575 OFFCURVE",
"290 508 CURVE SMOOTH",
"148 338 OFFCURVE",
"219 172 OFFCURVE",
"328 276 CURVE SMOOTH",
"356 303 OFFCURVE",
"381 340 OFFCURVE",
"396 365 CURVE",
"368 266 OFFCURVE",
"424 246 OFFCURVE",
"455 248 CURVE SMOOTH",
"492 248 OFFCURVE",
"550 266 OFFCURVE",
"577 288 CURVE SMOOTH",
"652 348 OFFCURVE",
"715 445 OFFCURVE",
"707 546 CURVE SMOOTH"
);
}
);
width = 717;
}
);
note = at;
unicode = 0040;
},
{
glyphname = A;
lastChange = "2020-01-01 22:28:00 +0000";
layers = (
{
hints = (
{
horizontal = 1;
place = "{560, 20}";
type = Stem;
},
{
place = "{614, 31}";
type = Stem;
}
);
layerId = "61E7180A-0B32-4047-B910-001D8BB62225";
paths = (
{
closed = 1;
nodes = (
"645 755 OFFCURVE",
"596 794 OFFCURVE",
"516 794 CURVE SMOOTH",
"370 794 OFFCURVE",
"245 704 OFFCURVE",
"150 599 CURVE",
"123 611 OFFCURVE",
"101 627 OFFCURVE",
"84 646 CURVE SMOOTH",
"67 665 OFFCURVE",
"59 683 OFFCURVE",
"68 705 CURVE SMOOTH",
"77 723 OFFCURVE",
"64 731 OFFCURVE",
"55 719 CURVE",
"38 707 OFFCURVE",
"41 659 OFFCURVE",
"62 635 CURVE SMOOTH",
"80 614 OFFCURVE",
"107 597 OFFCURVE",
"137 583 CURVE",
"111 554 OFFCURVE",
"89 521 OFFCURVE",
"71 488 CURVE SMOOTH",
"-5 352 OFFCURVE",
"-5 219 OFFCURVE",
"68 188 CURVE SMOOTH",
"174 143 OFFCURVE",
"314 286 OFFCURVE",
"376 359 CURVE",
"342 314 OFFCURVE",
"323 167 OFFCURVE",
"407 167 CURVE SMOOTH",
"449 167 OFFCURVE",
"491 197 OFFCURVE",
"517 231 CURVE SMOOTH",
"545 268 OFFCURVE",
"573 321 OFFCURVE",
"587 351 CURVE SMOOTH",
"595 369 OFFCURVE",
"581 368 OFFCURVE",
"574 354 CURVE SMOOTH",
"557 317 OFFCURVE",
"532 278 OFFCURVE",
"509 248 CURVE SMOOTH",
"449 174 OFFCURVE",
"375 155 OFFCURVE",
"398 282 CURVE SMOOTH",
"412 356 OFFCURVE",
"455 436 OFFCURVE",
"497 483 CURVE SMOOTH",
"540 530 OFFCURVE",
"500 591 OFFCURVE",
"454 504 CURVE SMOOTH",
"414 431 OFFCURVE",
"335 333 OFFCURVE",
"257 268 CURVE SMOOTH",
"119 153 OFFCURVE",
"0 187 OFFCURVE",
"77 378 CURVE SMOOTH",
"104 445 OFFCURVE",
"158 529 OFFCURVE",
"185 567 CURVE",
"256 545 OFFCURVE",
"327 542 OFFCURVE",
"412 550 CURVE SMOOTH",
"587 566 OFFCURVE",
"645 644 OFFCURVE",
"645 699 CURVE SMOOTH"
);
},
{
closed = 1;
nodes = (
"614 634 OFFCURVE",
"536 578 OFFCURVE",
"412 568 CURVE SMOOTH",
"317 560 OFFCURVE",
"256 563 OFFCURVE",
"197 582 CURVE",
"281 683 OFFCURVE",
"378 775 OFFCURVE",
"518 775 CURVE SMOOTH",
"573 775 OFFCURVE",
"614 752 OFFCURVE",
"614 708 CURVE SMOOTH"
);
}
);
width = 534;
}
);
note = A;
unicode = 0041;
},
{
glyphname = B;
lastChange = "2020-01-01 22:28:00 +0000";
layers = (
{
hints = (
{
horizontal = 1;
place = "{288, 21}";
type = Stem;
}
);
layerId = "61E7180A-0B32-4047-B910-001D8BB62225";
paths = (
{
closed = 1;
nodes = (
"851 668 OFFCURVE",
"774 734 OFFCURVE",
"645 767 CURVE",
"647 771 OFFCURVE",
"657 781 OFFCURVE",
"667 788 CURVE SMOOTH",
"685 799 OFFCURVE",
"683 809 OFFCURVE",
"659 799 CURVE SMOOTH",
"647 794 OFFCURVE",
"631 785 OFFCURVE",
"618 773 CURVE",
"531 792 OFFCURVE",
"427 795 OFFCURVE",
"323 780 CURVE SMOOTH",
"59 743 OFFCURVE",
"-13 525 OFFCURVE",
"140 472 CURVE SMOOTH",
"206 449 OFFCURVE",
"288 491 OFFCURVE",
"299 565 CURVE SMOOTH",
"299 566 LINE SMOOTH",
"299 582 OFFCURVE",
"284 576 OFFCURVE",
"284 572 CURVE",
"287 550 OFFCURVE",
"236 462 OFFCURVE",
"148 490 CURVE SMOOTH",
"37 524 OFFCURVE",
"105 704 OFFCURVE",
"313 749 CURVE SMOOTH",
"414 770 OFFCURVE",
"517 771 OFFCURVE",
"600 757 CURVE",
"557 708 LINE SMOOTH",
"429 566 OFFCURVE",
"375 365 OFFCURVE",
"275 269 CURVE",
"228 292 OFFCURVE",
"194 314 OFFCURVE",
"167 324 CURVE SMOOTH",
"-2 383 OFFCURVE",
"-54 206 OFFCURVE",
"99 188 CURVE SMOOTH",
"167 179 OFFCURVE",
"233 197 OFFCURVE",
"290 240 CURVE",
"337 219 OFFCURVE",
"395 200 OFFCURVE",
"490 188 CURVE SMOOTH",
"625 172 OFFCURVE",
"813 259 OFFCURVE",
"773 396 CURVE SMOOTH",
"756 452 OFFCURVE",
"680 487 OFFCURVE",
"631 503 CURVE",
"687 505 OFFCURVE",
"767 526 OFFCURVE",
"800 581 CURVE SMOOTH"
);
},
{
closed = 1;
nodes = (
"845 661 OFFCURVE",
"719 525 OFFCURVE",
"626 524 CURVE SMOOTH",
"568 524 OFFCURVE",
"518 539 OFFCURVE",
"518 513 CURVE",
"525 497 OFFCURVE",
"599 487 OFFCURVE",
"657 458 CURVE SMOOTH",
"803 389 OFFCURVE",
"685 191 OFFCURVE",
"489 209 CURVE SMOOTH",
"412 216 OFFCURVE",
"353 234 OFFCURVE",
"307 254 CURVE",
"317 263 OFFCURVE",
"326 271 OFFCURVE",
"335 281 CURVE SMOOTH",
"435 389 OFFCURVE",
"536 611 OFFCURVE",
"636 749 CURVE",
"662 743 OFFCURVE",
"686 735 OFFCURVE",
"707 725 CURVE SMOOTH"
);
},
{
closed = 1;
nodes = (
"219 224 OFFCURVE",
"173 206 OFFCURVE",
"118 209 CURVE SMOOTH",
"20 214 OFFCURVE",
"33 344 OFFCURVE",
"148 305 CURVE SMOOTH",
"192 289 OFFCURVE",
"224 271 OFFCURVE",
"259 254 CURVE"
);
}
);
width = 781;
}
);
note = B;
unicode = 0042;
},
{
glyphname = C;
lastChange = "2020-01-01 22:28:00 +0000";
layers = (
{
hints = (
{
horizontal = 1;
place = "{-76, 26}";
type = Stem;
},
{
horizontal = 1;
place = "{152, -20}";
target = down;
type = TopGhost;
},
{
horizontal = 1;
place = "{230, 20}";
type = Stem;
},
{
horizontal = 1;
place = "{556, 29}";
type = Stem;
},
{
place = "{44, 50}";
type = Stem;
},
{
place = "{124, 20}";
type = Stem;
},
{
place = "{604, 34}";
type = Stem;
}
);
layerId = "61E7180A-0B32-4047-B910-001D8BB62225";
paths = (
{
closed = 1;
nodes = (
"593 367 OFFCURVE",
"582 372 OFFCURVE",
"576 359 CURVE SMOOTH",
"545 295 OFFCURVE",
"518 246 OFFCURVE",
"453 208 CURVE SMOOTH",
"379 164 OFFCURVE",
"282 152 OFFCURVE",
"202 176 CURVE SMOOTH",
"7 236 OFFCURVE",
"130 540 OFFCURVE",
"157 575 CURVE",
"196 494 OFFCURVE",
"265 459 OFFCURVE",
"343 448 CURVE SMOOTH",
"652 403 OFFCURVE",
"758 764 OFFCURVE",
"466 797 CURVE SMOOTH",
"347 810 OFFCURVE",
"235 764 OFFCURVE",
"154 659 CURVE",
"146 700 OFFCURVE",
"140 755 OFFCURVE",
"148 802 CURVE SMOOTH",
"152 823 OFFCURVE",
"136 818 OFFCURVE",
"133 806 CURVE SMOOTH",
"118 750 OFFCURVE",
"124 680 OFFCURVE",
"136 634 CURVE",
"32 503 OFFCURVE",
"-16 242 OFFCURVE",
"173 162 CURVE SMOOTH",
"281 116 OFFCURVE",
"388 143 OFFCURVE",
"464 196 CURVE SMOOTH",
"528 241 OFFCURVE",
"553 286 OFFCURVE",
"585 352 CURVE SMOOTH"
);
},
{
closed = 1;
nodes = (
"692 737 OFFCURVE",
"625 436 OFFCURVE",
"354 466 CURVE SMOOTH",
"272 475 OFFCURVE",
"206 513 OFFCURVE",
"172 599 CURVE",
"246 713 OFFCURVE",
"361 785 OFFCURVE",
"473 768 CURVE SMOOTH"
);
}
);
width = 533;
}
);
note = C;
unicode = 0043;
},
{
glyphname = D;
lastChange = "2020-01-01 22:28:00 +0000";
layers = (
{
hints = (
{
horizontal = 1;
place = "{-29, 23}";
type = Stem;
},
{
horizontal = 1;
place = "{97, 25}";
type = Stem;
},
{
horizontal = 1;
place = "{251, 20}";
type = Stem;
},
{
horizontal = 1;
place = "{548, 23}";
type = Stem;
},
{
place = "{53, 35}";
type = Stem;
},
{
place = "{278, 15}";
type = Stem;
},
{
place = "{3, 49}";
type = Stem;
}
);
layerId = "61E7180A-0B32-4047-B910-001D8BB62225";
paths = (
{
closed = 1;
nodes = (
"782 536 OFFCURVE",
"716 649 OFFCURVE",
"614 716 CURVE",
"626 734 OFFCURVE",
"638 752 OFFCURVE",
"649 767 CURVE SMOOTH",
"651 770 OFFCURVE",
"661 781 OFFCURVE",
"671 788 CURVE SMOOTH",
"689 799 OFFCURVE",
"687 809 OFFCURVE",
"663 799 CURVE SMOOTH",
"650 794 OFFCURVE",
"613 768 OFFCURVE",
"600 757 CURVE",
"581 735 LINE",
"503 776 OFFCURVE",
"410 794 OFFCURVE",
"317 780 CURVE SMOOTH",
"8 735 OFFCURVE",
"4 518 OFFCURVE",
"135 472 CURVE SMOOTH",
"201 449 OFFCURVE",
"283 491 OFFCURVE",
"293 565 CURVE SMOOTH",
"296 579 OFFCURVE",
"279 579 OFFCURVE",
"278 572 CURVE SMOOTH",
"277 545 OFFCURVE",
"231 462 OFFCURVE",
"143 490 CURVE SMOOTH",
"32 524 OFFCURVE",
"95 710 OFFCURVE",
"302 754 CURVE SMOOTH",
"395 773 OFFCURVE",
"487 756 OFFCURVE",
"560 712 CURVE",
"443 581 OFFCURVE",
"386 375 OFFCURVE",
"275 269 CURVE",
"251 281 OFFCURVE",
"190 314 OFFCURVE",
"161 324 CURVE SMOOTH",
"-8 383 OFFCURVE",
"-59 206 OFFCURVE",
"94 188 CURVE SMOOTH",
"166 179 OFFCURVE",
"227 197 OFFCURVE",
"281 242 CURVE",
"329 221 OFFCURVE",
"387 200 OFFCURVE",
"485 188 CURVE SMOOTH",
"620 172 OFFCURVE",
"754 254 OFFCURVE",
"767 394 CURVE SMOOTH"
);
},
{
closed = 1;
nodes = (
"709 289 OFFCURVE",
"614 197 OFFCURVE",
"484 209 CURVE SMOOTH",
"404 216 OFFCURVE",
"346 234 OFFCURVE",
"299 255 CURVE",
"309 263 OFFCURVE",
"318 272 OFFCURVE",
"328 282 CURVE SMOOTH",
"410 371 OFFCURVE",
"508 550 OFFCURVE",
"596 688 CURVE",
"680 621 OFFCURVE",
"733 515 OFFCURVE",
"720 392 CURVE SMOOTH"
);
},
{
closed = 1;
nodes = (
"215 224 OFFCURVE",
"167 206 OFFCURVE",
"113 209 CURVE SMOOTH",
"21 213 OFFCURVE",
"34 342 OFFCURVE",
"143 305 CURVE SMOOTH",
"188 289 OFFCURVE",
"220 271 OFFCURVE",
"256 254 CURVE"
);
}
);
width = 761;
}
);
note = D;
unicode = 0044;
},
{
glyphname = E;
lastChange = "2020-01-01 22:28:00 +0000";
layers = (
{
hints = (
{
horizontal = 1;
place = "{-41, 17}";
type = Stem;
}
);
layerId = "61E7180A-0B32-4047-B910-001D8BB62225";
paths = (
{
closed = 1;
nodes = (
"570 419 OFFCURVE",
"545 406 OFFCURVE",
"579 398 CURVE SMOOTH",
"620 388 OFFCURVE",
"593 335 OFFCURVE",
"538 292 CURVE SMOOTH",
"473 242 OFFCURVE",
"362 190 OFFCURVE",
"246 190 CURVE SMOOTH",
"-12 190 OFFCURVE",
"47 442 OFFCURVE",
"203 485 CURVE SMOOTH",
"299 512 OFFCURVE",
"392 479 OFFCURVE",
"401 509 CURVE",
"412 562 OFFCURVE",
"223 524 OFFCURVE",
"243 642 CURVE SMOOTH",
"260 738 OFFCURVE",
"416 809 OFFCURVE",
"533 798 CURVE SMOOTH",
"671 784 OFFCURVE",
"587 650 OFFCURVE",
"518 643 CURVE SMOOTH",
"485 639 OFFCURVE",
"478 620 OFFCURVE",
"521 629 CURVE SMOOTH",
"672 663 OFFCURVE",
"711 796 OFFCURVE",
"536 816 CURVE SMOOTH",
"417 830 OFFCURVE",
"197 752 OFFCURVE",
"186 623 CURVE SMOOTH",
"182 579 OFFCURVE",
"234 545 OFFCURVE",
"276 530 CURVE",
"252 529 OFFCURVE",
"226 524 OFFCURVE",
"200 517 CURVE SMOOTH",
"-45 443 OFFCURVE",
"-59 173 OFFCURVE",
"243 173 CURVE SMOOTH",
"367 173 OFFCURVE",
"494 213 OFFCURVE",
"569 272 CURVE SMOOTH",
"635 323 OFFCURVE",
"650 380 OFFCURVE",
"595 407 CURVE SMOOTH"
);
}
);
width = 611;
}
);
note = E;
unicode = 0045;
},
{
glyphname = F;
lastChange = "2020-01-01 22:28:00 +0000";
layers = (
{
hints = (
{
horizontal = 1;
place = "{-98, 35}";
type = Stem;
}
);
layerId = "61E7180A-0B32-4047-B910-001D8BB62225";
paths = (
{
closed = 1;
nodes = (
"1044 662 OFFCURVE",
"1037 671 OFFCURVE",
"1026 647 CURVE SMOOTH",
"998 587 OFFCURVE",
"830 650 OFFCURVE",
"780 676 CURVE",
"791 686 OFFCURVE",
"808 697 OFFCURVE",
"825 690 CURVE",
"842 671 OFFCURVE",
"845 702 OFFCURVE",
"825 708 CURVE SMOOTH",
"791 718 OFFCURVE",
"770 694 OFFCURVE",
"762 685 CURVE",
"716 714 OFFCURVE",
"644 749 OFFCURVE",
"561 772 CURVE SMOOTH",
"314 842 OFFCURVE",
"185 596 OFFCURVE",
"310 526 CURVE SMOOTH",
"370 491 OFFCURVE",
"464 518 OFFCURVE",
"486 591 CURVE SMOOTH",
"495 618 OFFCURVE",
"474 605 OFFCURVE",
"473 588 CURVE SMOOTH",
"474 567 OFFCURVE",
"392 496 OFFCURVE",
"317 543 CURVE SMOOTH",
"248 586 OFFCURVE",
"344 774 OFFCURVE",
"548 743 CURVE SMOOTH",
"622 733 OFFCURVE",
"689 704 OFFCURVE",
"752 672 CURVE",
"738 656 OFFCURVE",
"679 562 OFFCURVE",
"644 476 CURVE",
"572 488 OFFCURVE",
"492 491 OFFCURVE",
"458 415 CURVE SMOOTH",
"454 407 OFFCURVE",
"461 396 OFFCURVE",
"470 408 CURVE SMOOTH",
"505 459 OFFCURVE",
"605 448 OFFCURVE",
"633 448 CURVE",
"562 284 OFFCURVE",
"443 145 OFFCURVE",
"276 152 CURVE SMOOTH",
"167 157 OFFCURVE",
"31 237 OFFCURVE",
"57 384 CURVE SMOOTH",
"66 435 OFFCURVE",
"96 458 OFFCURVE",
"115 471 CURVE SMOOTH",
"137 487 OFFCURVE",
"153 498 OFFCURVE",
"129 491 CURVE SMOOTH",
"107 484 OFFCURVE",
"65 455 OFFCURVE",
"51 413 CURVE SMOOTH",
"-2 249 OFFCURVE",
"110 117 OFFCURVE",
"285 117 CURVE SMOOTH",
"527 117 OFFCURVE",
"608 305 OFFCURVE",
"660 446 CURVE",
"698 441 OFFCURVE",
"785 443 OFFCURVE",
"812 449 CURVE SMOOTH",
"835 455 OFFCURVE",
"836 466 OFFCURVE",
"810 464 CURVE SMOOTH",
"779 463 OFFCURVE",
"715 463 OFFCURVE",
"669 469 CURVE",
"690 518 OFFCURVE",
"721 608 OFFCURVE",
"769 662 CURVE",
"783 656 OFFCURVE",
"857 612 OFFCURVE",
"944 598 CURVE SMOOTH",
"995 590 OFFCURVE",
"1035 613 OFFCURVE",
"1040 644 CURVE"
);
}
);
width = 786;
}
);
note = F;
unicode = 0046;
},
{
glyphname = G;
lastChange = "2020-01-01 22:28:00 +0000";
layers = (
{
hints = (
{
horizontal = 1;
place = "{-84, 20}";
type = Stem;
}
);
layerId = "61E7180A-0B32-4047-B910-001D8BB62225";
paths = (
{
closed = 1;
nodes = (
"533 142 OFFCURVE",
"480 149 OFFCURVE",
"413 150 CURVE",
"468 240 OFFCURVE",
"505 314 OFFCURVE",
"515 398 CURVE SMOOTH",
"521 436 OFFCURVE",
"470 466 OFFCURVE",
"426 364 CURVE SMOOTH",
"405 314 OFFCURVE",
"269 234 OFFCURVE",
"170 266 CURVE SMOOTH",
"82 295 OFFCURVE",
"53 419 OFFCURVE",
"119 561 CURVE",
"167 529 OFFCURVE",
"243 508 OFFCURVE",
"316 509 CURVE SMOOTH",
"633 514 OFFCURVE",
"684 789 OFFCURVE",
"452 825 CURVE SMOOTH",
"332 844 OFFCURVE",
"180 770 OFFCURVE",
"101 641 CURVE SMOOTH",
"95 631 OFFCURVE",
"89 621 OFFCURVE",
"84 611 CURVE",
"38 666 OFFCURVE",
"29 738 OFFCURVE",
"79 800 CURVE SMOOTH",
"91 816 OFFCURVE",
"80 818 OFFCURVE",
"69 806 CURVE SMOOTH",
"0 736 OFFCURVE",
"14 649 OFFCURVE",
"72 589 CURVE",
"-9 419 OFFCURVE",
"50 274 OFFCURVE",
"144 242 CURVE SMOOTH",
"268 200 OFFCURVE",
"410 305 OFFCURVE",
"455 347 CURVE",
"452 335 LINE SMOOTH",
"436 265 OFFCURVE",
"413 212 OFFCURVE",
"376 150 CURVE",
"329 149 OFFCURVE",
"256 144 OFFCURVE",
"217 138 CURVE SMOOTH",
"30 112 OFFCURVE",
"-121 -8 OFFCURVE",
"19 -59 CURVE SMOOTH",
"103 -90 OFFCURVE",
"307 -8 OFFCURVE",
"403 131 CURVE",
"463 131 OFFCURVE",
"537 126 OFFCURVE",
"572 117 CURVE SMOOTH",
"600 110 OFFCURVE",
"599 125 OFFCURVE",
"578 131 CURVE SMOOTH"
);
},
{
closed = 1;
nodes = (
"640 775 OFFCURVE",
"581 558 OFFCURVE",
"328 533 CURVE SMOOTH",
"251 525 OFFCURVE",
"175 545 OFFCURVE",
"128 581 CURVE",
"135 594 OFFCURVE",
"143 608 OFFCURVE",
"152 622 CURVE SMOOTH",
"222 737 OFFCURVE",
"354 818 OFFCURVE",
"456 803 CURVE SMOOTH"
);
},
{
closed = 1;
nodes = (
"276 4 OFFCURVE",
"105 -55 OFFCURVE",
"38 -40 CURVE SMOOTH",
"-72 -17 OFFCURVE",
"93 98 OFFCURVE",
"226 118 CURVE SMOOTH",
"268 125 OFFCURVE",
"317 128 OFFCURVE",
"364 130 CURVE"
);
}
);
width = 524;
}
);
note = G;
unicode = 0047;
},
{
glyphname = H;
lastChange = "2020-01-01 22:28:00 +0000";
layers = (
{
hints = (
{
horizontal = 1;
place = "{243, 23}";
type = Stem;
},
{
horizontal = 1;
place = "{253, 26}";
type = Stem;
}
);
layerId = "61E7180A-0B32-4047-B910-001D8BB62225";
paths = (
{
closed = 1;
nodes = (
"1170 791 OFFCURVE",
"1136 787 OFFCURVE",
"1107 776 CURVE SMOOTH",
"1048 756 OFFCURVE",
"955 512 OFFCURVE",
"944 481 CURVE",
"891 481 OFFCURVE",
"790 494 OFFCURVE",
"689 494 CURVE",
"702 526 OFFCURVE",
"758 683 OFFCURVE",
"786 738 CURVE",
"816 738 OFFCURVE",
"875 758 OFFCURVE",
"875 794 CURVE SMOOTH",
"875 815 OFFCURVE",
"854 821 OFFCURVE",
"832 815 CURVE SMOOTH",
"808 807 OFFCURVE",
"779 764 OFFCURVE",
"774 755 CURVE",
"628 740 OFFCURVE",
"382 760 OFFCURVE",
"335 570 CURVE SMOOTH",
"310 472 OFFCURVE",
"395 389 OFFCURVE",
"485 422 CURVE SMOOTH",
"539 441 OFFCURVE",
"588 512 OFFCURVE",
"560 575 CURVE SMOOTH",
"554 586 OFFCURVE",
"542 581 OFFCURVE",
"550 569 CURVE SMOOTH",
"560 555 OFFCURVE",
"539 456 OFFCURVE",
"484 436 CURVE SMOOTH",
"408 408 OFFCURVE",
"360 476 OFFCURVE",
"386 558 CURVE SMOOTH",
"440 731 OFFCURVE",
"617 720 OFFCURVE",
"764 737 CURVE",
"748 705 OFFCURVE",
"692 587 OFFCURVE",
"654 494 CURVE",
"647 494 OFFCURVE",
"625 494 OFFCURVE",
"625 494 CURVE",
"605 491 OFFCURVE",
"585 476 OFFCURVE",
"578 465 CURVE SMOOTH",
"567 446 OFFCURVE",
"590 453 OFFCURVE",
"599 457 CURVE SMOOTH",
"613 464 OFFCURVE",
"628 469 OFFCURVE",
"644 469 CURVE",
"594 338 OFFCURVE",
"496 187 OFFCURVE",
"286 140 CURVE SMOOTH",
"181 116 OFFCURVE",
"-2 156 OFFCURVE",
"20 320 CURVE SMOOTH",
"28 382 OFFCURVE",
"71 428 OFFCURVE",
"96 438 CURVE SMOOTH",
"104 441 OFFCURVE",
"110 449 OFFCURVE",
"95 449 CURVE SMOOTH",
"71 448 OFFCURVE",
"16 402 OFFCURVE",
"3 353 CURVE SMOOTH",
"-46 166 OFFCURVE",
"122 68 OFFCURVE",
"293 89 CURVE SMOOTH",
"487 114 OFFCURVE",
"624 293 OFFCURVE",
"683 467 CURVE",
"751 464 OFFCURVE",
"903 458 OFFCURVE",
"937 458 CURVE",
"919 406 OFFCURVE",
"844 225 OFFCURVE",
"912 190 CURVE SMOOTH",
"938 176 OFFCURVE",
"971 185 OFFCURVE",
"997 210 CURVE SMOOTH",
"1031 243 OFFCURVE",
"1049 269 OFFCURVE",
"1088 351 CURVE SMOOTH",
"1097 369 OFFCURVE",
"1085 373 OFFCURVE",
"1077 356 CURVE SMOOTH",
"1053 308 OFFCURVE",
"1022 249 OFFCURVE",
"983 221 CURVE SMOOTH",
"967 209 OFFCURVE",
"951 210 OFFCURVE",
"941 221 CURVE SMOOTH",
"908 257 OFFCURVE",
"967 413 OFFCURVE",
"980 458 CURVE",
"1002 459 OFFCURVE",
"1034 464 OFFCURVE",
"1053 478 CURVE SMOOTH",
"1066 487 OFFCURVE",
"1061 492 OFFCURVE",
"1047 487 CURVE SMOOTH",
"1035 482 OFFCURVE",
"1002 482 OFFCURVE",
"987 482 CURVE",
"1047 656 OFFCURVE",
"1128 770 OFFCURVE",
"1142 777 CURVE SMOOTH"
);
},
{
closed = 1;
nodes = (
"848 793 OFFCURVE",
"863 767 OFFCURVE",
"800 757 CURVE",
"810 770 OFFCURVE",
"832 797 OFFCURVE",
"839 793 CURVE"
);
}
);
width = 1036;
}
);
note = H;
unicode = 0048;
},
{
glyphname = I;
lastChange = "2020-01-01 22:28:00 +0000";
layers = (
{
hints = (
{
horizontal = 1;
place = "{-117, 24}";
type = Stem;
},
{
horizontal = 1;
place = "{180, 19}";
type = Stem;
},
{
horizontal = 1;
place = "{601, 24}";
type = Stem;
},
{
place = "{-14, 24}";
type = Stem;
},
{
place = "{366, 50}";
type = Stem;
},
{
place = "{576, 19}";
type = Stem;
},
{
place = "{869, 28}";
type = Stem;
}
);
layerId = "61E7180A-0B32-4047-B910-001D8BB62225";
paths = (
{
closed = 1;
nodes = (
"896 839 OFFCURVE",
"877 843 OFFCURVE",
"854 836 CURVE SMOOTH",
"830 828 OFFCURVE",
"803 787 OFFCURVE",
"797 775 CURVE",
"655 751 OFFCURVE",
"408 694 OFFCURVE",
"369 517 CURVE SMOOTH",
"350 428 OFFCURVE",
"428 372 OFFCURVE",
"508 403 CURVE SMOOTH",
"569 426 OFFCURVE",
"615 502 OFFCURVE",
"586 558 CURVE SMOOTH",
"580 572 OFFCURVE",
"567 555 OFFCURVE",
"570 551 CURVE",
"582 540 OFFCURVE",
"586 452 OFFCURVE",
"507 420 CURVE SMOOTH",
"443 395 OFFCURVE",
"403 445 OFFCURVE",
"419 517 CURVE SMOOTH",
"455 679 OFFCURVE",
"650 726 OFFCURVE",
"785 755 CURVE",
"769 728 OFFCURVE",
"716 631 OFFCURVE",
"672 513 CURVE SMOOTH",
"632 404 OFFCURVE",
"510 184 OFFCURVE",
"292 129 CURVE SMOOTH",
"172 99 OFFCURVE",
"-24 155 OFFCURVE",
"16 318 CURVE SMOOTH",
"32 380 OFFCURVE",
"80 428 OFFCURVE",
"107 439 CURVE SMOOTH",
"114 443 OFFCURVE",
"122 450 OFFCURVE",
"106 449 CURVE SMOOTH",
"82 448 OFFCURVE",
"22 401 OFFCURVE",
"3 351 CURVE SMOOTH",
"-68 164 OFFCURVE",
"95 70 OFFCURVE",
"306 105 CURVE SMOOTH",
"415 123 OFFCURVE",
"520 183 OFFCURVE",
"602 289 CURVE SMOOTH",
"722 442 OFFCURVE",
"716 591 OFFCURVE",
"808 759 CURVE",
"815 759 OFFCURVE",
"830 766 OFFCURVE",
"839 766 CURVE",
"868 776 OFFCURVE",
"898 788 OFFCURVE",
"897 818 CURVE SMOOTH"
);
},
{
closed = 1;
nodes = (
"870 815 OFFCURVE",
"887 791 OFFCURVE",
"821 778 CURVE",
"832 792 OFFCURVE",
"854 818 OFFCURVE",
"861 815 CURVE"
);
}
);
width = 684;
}
);
note = I;
unicode = 0049;
},
{
glyphname = J;
lastChange = "2020-01-01 22:28:00 +0000";
layers = (
{
hints = (
{
horizontal = 1;
place = "{-278, 23}";
type = Stem;
},
{
horizontal = 1;
place = "{156, 20}";
type = Stem;
},
{
horizontal = 1;
place = "{324, -20}";
target = down;
type = TopGhost;
},
{
horizontal = 1;
place = "{578, 24}";
type = Stem;
},
{
place = "{-48, 25}";
type = Stem;
},
{
place = "{644, 17}";
type = Stem;
},
{
place = "{924, 29}";
type = Stem;
}
);
layerId = "61E7180A-0B32-4047-B910-001D8BB62225";
paths = (
{
closed = 1;
nodes = (
"953 815 OFFCURVE",
"933 821 OFFCURVE",
"911 815 CURVE SMOOTH",
"886 807 OFFCURVE",
"857 766 OFFCURVE",
"850 755 CURVE",
"713 737 OFFCURVE",
"461 667 OFFCURVE",
"433 494 CURVE SMOOTH",
"419 405 OFFCURVE",
"488 350 OFFCURVE",
"569 378 CURVE SMOOTH",
"632 401 OFFCURVE",
"679 474 OFFCURVE",
"654 532 CURVE",
"642 547 OFFCURVE",
"626 533 OFFCURVE",
"638 526 CURVE",
"650 514 OFFCURVE",
"650 425 OFFCURVE",
"569 396 CURVE SMOOTH",
"506 373 OFFCURVE",
"473 420 OFFCURVE",
"483 489 CURVE SMOOTH",
"507 635 OFFCURVE",
"716 716 OFFCURVE",
"837 735 CURVE",
"821 709 OFFCURVE",
"770 623 OFFCURVE",
"717 507 CURVE SMOOTH",
"647 351 OFFCURVE",
"518 24 OFFCURVE",
"255 -35 CURVE SMOOTH",
"134 -61 OFFCURVE",
"-64 2 OFFCURVE",
"-17 166 CURVE SMOOTH",
"1 227 OFFCURVE",
"52 273 OFFCURVE",
"78 284 CURVE SMOOTH",
"86 287 OFFCURVE",
"95 295 OFFCURVE",
"79 294 CURVE SMOOTH",
"55 293 OFFCURVE",
"-8 248 OFFCURVE",
"-28 199 CURVE SMOOTH",
"-107 11 OFFCURVE",
"51 -88 OFFCURVE",
"264 -59 CURVE SMOOTH",
"362 -45 OFFCURVE",
"522 33 OFFCURVE",
"610 170 CURVE SMOOTH",
"744 378 OFFCURVE",
"762 572 OFFCURVE",
"860 738 CURVE",
"866 738 OFFCURVE",
"883 744 OFFCURVE",
"892 744 CURVE",
"921 753 OFFCURVE",
"952 764 OFFCURVE",
"953 795 CURVE SMOOTH"
);
},
{
closed = 1;
nodes = (
"925 793 OFFCURVE",
"940 768 OFFCURVE",
"873 757 CURVE",
"886 770 OFFCURVE",
"908 797 OFFCURVE",
"917 793 CURVE"
);
}
);
width = 725;
}
);
note = J;
unicode = 004A;
},
{
glyphname = K;
lastChange = "2020-01-01 22:28:00 +0000";
layers = (
{
hints = (
{
horizontal = 1;
place = "{-138, 32}";
type = Stem;
}
);
layerId = "61E7180A-0B32-4047-B910-001D8BB62225";
paths = (
{
closed = 1;
nodes = (
"1229 848 OFFCURVE",
"1214 863 OFFCURVE",
"1197 836 CURVE SMOOTH",
"1042 598 OFFCURVE",
"727 420 OFFCURVE",
"672 425 CURVE",
"659 419 OFFCURVE",
"667 310 OFFCURVE",
"709 217 CURVE SMOOTH",
"745 138 OFFCURVE",
"809 77 OFFCURVE",
"891 77 CURVE SMOOTH",
"955 77 OFFCURVE",
"1033 127 OFFCURVE",
"1060 182 CURVE SMOOTH",
"1070 203 OFFCURVE",
"1056 203 OFFCURVE",
"1050 188 CURVE",
"1022 134 OFFCURVE",
"953 109 OFFCURVE",
"895 109 CURVE SMOOTH",
"836 109 OFFCURVE",
"792 153 OFFCURVE",
"761 226 CURVE SMOOTH",
"723 311 OFFCURVE",
"707 413 OFFCURVE",
"716 409 CURVE",
"845 442 OFFCURVE",
"1096 627 OFFCURVE",
"1216 827 CURVE SMOOTH"
);
},
{
closed = 1;
nodes = (
"808 807 OFFCURVE",
"779 764 OFFCURVE",
"774 755 CURVE",
"709 749 OFFCURVE",
"619 747 OFFCURVE",
"537 729 CURVE SMOOTH",
"230 660 OFFCURVE",
"321 365 OFFCURVE",
"489 426 CURVE SMOOTH",
"542 446 OFFCURVE",
"581 522 OFFCURVE",
"560 575 CURVE SMOOTH",
"555 585 OFFCURVE",
"545 587 OFFCURVE",
"546 580 CURVE SMOOTH",
"555 532 OFFCURVE",
"534 458 OFFCURVE",
"484 440 CURVE SMOOTH",
"344 389 OFFCURVE",
"325 645 OFFCURVE",
"546 707 CURVE SMOOTH",
"616 726 OFFCURVE",
"697 729 OFFCURVE",
"764 737 CURVE",
"738 686 OFFCURVE",
"664 521 OFFCURVE",
"650 488 CURVE SMOOTH",
"593 360 OFFCURVE",
"497 180 OFFCURVE",
"283 131 CURVE SMOOTH",
"178 108 OFFCURVE",
"-2 156 OFFCURVE",
"20 320 CURVE SMOOTH",
"29 387 OFFCURVE",
"81 427 OFFCURVE",
"95 433 CURVE SMOOTH",
"101 436 OFFCURVE",
"101 445 OFFCURVE",
"89 443 CURVE SMOOTH",
"70 441 OFFCURVE",
"17 407 OFFCURVE",
"3 353 CURVE SMOOTH",
"-46 166 OFFCURVE",
"142 65 OFFCURVE",
"312 90 CURVE SMOOTH",
"651 141 OFFCURVE",
"673 534 OFFCURVE",
"786 738 CURVE",
"907 751 OFFCURVE",
"888 831 OFFCURVE",
"832 815 CURVE SMOOTH"
);
},
{
closed = 1;
nodes = (
"825 762 OFFCURVE",
"815 759 OFFCURVE",
"800 757 CURVE",
"807 766 OFFCURVE",
"819 781 OFFCURVE",
"829 788 CURVE SMOOTH",
"854 809 OFFCURVE",
"866 782 OFFCURVE",
"833 766 CURVE SMOOTH"
);
}
);
width = 858;
}
);
note = K;
unicode = 004B;
},
{
glyphname = L;
lastChange = "2020-01-01 22:28:00 +0000";
layers = (
{
hints = (
{
horizontal = 1;
place = "{-86, 21}";
type = Stem;
},
{
horizontal = 1;
place = "{67, 35}";
type = Stem;
},
{
horizontal = 1;
place = "{240, 17}";
type = Stem;
},
{
horizontal = 1;
place = "{598, 45}";
type = Stem;
},
{
place = "{-4, 16}";
type = Stem;
},
{
place = "{182, 36}";
type = Stem;
},
{
place = "{616, 29}";
type = Stem;
},
{
place = "{687, 31}";
type = Stem;
}
);
layerId = "61E7180A-0B32-4047-B910-001D8BB62225";
paths = (
{
closed = 1;
nodes = (
"712 871 OFFCURVE",
"566 929 OFFCURVE",
"448 634 CURVE",
"448 634 OFFCURVE",
"393 494 OFFCURVE",
"384 473 CURVE",
"143 445 OFFCURVE",
"194 708 OFFCURVE",
"348 727 CURVE SMOOTH",
"381 731 OFFCURVE",
"378 747 OFFCURVE",
"347 740 CURVE SMOOTH",
"90 681 OFFCURVE",
"158 448 OFFCURVE",
"374 455 CURVE",
"347 399 OFFCURVE",
"323 354 OFFCURVE",
"295 310 CURVE",
"240 320 OFFCURVE",
"160 317 OFFCURVE",
"107 302 CURVE SMOOTH",
"-95 241 OFFCURVE",
"11 71 OFFCURVE",
"168 147 CURVE SMOOTH",
"217 170 OFFCURVE",
"262 215 OFFCURVE",
"301 269 CURVE",
"396 251 OFFCURVE",
"500 229 OFFCURVE",
"572 164 CURVE SMOOTH",
"623 120 OFFCURVE",
"621 44 OFFCURVE",
"609 18 CURVE SMOOTH",
"603 5 OFFCURVE",
"587 -22 OFFCURVE",
"619 -5 CURVE SMOOTH",
"625 -2 OFFCURVE",
"632 5 OFFCURVE",
"638 16 CURVE SMOOTH",
"656 47 OFFCURVE",
"641 136 OFFCURVE",
"569 191 CURVE SMOOTH",
"500 245 OFFCURVE",
"397 285 OFFCURVE",
"323 303 CURVE",
"329 312 OFFCURVE",
"334 320 OFFCURVE",
"339 329 CURVE SMOOTH",
"366 377 OFFCURVE",
"383 413 OFFCURVE",
"405 458 CURVE",
"565 485 OFFCURVE",
"731 650 OFFCURVE",
"718 802 CURVE SMOOTH"
);
},
{
closed = 1;
nodes = (
"688 647 OFFCURVE",
"551 508 OFFCURVE",
"416 478 CURVE",
"446 542 OFFCURVE",
"482 608 OFFCURVE",
"482 608 CURVE",
"598 836 OFFCURVE",
"686 836 OFFCURVE",
"687 785 CURVE SMOOTH"
);
},
{
closed = 1;
nodes = (
"236 223 OFFCURVE",
"197 188 OFFCURVE",
"156 168 CURVE SMOOTH",
"19 102 OFFCURVE",
"-66 224 OFFCURVE",
"116 271 CURVE SMOOTH",
"164 284 OFFCURVE",
"222 284 OFFCURVE",
"272 274 CURVE"
);
}
);
width = 534;
}
);
note = L;
unicode = 004C;
},
{
glyphname = M;
lastChange = "2020-01-01 22:32:13 +0000";
layers = (
{
hints = (
{
horizontal = 1;
place = "{89, 16}";
type = Stem;
},
{
horizontal = 1;
place = "{509, 19}";
type = Stem;
},
{
horizontal = 1;
place = "{593, 16}";
type = Stem;
},
{
place = "{13, 42}";
type = Stem;
},
{
place = "{323, 25}";
type = Stem;
},
{
place = "{483, 41}";
type = Stem;
},
{
place = "{901, 45}";
type = Stem;
},
{
place = "{1039, 51}";
type = Stem;
},
{
horizontal = 1;
place = "{470, 38}";
type = Stem;
}
);
layerId = "61E7180A-0B32-4047-B910-001D8BB62225";
paths = (
{
closed = 1;
nodes = (
"856 134 OFFCURVE",
"995 443 OFFCURVE",
"1061 573 CURVE SMOOTH",
"1147 746 OFFCURVE",
"1034 794 OFFCURVE",
"861 578 CURVE SMOOTH",
"800 501 OFFCURVE",
"743 422 OFFCURVE",
"713 374 CURVE",
"743 467 OFFCURVE",
"777 558 OFFCURVE",
"786 654 CURVE SMOOTH",
"798 782 OFFCURVE",
"674 752 OFFCURVE",
"617 682 CURVE SMOOTH",
"563 617 OFFCURVE",
"538 579 OFFCURVE",
"494 500 CURVE SMOOTH",
"482 476 OFFCURVE",
"475 480 OFFCURVE",
"485 509 CURVE SMOOTH",
"503 558 OFFCURVE",
"518 611 OFFCURVE",
"524 658 CURVE SMOOTH",
"551 956 OFFCURVE",
"142 808 OFFCURVE",
"34 556 CURVE SMOOTH",
"-41 377 OFFCURVE",
"101 267 OFFCURVE",
"212 313 CURVE SMOOTH",
"374 380 OFFCURVE",
"389 568 OFFCURVE",
"264 550 CURVE SMOOTH",
"228 545 OFFCURVE",
"247 533 OFFCURVE",
"260 534 CURVE SMOOTH",
"380 550 OFFCURVE",
"308 363 OFFCURVE",
"212 327 CURVE SMOOTH",
"113 291 OFFCURVE",
"11 374 OFFCURVE",
"74 548 CURVE SMOOTH",
"146 748 OFFCURVE",
"521 958 OFFCURVE",
"480 659 CURVE SMOOTH",
"463 537 OFFCURVE",
"361 282 OFFCURVE",
"297 183 CURVE",
"290 159 OFFCURVE",
"347 160 OFFCURVE",
"359 188 CURVE SMOOTH",
"461 416 OFFCURVE",
"499 506 OFFCURVE",
"629 668 CURVE SMOOTH",
"689 742 OFFCURVE",
"752 747 OFFCURVE",
"740 650 CURVE SMOOTH",
"710 403 OFFCURVE",
"603 239 OFFCURVE",
"591 215 CURVE",
"577 193 OFFCURVE",
"631 164 OFFCURVE",
"659 230 CURVE SMOOTH",
"686 295 OFFCURVE",
"814 492 OFFCURVE",
"861 551 CURVE SMOOTH",
"996 719 OFFCURVE",
"1079 727 OFFCURVE",
"1019 589 CURVE SMOOTH",
"971 478 OFFCURVE",
"910 362 OFFCURVE",
"901 272 CURVE SMOOTH",
"889 145 OFFCURVE",
"988 132 OFFCURVE",
"1019 129 CURVE SMOOTH",
"1049 126 OFFCURVE",
"1059 143 OFFCURVE",
"1031 141 CURVE SMOOTH"
);
}
);
width = 997;
}
);
note = M;
unicode = 004D;
},
{
glyphname = N;
lastChange = "2020-01-01 22:28:00 +0000";
layers = (
{
hints = (
{
horizontal = 1;
place = "{-110, 20}";
type = Stem;
},
{
horizontal = 1;
place = "{92, 14}";
type = Stem;
},
{
horizontal = 1;
place = "{320, 17}";
type = Stem;
},
{
horizontal = 1;
place = "{573, 22}";
type = Stem;
},
{
place = "{-2, 45}";
type = Stem;
},
{
place = "{317, 28}";
type = Stem;
},
{
place = "{477, 41}";
type = Stem;
},
{
place = "{638, 43}";
type = Stem;
},
{
horizontal = 1;
place = "{537, 35}";
type = Stem;
}
);
layerId = "61E7180A-0B32-4047-B910-001D8BB62225";
paths = (
{
closed = 1;
nodes = (
"893 797 OFFCURVE",
"807 800 OFFCURVE",
"737 767 CURVE SMOOTH",
"679 740 OFFCURVE",
"615 679 OFFCURVE",
"559 611 CURVE SMOOTH",
"521 566 OFFCURVE",
"487 518 OFFCURVE",
"460 476 CURVE SMOOTH",
"446 454 OFFCURVE",
"417 399 OFFCURVE",
"456 484 CURVE SMOOTH",
"482 540 OFFCURVE",
"512 601 OFFCURVE",
"518 659 CURVE SMOOTH",
"541 843 OFFCURVE",
"350 832 OFFCURVE",
"226 764 CURVE SMOOTH",
"140 717 OFFCURVE",
"56 641 OFFCURVE",
"20 555 CURVE SMOOTH",
"-43 402 OFFCURVE",
"38 306 OFFCURVE",
"134 306 CURVE SMOOTH",
"332 306 OFFCURVE",
"430 589 OFFCURVE",
"252 546 CURVE SMOOTH",
"245 545 OFFCURVE",
"239 533 OFFCURVE",
"254 534 CURVE SMOOTH",
"387 551 OFFCURVE",
"293 320 OFFCURVE",
"136 320 CURVE SMOOTH",
"-13 320 OFFCURVE",
"13 595 OFFCURVE",
"234 732 CURVE SMOOTH",
"363 812 OFFCURVE",
"513 827 OFFCURVE",
"470 630 CURVE SMOOTH",
"434 471 OFFCURVE",
"317 237 OFFCURVE",
"280 183 CURVE",
"274 159 OFFCURVE",
"329 161 OFFCURVE",
"342 188 CURVE SMOOTH",
"391 290 OFFCURVE",
"468 470 OFFCURVE",
"574 599 CURVE SMOOTH",
"627 662 OFFCURVE",
"685 709 OFFCURVE",
"740 735 CURVE SMOOTH",
"793 761 OFFCURVE",
"841 760 OFFCURVE",
"832 707 CURVE SMOOTH",
"820 630 OFFCURVE",
"682 377 OFFCURVE",
"656 299 CURVE SMOOTH",
"615 178 OFFCURVE",
"645 110 OFFCURVE",
"747 105 CURVE SMOOTH",
"802 103 OFFCURVE",
"815 158 OFFCURVE",
"764 134 CURVE SMOOTH",
"677 94 OFFCURVE",
"652 186 OFFCURVE",
"720 335 CURVE SMOOTH",
"794 497 OFFCURVE",
"890 626 OFFCURVE",
"891 716 CURVE SMOOTH"
);
}
);
width = 779;
}
);
note = N;
unicode = 004E;
},
{
glyphname = O;
lastChange = "2020-01-01 22:28:00 +0000";
layers = (
{
hints = (
{
horizontal = 1;
place = "{-27, 234}";
type = Stem;
},
{
horizontal = 1;
place = "{232, 22}";
type = Stem;
},
{
horizontal = 1;
place = "{492, 75}";
type = Stem;
},
{
place = "{114, 23}";
type = Stem;
}
);
layerId = "61E7180A-0B32-4047-B910-001D8BB62225";
paths = (
{
closed = 1;
nodes = (
"689 643 OFFCURVE",
"672 644 OFFCURVE",
"667 633 CURVE SMOOTH",
"648 596 OFFCURVE",
"610 566 OFFCURVE",
"569 539 CURVE",
"584 909 OFFCURVE",
"9 845 OFFCURVE",
"38 557 CURVE SMOOTH",
"42 516 OFFCURVE",
"64 485 OFFCURVE",
"96 463 CURVE",
"45 332 OFFCURVE",
"88 206 OFFCURVE",
"173 179 CURVE SMOOTH",
"332 127 OFFCURVE",
"503 290 OFFCURVE",
"549 432 CURVE SMOOTH",
"558 461 OFFCURVE",
"564 487 OFFCURVE",
"566 512 CURVE",
"614 542 OFFCURVE",
"650 581 OFFCURVE",
"678 625 CURVE SMOOTH"
);
},
{
closed = 1;
nodes = (
"401 449 OFFCURVE",
"236 425 OFFCURVE",
"148 468 CURVE",
"179 539 OFFCURVE",
"297 712 OFFCURVE",
"391 683 CURVE SMOOTH",
"401 680 OFFCURVE",
"408 687 OFFCURVE",
"397 693 CURVE SMOOTH",
"284 757 OFFCURVE",
"151 581 OFFCURVE",
"110 494 CURVE",
"93 508 OFFCURVE",
"83 527 OFFCURVE",
"80 551 CURVE SMOOTH",
"40 818 OFFCURVE",
"559 911 OFFCURVE",
"524 515 CURVE"
);
},
{
closed = 1;
nodes = (
"517 471 OFFCURVE",
"512 452 OFFCURVE",
"506 435 CURVE SMOOTH",
"454 288 OFFCURVE",
"307 138 OFFCURVE",
"176 203 CURVE SMOOTH",
"103 239 OFFCURVE",
"101 347 OFFCURVE",
"137 442 CURVE",
"236 402 OFFCURVE",
"395 422 OFFCURVE",
"519 488 CURVE"
);
}
);
width = 545;
}
);
note = O;
unicode = 004F;
},
{
glyphname = P;
lastChange = "2020-01-01 22:28:00 +0000";
layers = (
{
hints = (
{
horizontal = 1;
place = "{187, 21}";
target = up;
type = BottomGhost;
},
{
horizontal = 1;
place = "{266, -20}";
target = down;
type = TopGhost;
}
);
layerId = "61E7180A-0B32-4047-B910-001D8BB62225";
paths = (
{
closed = 1;
nodes = (
"697 759 OFFCURVE",
"668 771 OFFCURVE",
"636 779 CURVE",
"649 792 OFFCURVE",
"662 802 OFFCURVE",
"670 807 CURVE SMOOTH",
"688 818 OFFCURVE",
"686 828 OFFCURVE",
"662 818 CURVE SMOOTH",
"640 810 OFFCURVE",
"623 800 OFFCURVE",
"606 787 CURVE",
"518 805 OFFCURVE",
"419 800 OFFCURVE",
"336 788 CURVE SMOOTH",
"229 772 OFFCURVE",
"38 716 OFFCURVE",
"32 582 CURVE SMOOTH",
"28 506 OFFCURVE",
"83 468 OFFCURVE",
"143 466 CURVE SMOOTH",
"201 464 OFFCURVE",
"266 503 OFFCURVE",
"267 571 CURVE SMOOTH",
"267 581 OFFCURVE",
"259 583 OFFCURVE",
"257 572 CURVE",
"239 521 OFFCURVE",
"191 479 OFFCURVE",
"144 481 CURVE SMOOTH",
"99 482 OFFCURVE",
"62 524 OFFCURVE",
"71 576 CURVE SMOOTH",
"89 688 OFFCURVE",
"245 746 OFFCURVE",
"339 763 CURVE SMOOTH",
"402 775 OFFCURVE",
"500 781 OFFCURVE",
"586 768 CURVE",
"572 755 OFFCURVE",
"560 741 OFFCURVE",
"546 726 CURVE SMOOTH",
"419 583 OFFCURVE",
"362 383 OFFCURVE",
"263 287 CURVE SMOOTH",
"213 238 OFFCURVE",
"158 206 OFFCURVE",
"91 209 CURVE SMOOTH",
"-13 214 OFFCURVE",
"17 359 OFFCURVE",
"137 314 CURVE SMOOTH",
"150 309 OFFCURVE",
"155 318 OFFCURVE",
"140 324 CURVE SMOOTH",
"-30 381 OFFCURVE",
"-81 206 OFFCURVE",
"72 188 CURVE SMOOTH",
"152 178 OFFCURVE",
"229 205 OFFCURVE",
"293 265 CURVE SMOOTH",
"335 306 OFFCURVE",
"372 353 OFFCURVE",
"405 401 CURVE",
"445 398 OFFCURVE",
"512 404 OFFCURVE",
"573 419 CURVE SMOOTH",
"722 455 OFFCURVE",
"912 631 OFFCURVE",
"723 743 CURVE SMOOTH"
);
},
{
closed = 1;
nodes = (
"824 649 OFFCURVE",
"712 487 OFFCURVE",
"549 437 CURVE SMOOTH",
"502 423 OFFCURVE",
"454 416 OFFCURVE",
"416 417 CURVE",
"488 529 OFFCURVE",
"545 654 OFFCURVE",
"622 761 CURVE",
"654 754 OFFCURVE",
"683 743 OFFCURVE",
"706 728 CURVE SMOOTH"
);
}
);
width = 668;
}
);
note = P;
unicode = 0050;
},
{
glyphname = Q;
lastChange = "2020-01-01 22:28:00 +0000";
layers = (
{
hints = (
{
horizontal = 1;
place = "{-68, 23}";
type = Stem;
}
);
layerId = "61E7180A-0B32-4047-B910-001D8BB62225";
paths = (
{
closed = 1;
nodes = (
"249 776 OFFCURVE",
"5 474 OFFCURVE",
"89 266 CURVE SMOOTH",
"138 141 OFFCURVE",
"281 149 OFFCURVE",
"379 213 CURVE SMOOTH",
"654 395 OFFCURVE",
"677 872 OFFCURVE",
"234 797 CURVE SMOOTH",
"109 776 OFFCURVE",
"25 663 OFFCURVE",
"80 550 CURVE SMOOTH",
"90 530 OFFCURVE",
"102 538 OFFCURVE",
"98 554 CURVE SMOOTH",
"70 671 OFFCURVE",
"120 764 OFFCURVE",
"237 780 CURVE SMOOTH",
"569 824 OFFCURVE",
"641 438 OFFCURVE",
"377 239 CURVE SMOOTH",
"278 164 OFFCURVE",
"156 152 OFFCURVE",
"121 275 CURVE SMOOTH",
"74 443 OFFCURVE",
"273 719 OFFCURVE",
"391 683 CURVE SMOOTH",
"401 680 OFFCURVE",
"408 687 OFFCURVE",
"397 693 CURVE SMOOTH"
);
},
{
closed = 1;
nodes = (
"690 -62 OFFCURVE",
"658 106 OFFCURVE",
"483 134 CURVE SMOOTH",
"469 136 OFFCURVE",
"470 122 OFFCURVE",
"485 119 CURVE SMOOTH",
"629 96 OFFCURVE",
"662 -71 OFFCURVE",
"499 -40 CURVE SMOOTH",
"274 4 OFFCURVE",
"217 169 OFFCURVE",
"83 169 CURVE SMOOTH",
"50 169 OFFCURVE",
"23 136 OFFCURVE",
"22 116 CURVE SMOOTH",
"21 101 OFFCURVE",
"32 96 OFFCURVE",
"34 111 CURVE SMOOTH",
"36 133 OFFCURVE",
"65 146 OFFCURVE",
"83 146 CURVE SMOOTH",
"200 146 OFFCURVE",
"235 -62 OFFCURVE",
"499 -62 CURVE SMOOTH"
);
}
);
width = 564;
}
);
note = Q;
unicode = 0051;
},
{
glyphname = R;
lastChange = "2020-06-30 20:54:46 +0000";
layers = (
{
hints = (
{
horizontal = 1;
place = "{-29, 23}";
type = Stem;
},
{
horizontal = 1;
place = "{110, 12}";
type = Stem;
},
{
horizontal = 1;
place = "{152, -20}";
target = down;
type = TopGhost;
},
{
horizontal = 1;
place = "{247, 20}";
type = Stem;
},
{
horizontal = 1;
place = "{555, 23}";
type = Stem;
},
{
place = "{71, 36}";
type = Stem;
},
{
place = "{300, 10}";
type = Stem;
},
{
place = "{779, 54}";
type = Stem;
},
{
horizontal = 1;
place = "{-31, 31}";
type = Stem;
},
{
horizontal = 1;
place = "{283, 29}";
type = Stem;
},
{
horizontal = 1;
place = "{290, 23}";
type = Stem;
},
{
horizontal = 1;
place = "{566, 24}";
type = Stem;
},
{
place = "{14, 50}";
type = Stem;
}
);
layerId = "61E7180A-0B32-4047-B910-001D8BB62225";
paths = (
{
closed = 1;
nodes = (
"830 371 OFFCURVE",
"816 368 OFFCURVE",
"809 355 CURVE SMOOTH",
"801 338 OFFCURVE",
"773 279 OFFCURVE",
"737 243 CURVE SMOOTH",
"683 190 OFFCURVE",
"646 217 OFFCURVE",
"608 274 CURVE SMOOTH",
"552 359 OFFCURVE",
"529 476 OFFCURVE",
"525 497 CURVE",
"542 498 OFFCURVE",
"565 500 OFFCURVE",
"594 504 CURVE SMOOTH",
"832 543 OFFCURVE",
"925 707 OFFCURVE",
"721 766 CURVE SMOOTH",
"698 772 OFFCURVE",
"674 776 OFFCURVE",
"647 780 CURVE",
"654 803 OFFCURVE",
"651 819 OFFCURVE",
"619 784 CURVE",
"532 796 OFFCURVE",
"437 795 OFFCURVE",
"333 780 CURVE SMOOTH",
"167 756 OFFCURVE",
"79 665 OFFCURVE",
"71 585 CURVE SMOOTH",
"60 458 OFFCURVE",
"205 425 OFFCURVE",
"281 504 CURVE SMOOTH",
"296 520 OFFCURVE",
"306 541 OFFCURVE",
"310 565 CURVE SMOOTH",
"311 573 OFFCURVE",
"302 584 OFFCURVE",
"300 566 CURVE SMOOTH",
"299 557 OFFCURVE",
"290 538 OFFCURVE",
"272 518 CURVE SMOOTH",
"207 449 OFFCURVE",
"89 484 OFFCURVE",
"110 585 CURVE SMOOTH",
"123 650 OFFCURVE",
"196 722 OFFCURVE",
"323 749 CURVE SMOOTH",
"425 770 OFFCURVE",
"518 774 OFFCURVE",
"602 766 CURVE",
"541 698 OFFCURVE",
"485 587 OFFCURVE",
"425 480 CURVE SMOOTH",
"344 339 OFFCURVE",
"261 202 OFFCURVE",
"128 209 CURVE SMOOTH",
"25 214 OFFCURVE",
"53 361 OFFCURVE",
"173 315 CURVE SMOOTH",
"185 311 OFFCURVE",
"191 319 OFFCURVE",
"177 324 CURVE SMOOTH",
"2 384 OFFCURVE",
"-50 206 OFFCURVE",
"110 188 CURVE SMOOTH",
"197 176 OFFCURVE",
"280 209 OFFCURVE",
"346 281 CURVE SMOOTH",
"407 348 OFFCURVE",
"442 417 OFFCURVE",
"478 488 CURVE",
"486 440 OFFCURVE",
"518 293 OFFCURVE",
"587 222 CURVE SMOOTH",
"635 171 OFFCURVE",
"699 171 OFFCURVE",
"746 221 CURVE SMOOTH",
"778 257 OFFCURVE",
"812 333 OFFCURVE",
"822 355 CURVE SMOOTH"
);
},
{
closed = 1;
nodes = (
"858 703 OFFCURVE",
"743 546 OFFCURVE",
"588 527 CURVE SMOOTH",
"552 522 OFFCURVE",
"523 522 OFFCURVE",
"494 517 CURVE",
"537 604 OFFCURVE",
"590 679 OFFCURVE",
"638 761 CURVE",
"665 757 OFFCURVE",
"689 753 OFFCURVE",
"711 747 CURVE SMOOTH"
);
}
);
width = 768;
}
);
note = R;
unicode = 0052;
},
{
glyphname = S;
lastChange = "2020-01-01 22:28:00 +0000";
layers = (
{
hints = (
{
place = "{-2, 42}";
type = Stem;
}
);
layerId = "61E7180A-0B32-4047-B910-001D8BB62225";
paths = (
{
closed = 1;
nodes = (
"722 719 OFFCURVE",
"704 781 OFFCURVE",
"650 807 CURVE SMOOTH",
"596 834 OFFCURVE",
"485 830 OFFCURVE",
"410 803 CURVE SMOOTH",
"300 764 OFFCURVE",
"232 653 OFFCURVE",
"344 579 CURVE SMOOTH",
"400 542 OFFCURVE",
"500 515 OFFCURVE",
"547 477 CURVE SMOOTH",
"638 404 OFFCURVE",
"584 275 OFFCURVE",
"458 209 CURVE SMOOTH",
"308 131 OFFCURVE",
"39 150 OFFCURVE",
"41 336 CURVE SMOOTH",
"41 384 OFFCURVE",
"56 434 OFFCURVE",
"83 476 CURVE SMOOTH",
"96 498 OFFCURVE",
"114 517 OFFCURVE",
"134 533 CURVE SMOOTH",
"159 551 OFFCURVE",
"137 548 OFFCURVE",
"127 544 CURVE SMOOTH",
"53 509 OFFCURVE",
"-5 407 OFFCURVE",
"-2 336 CURVE SMOOTH",
"11 125 OFFCURVE",
"331 104 OFFCURVE",
"500 205 CURVE SMOOTH",
"627 281 OFFCURVE",
"728 422 OFFCURVE",
"575 516 CURVE SMOOTH",
"519 551 OFFCURVE",
"443 577 OFFCURVE",
"398 605 CURVE SMOOTH",
"296 667 OFFCURVE",
"349 751 OFFCURVE",
"438 783 CURVE SMOOTH",
"680 869 OFFCURVE",
"722 683 OFFCURVE",
"629 672 CURVE SMOOTH",
"604 669 OFFCURVE",
"605 652 OFFCURVE",
"625 657 CURVE SMOOTH",
"647 663 OFFCURVE",
"663 671 OFFCURVE",
"675 681 CURVE SMOOTH"
);
}
);
width = 676;
}
);
note = S;
unicode = 0053;
},
{
glyphname = T;
lastChange = "2020-01-01 22:28:00 +0000";
layers = (
{
hints = (
{
place = "{1034, 16}";
type = Stem;
}
);
layerId = "61E7180A-0B32-4047-B910-001D8BB62225";
paths = (
{
closed = 1;
nodes = (
"1050 676 OFFCURVE",
"1048 688 OFFCURVE",
"1043 688 CURVE SMOOTH",
"1036 688 OFFCURVE",
"1034 683 OFFCURVE",
"1034 677 CURVE SMOOTH",
"1034 626 OFFCURVE",
"852 676 OFFCURVE",
"788 697 CURVE",
"797 707 OFFCURVE",
"820 732 OFFCURVE",
"827 727 CURVE",
"851 719 OFFCURVE",
"845 756 OFFCURVE",
"821 749 CURVE",
"822 749 LINE SMOOTH",
"806 749 OFFCURVE",
"773 711 OFFCURVE",
"767 703 CURVE",
"719 716 OFFCURVE",
"612 761 OFFCURVE",
"522 768 CURVE SMOOTH",
"241 794 OFFCURVE",
"184 518 OFFCURVE",
"337 464 CURVE SMOOTH",
"407 440 OFFCURVE",
"493 483 OFFCURVE",
"503 563 CURVE",
"503 573 OFFCURVE",
"495 576 OFFCURVE",
"488 569 CURVE",
"488 568 LINE SMOOTH",
"491 547 OFFCURVE",
"437 454 OFFCURVE",
"344 483 CURVE SMOOTH",
"227 521 OFFCURVE",
"313 740 OFFCURVE",
"527 730 CURVE SMOOTH",
"608 726 OFFCURVE",
"676 713 OFFCURVE",
"755 689 CURVE",
"723 647 OFFCURVE",
"625 382 OFFCURVE",
"534 284 CURVE SMOOTH",
"477 221 OFFCURVE",
"397 174 OFFCURVE",
"279 171 CURVE SMOOTH",
"164 169 OFFCURVE",
"25 251 OFFCURVE",
"52 405 CURVE SMOOTH",
"64 476 OFFCURVE",
"117 494 OFFCURVE",
"129 509 CURVE",
"134 540 OFFCURVE",
"59 509 OFFCURVE",
"37 440 CURVE SMOOTH",
"-65 119 OFFCURVE",
"411 67 OFFCURVE",
"570 248 CURVE SMOOTH",
"680 374 OFFCURVE",
"686 538 OFFCURVE",
"776 681 CURVE",
"792 674 OFFCURVE",
"854 647 OFFCURVE",
"965 633 CURVE SMOOTH",
"1013 627 OFFCURVE",
"1050 644 OFFCURVE",
"1050 672 CURVE SMOOTH"
);
}
);
width = 689;
}
);
note = T;
rightKerningGroup = T;
unicode = 0054;
},
{
glyphname = U;
lastChange = "2020-01-01 22:28:00 +0000";
layers = (
{
hints = (
{
horizontal = 1;
place = "{-29, 19}";
type = Stem;
},
{
horizontal = 1;
place = "{107, 21}";
type = Stem;
},
{
horizontal = 1;
place = "{364, 20}";
type = Stem;
},
{
horizontal = 1;
place = "{623, 20}";
type = Stem;
},
{
place = "{-3, 31}";
type = Stem;
},
{
place = "{326, 22}";
type = Stem;
},
{
place = "{506, 40}";
type = Stem;
},
{
place = "{618, 32}";
type = Stem;
},
{
horizontal = 1;
place = "{-59, 17}";
type = Stem;
}
);
layerId = "61E7180A-0B32-4047-B910-001D8BB62225";
paths = (
{
closed = 1;
nodes = (
"731 581 OFFCURVE",
"714 571 OFFCURVE",
"698 542 CURVE SMOOTH",
"667 486 OFFCURVE",
"622 380 OFFCURVE",
"572 308 CURVE SMOOTH",
"489 188 OFFCURVE",
"413 176 OFFCURVE",
"404 254 CURVE SMOOTH",
"393 363 OFFCURVE",
"511 534 OFFCURVE",
"538 653 CURVE SMOOTH",
"557 735 OFFCURVE",
"548 811 OFFCURVE",
"474 842 CURVE SMOOTH",
"407 872 OFFCURVE",
"315 857 OFFCURVE",
"230 809 CURVE SMOOTH",
"-136 610 OFFCURVE",
"-15 242 OFFCURVE",
"209 337 CURVE SMOOTH",
"375 407 OFFCURVE",
"399 653 OFFCURVE",
"245 588 CURVE SMOOTH",
"239 586 OFFCURVE",
"209 566 OFFCURVE",
"248 575 CURVE SMOOTH",
"392 608 OFFCURVE",
"313 392 OFFCURVE",
"210 354 CURVE SMOOTH",
"2 276 OFFCURVE",
"-72 609 OFFCURVE",
"228 785 CURVE SMOOTH",
"314 834 OFFCURVE",
"416 856 OFFCURVE",
"478 818 CURVE SMOOTH",
"514 797 OFFCURVE",
"512 728 OFFCURVE",
"494 656 CURVE SMOOTH",
"466 547 OFFCURVE",
"345 355 OFFCURVE",
"362 254 CURVE SMOOTH",
"377 158 OFFCURVE",
"483 158 OFFCURVE",
"583 287 CURVE SMOOTH",
"602 311 OFFCURVE",
"617 335 OFFCURVE",
"629 354 CURVE",
"616 290 OFFCURVE",
"602 169 OFFCURVE",
"673 156 CURVE SMOOTH",
"696 152 OFFCURVE",
"714 176 OFFCURVE",
"678 173 CURVE SMOOTH",
"637 171 OFFCURVE",
"646 263 OFFCURVE",
"668 344 CURVE SMOOTH",
"682 397 OFFCURVE",
"703 444 OFFCURVE",
"713 465 CURVE SMOOTH",
"733 511 OFFCURVE",
"776 563 OFFCURVE",
"740 581 CURVE"
);
}
);
width = 707;
}
);
leftKerningGroup = U;
note = U;
unicode = 0055;
},
{
glyphname = V;
lastChange = "2020-01-01 22:28:00 +0000";
layers = (
{
hints = (
{
horizontal = 1;
place = "{101, 20}";
type = Stem;
},
{
place = "{335, 33}";
type = Stem;
}
);
layerId = "61E7180A-0B32-4047-B910-001D8BB62225";
paths = (
{
closed = 1;
nodes = (
"817 617 OFFCURVE",
"751 669 OFFCURVE",
"714 679 CURVE SMOOTH",
"684 686 OFFCURVE",
"685 664 OFFCURVE",
"711 659 CURVE SMOOTH",
"728 656 OFFCURVE",
"740 659 OFFCURVE",
"747 620 CURVE SMOOTH",
"762 529 OFFCURVE",
"695 407 OFFCURVE",
"615 314 CURVE SMOOTH",
"590 284 OFFCURVE",
"379 60 OFFCURVE",
"408 230 CURVE SMOOTH",
"420 298 OFFCURVE",
"456 416 OFFCURVE",
"504 513 CURVE SMOOTH",
"562 632 OFFCURVE",
"595 785 OFFCURVE",
"485 833 CURVE SMOOTH",
"353 891 OFFCURVE",
"98 778 OFFCURVE",
"17 593 CURVE SMOOTH",
"-53 433 OFFCURVE",
"47 316 OFFCURVE",
"150 316 CURVE SMOOTH",
"244 316 OFFCURVE",
"368 415 OFFCURVE",
"368 510 CURVE SMOOTH",
"368 567 OFFCURVE",
"327 609 OFFCURVE",
"263 579 CURVE SMOOTH",
"249 572 OFFCURVE",
"245 562 OFFCURVE",
"267 569 CURVE SMOOTH",
"317 584 OFFCURVE",
"335 549 OFFCURVE",
"335 509 CURVE SMOOTH",
"335 426 OFFCURVE",
"246 335 OFFCURVE",
"162 335 CURVE SMOOTH",
"77 335 OFFCURVE",
"-1 412 OFFCURVE",
"56 569 CURVE SMOOTH",
"118 736 OFFCURVE",
"367 884 OFFCURVE",
"488 809 CURVE SMOOTH",
"547 773 OFFCURVE",
"494 614 OFFCURVE",
"455 522 CURVE SMOOTH",
"354 282 OFFCURVE",
"335 155 OFFCURVE",
"398 144 CURVE SMOOTH",
"494 127 OFFCURVE",
"702 317 OFFCURVE",
"774 506 CURVE SMOOTH"
);
}
);
width = 731;
}
);
note = V;
unicode = 0056;
},
{
glyphname = W;
lastChange = "2020-01-01 22:28:00 +0000";
layers = (
{
hints = (
{
horizontal = 1;
place = "{-54, 18}";
type = Stem;
},
{
horizontal = 1;
place = "{75, 19}";
type = Stem;
},
{
horizontal = 1;
place = "{329, 20}";
type = Stem;
},
{
horizontal = 1;
place = "{437, 22}";
type = Stem;
},
{
horizontal = 1;
place = "{587, 20}";
type = Stem;
},
{
place = "{-13, 45}";
type = Stem;
},
{
place = "{306, 38}";
type = Stem;
},
{
place = "{496, 44}";
type = Stem;
},
{
place = "{618, 36}";
type = Stem;
},
{
place = "{998, 38}";
type = Stem;
},
{
horizontal = 1;
place = "{-93, 20}";
type = Stem;
},
{
place = "{338, 41}";
type = Stem;
}
);
layerId = "61E7180A-0B32-4047-B910-001D8BB62225";
paths = (
{
closed = 1;
nodes = (
"1081 566 OFFCURVE",
"994 682 OFFCURVE",
"898 674 CURVE",
"863 680 OFFCURVE",
"820 638 OFFCURVE",
"887 656 CURVE",
"1007 672 OFFCURVE",
"1025 538 OFFCURVE",
"963 390 CURVE SMOOTH",
"900 240 OFFCURVE",
"627 64 OFFCURVE",
"654 279 CURVE SMOOTH",
"662 342 OFFCURVE",
"710 430 OFFCURVE",
"729 486 CURVE SMOOTH",
"750 548 OFFCURVE",
"719 566 OFFCURVE",
"680 512 CURVE SMOOTH",
"614 421 OFFCURVE",
"512 204 OFFCURVE",
"420 150 CURVE SMOOTH",
"390 132 OFFCURVE",
"371 140 OFFCURVE",
"381 192 CURVE SMOOTH",
"395 263 OFFCURVE",
"445 399 OFFCURVE",
"489 498 CURVE SMOOTH",
"542 618 OFFCURVE",
"576 758 OFFCURVE",
"467 806 CURVE SMOOTH",
"335 865 OFFCURVE",
"92 749 OFFCURVE",
"12 563 CURVE SMOOTH",
"-72 371 OFFCURVE",
"75 251 OFFCURVE",
"193 300 CURVE SMOOTH",
"377 377 OFFCURVE",
"397 606 OFFCURVE",
"231 555 CURVE SMOOTH",
"215 550 OFFCURVE",
"209 539 OFFCURVE",
"233 543 CURVE SMOOTH",
"365 565 OFFCURVE",
"299 356 OFFCURVE",
"194 318 CURVE SMOOTH",
"95 281 OFFCURVE",
"-16 347 OFFCURVE",
"54 536 CURVE SMOOTH",
"116 704 OFFCURVE",
"348 857 OFFCURVE",
"470 782 CURVE SMOOTH",
"529 746 OFFCURVE",
"473 587 OFFCURVE",
"435 495 CURVE SMOOTH",
"379 361 OFFCURVE",
"342 263 OFFCURVE",
"338 200 CURVE SMOOTH",
"333 138 OFFCURVE",
"360 120 OFFCURVE",
"390 122 CURVE SMOOTH",
"473 125 OFFCURVE",
"591 298 OFFCURVE",
"633 367 CURVE",
"624 337 OFFCURVE",
"616 296 OFFCURVE",
"618 260 CURVE SMOOTH",
"632 62 OFFCURVE",
"933 189 OFFCURVE",
"1010 383 CURVE SMOOTH"
);
}
);
width = 1008;
}
);
note = W;
unicode = 0057;
},
{
glyphname = X;
lastChange = "2020-01-01 22:28:00 +0000";
layers = (
{
hints = (
{
place = "{374, 53}";
type = Stem;
}
);
layerId = "61E7180A-0B32-4047-B910-001D8BB62225";
paths = (
{
closed = 1;
nodes = (
"872 852 OFFCURVE",
"825 851 OFFCURVE",
"768 795 CURVE SMOOTH",
"697 725 OFFCURVE",
"576 655 OFFCURVE",
"427 550 CURVE",
"428 654 OFFCURVE",
"419 750 OFFCURVE",
"394 773 CURVE SMOOTH",
"297 863 OFFCURVE",
"92 685 OFFCURVE",
"81 669 CURVE SMOOTH",
"65 647 OFFCURVE",
"89 642 OFFCURVE",
"93 645 CURVE",
"128 680 OFFCURVE",
"167 724 OFFCURVE",
"209 743 CURVE SMOOTH",
"274 774 OFFCURVE",
"345 775 OFFCURVE",
"362 699 CURVE SMOOTH",
"373 653 OFFCURVE",
"374 583 OFFCURVE",
"373 511 CURVE",
"209 394 OFFCURVE",
"41 252 OFFCURVE",
"-77 88 CURVE SMOOTH",
"-111 41 OFFCURVE",
"-76 24 OFFCURVE",
"-35 88 CURVE SMOOTH",
"62 239 OFFCURVE",
"216 368 OFFCURVE",
"374 482 CURVE",
"371 369 OFFCURVE",
"368 263 OFFCURVE",
"377 227 CURVE SMOOTH",
"405 95 OFFCURVE",
"548 123 OFFCURVE",
"658 353 CURVE SMOOTH",
"667 371 OFFCURVE",
"651 369 OFFCURVE",
"645 356 CURVE SMOOTH",
"582 211 OFFCURVE",
"472 131 OFFCURVE",
"437 260 CURVE SMOOTH",
"425 305 OFFCURVE",
"425 417 OFFCURVE",
"428 521 CURVE",
"604 647 OFFCURVE",
"753 736 OFFCURVE",
"809 791 CURVE SMOOTH"
);
}
);
width = 605;
}
);
note = X;
unicode = 0058;
},
{
glyphname = Y;
lastChange = "2020-01-01 22:28:00 +0000";
layers = (
{
hints = (
{
horizontal = 1;
place = "{-116, 19}";
type = Stem;
}
);
layerId = "61E7180A-0B32-4047-B910-001D8BB62225";
paths = (
{
closed = 1;
nodes = (
"834 212 OFFCURVE",
"830 205 OFFCURVE",
"831 194 CURVE",
"831 165 OFFCURVE",
"815 157 OFFCURVE",
"782 138 CURVE SMOOTH",
"754 122 OFFCURVE",
"685 119 OFFCURVE",
"611 119 CURVE",
"666 217 OFFCURVE",
"718 388 OFFCURVE",
"744 503 CURVE SMOOTH",
"770 615 OFFCURVE",
"711 569 OFFCURVE",
"707 551 CURVE",
"684 473 OFFCURVE",
"608 286 OFFCURVE",
"515 220 CURVE SMOOTH",
"456 178 OFFCURVE",
"387 184 OFFCURVE",
"407 274 CURVE SMOOTH",
"422 342 OFFCURVE",
"473 445 OFFCURVE",
"524 530 CURVE SMOOTH",
"591 644 OFFCURVE",
"623 782 OFFCURVE",
"513 831 CURVE SMOOTH",
"382 890 OFFCURVE",
"132 768 OFFCURVE",
"44 586 CURVE SMOOTH",
"-48 398 OFFCURVE",
"94 276 OFFCURVE",
"213 326 CURVE SMOOTH",
"381 395 OFFCURVE",
"433 623 OFFCURVE",
"275 580 CURVE SMOOTH",
"261 577 OFFCURVE",
"251 564 OFFCURVE",
"276 569 CURVE SMOOTH",
"407 593 OFFCURVE",
"320 380 OFFCURVE",
"216 343 CURVE SMOOTH",
"119 308 OFFCURVE",
"5 381 OFFCURVE",
"83 566 CURVE SMOOTH",
"152 732 OFFCURVE",
"395 884 OFFCURVE",
"516 807 CURVE SMOOTH",
"574 770 OFFCURVE",
"530 629 OFFCURVE",
"464 521 CURVE SMOOTH",
"422 453 OFFCURVE",
"365 353 OFFCURVE",
"354 278 CURVE SMOOTH",
"339 164 OFFCURVE",
"449 152 OFFCURVE",
"525 204 CURVE SMOOTH",
"595 251 OFFCURVE",
"649 347 OFFCURVE",
"677 408 CURVE",
"650 308 OFFCURVE",
"614 214 OFFCURVE",
"575 118 CURVE",
"466 118 OFFCURVE",
"353 112 OFFCURVE",
"251 70 CURVE SMOOTH",
"63 -8 OFFCURVE",
"196 -136 OFFCURVE",
"392 -61 CURVE SMOOTH",
"468 -32 OFFCURVE",
"549 23 OFFCURVE",
"599 99 CURVE",
"675 100 OFFCURVE",
"747 101 OFFCURVE",
"786 116 CURVE SMOOTH",
"832 136 OFFCURVE",
"846 173 OFFCURVE",
"840 193 CURVE SMOOTH"
);
},
{
closed = 1;
nodes = (
"519 27 OFFCURVE",
"447 -20 OFFCURVE",
"380 -45 CURVE SMOOTH",
"260 -89 OFFCURVE",
"119 -47 OFFCURVE",
"266 37 CURVE SMOOTH",
"355 89 OFFCURVE",
"463 99 OFFCURVE",
"564 99 CURVE"
);
}
);
width = 719;
}
);
note = Y;
unicode = 0059;
},
{
glyphname = Z;
lastChange = "2020-01-01 22:28:00 +0000";
layers = (
{
hints = (
{
horizontal = 1;
place = "{-119, 43}";
type = Stem;
},
{
horizontal = 1;
place = "{78, 27}";
type = Stem;
},
{
horizontal = 1;
place = "{483, 12}";
type = Stem;
},
{
horizontal = 1;
place = "{556, 14}";
type = Stem;
},
{
place = "{8, 35}";
type = Stem;
},
{
place = "{203, 26}";
type = Stem;
},
{
place = "{785, 22}";
type = Stem;
},
{
horizontal = 1;
place = "{533, 41}";
type = Stem;
},
{
place = "{731, 17}";
type = Stem;
}
);
layerId = "61E7180A-0B32-4047-B910-001D8BB62225";
paths = (
{
closed = 1;
nodes = (
"834 752 OFFCURVE",
"796 800 OFFCURVE",
"734 779 CURVE SMOOTH",
"710 770 OFFCURVE",
"681 752 OFFCURVE",
"650 728 CURVE",
"567 754 OFFCURVE",
"460 796 OFFCURVE",
"368 788 CURVE SMOOTH",
"193 775 OFFCURVE",
"182 659 OFFCURVE",
"224 614 CURVE SMOOTH",
"235 601 OFFCURVE",
"248 593 OFFCURVE",
"254 591 CURVE SMOOTH",
"261 589 OFFCURVE",
"289 587 OFFCURVE",
"263 605 CURVE SMOOTH",
"185 657 OFFCURVE",
"259 722 OFFCURVE",
"323 738 CURVE SMOOTH",
"412 761 OFFCURVE",
"548 742 OFFCURVE",
"636 717 CURVE",
"580 671 OFFCURVE",
"518 609 OFFCURVE",
"476 560 CURVE SMOOTH",
"418 488 OFFCURVE",
"223 260 OFFCURVE",
"223 260 CURVE",
"171 293 OFFCURVE",
"138 308 OFFCURVE",
"116 314 CURVE SMOOTH",
"-9 347 OFFCURVE",
"-26 209 OFFCURVE",
"69 187 CURVE SMOOTH",
"104 179 OFFCURVE",
"154 192 OFFCURVE",
"219 239 CURVE",
"219 239 OFFCURVE",
"462 94 OFFCURVE",
"572 96 CURVE SMOOTH",
"719 99 OFFCURVE",
"746 176 OFFCURVE",
"749 205 CURVE SMOOTH",
"753 248 OFFCURVE",
"735 240 OFFCURVE",
"731 216 CURVE SMOOTH",
"719 131 OFFCURVE",
"581 133 OFFCURVE",
"524 144 CURVE SMOOTH",
"443 160 OFFCURVE",
"238 249 OFFCURVE",
"238 249 CURVE",
"293 294 OFFCURVE",
"387 368 OFFCURVE",
"473 474 CURVE SMOOTH",
"529 544 OFFCURVE",
"609 661 OFFCURVE",
"663 710 CURVE",
"717 697 OFFCURVE",
"761 691 OFFCURVE",
"785 710 CURVE SMOOTH"
);
},
{
closed = 1;
nodes = (
"752 704 OFFCURVE",
"717 710 OFFCURVE",
"674 722 CURVE",
"709 751 OFFCURVE",
"740 770 OFFCURVE",
"763 770 CURVE SMOOTH",
"790 770 OFFCURVE",
"793 730 OFFCURVE",
"771 716 CURVE SMOOTH"
);
},
{
closed = 1;
nodes = (
"188 228 OFFCURVE",
"147 210 OFFCURVE",
"113 209 CURVE SMOOTH",
"19 206 OFFCURVE",
"20 302 OFFCURVE",
"110 293 CURVE SMOOTH",
"129 290 OFFCURVE",
"155 281 OFFCURVE",
"186 263 CURVE",
"194 258 OFFCURVE",
"209 246 OFFCURVE",
"209 246 CURVE"
);
}
);
width = 508;
}
);
note = Z;
unicode = 005A;
},
{
glyphname = Z.stroke;
lastChange = "2020-01-01 22:28:00 +0000";
layers = (
{
hints = (
{
horizontal = 1;
place = "{250, 20}";
type = Stem;
},
{
place = "{282, 303}";
type = Stem;
}
);
layerId = "61E7180A-0B32-4047-B910-001D8BB62225";
paths = (
{
closed = 1;
nodes = (
"596 464 OFFCURVE",
"587 483 OFFCURVE",
"560 484 CURVE SMOOTH",
"531 484 OFFCURVE",
"505 485 OFFCURVE",
"482 485 CURVE",
"537 556 OFFCURVE",
"611 663 OFFCURVE",
"663 710 CURVE",
"717 697 OFFCURVE",
"761 691 OFFCURVE",
"785 710 CURVE SMOOTH",
"834 752 OFFCURVE",
"796 800 OFFCURVE",
"734 779 CURVE SMOOTH",
"710 770 OFFCURVE",
"681 752 OFFCURVE",
"650 728 CURVE",
"567 754 OFFCURVE",
"460 796 OFFCURVE",
"368 788 CURVE SMOOTH",
"193 775 OFFCURVE",
"182 659 OFFCURVE",
"224 614 CURVE SMOOTH",
"235 601 OFFCURVE",
"248 593 OFFCURVE",
"254 591 CURVE SMOOTH",
"261 589 OFFCURVE",
"289 587 OFFCURVE",
"263 605 CURVE SMOOTH",
"185 657 OFFCURVE",
"259 722 OFFCURVE",
"323 738 CURVE SMOOTH",
"412 761 OFFCURVE",
"548 742 OFFCURVE",
"636 717 CURVE",
"580 671 OFFCURVE",
"518 609 OFFCURVE",
"476 560 CURVE SMOOTH",
"415 486 LINE",
"365 487 OFFCURVE",
"329 487 OFFCURVE",
"302 487 CURVE SMOOTH",
"268 487 OFFCURVE",
"286 450 OFFCURVE",
"302 452 CURVE SMOOTH",
"329 453 OFFCURVE",
"359 456 OFFCURVE",
"392 458 CURVE",
"315 368 OFFCURVE",
"223 260 OFFCURVE",
"223 260 CURVE",
"171 293 OFFCURVE",
"138 308 OFFCURVE",
"116 314 CURVE SMOOTH",
"-9 347 OFFCURVE",
"-26 209 OFFCURVE",
"69 187 CURVE SMOOTH",
"104 179 OFFCURVE",
"154 192 OFFCURVE",
"219 239 CURVE",
"219 239 OFFCURVE",
"462 94 OFFCURVE",
"572 96 CURVE SMOOTH",
"719 99 OFFCURVE",
"746 176 OFFCURVE",
"749 205 CURVE SMOOTH",
"753 248 OFFCURVE",
"735 240 OFFCURVE",
"731 216 CURVE SMOOTH",
"719 131 OFFCURVE",
"581 133 OFFCURVE",
"524 144 CURVE SMOOTH",
"443 160 OFFCURVE",
"238 249 OFFCURVE",
"238 249 CURVE",
"290 292 OFFCURVE",
"380 362 OFFCURVE",
"463 462 CURVE",
"494 464 OFFCURVE",
"528 464 OFFCURVE",
"565 464 CURVE SMOOTH"
);
},
{
closed = 1;
nodes = (
"188 228 OFFCURVE",
"147 210 OFFCURVE",
"113 209 CURVE SMOOTH",
"19 206 OFFCURVE",
"20 302 OFFCURVE",
"110 293 CURVE SMOOTH",
"129 290 OFFCURVE",
"155 281 OFFCURVE",
"186 263 CURVE",
"194 258 OFFCURVE",
"209 246 OFFCURVE",
"209 246 CURVE"
);
},
{
closed = 1;
nodes = (
"752 704 OFFCURVE",
"717 710 OFFCURVE",
"674 722 CURVE",
"709 751 OFFCURVE",
"740 770 OFFCURVE",
"763 770 CURVE SMOOTH",
"790 770 OFFCURVE",
"793 730 OFFCURVE",
"771 716 CURVE SMOOTH"
);
}
);
width = 508;
}
);
note = Z.stroke;
unicode = E000;
},
{
glyphname = bracketleft;
lastChange = "2020-01-01 22:28:51 +0000";
layers = (
{
hints = (
{
horizontal = 1;
place = "{-13, 31}";
type = Stem;
},
{
horizontal = 1;
place = "{501, 38}";
type = Stem;
},
{
place = "{29, 44}";
type = Stem;
}
);
layerId = "61E7180A-0B32-4047-B910-001D8BB62225";
paths = (
{
closed = 1;
nodes = (
"437 753 OFFCURVE",
"387 753 OFFCURVE",
"369 753 CURVE SMOOTH",
"354 753 LINE SMOOTH",
"305 753 OFFCURVE",
"284 731 OFFCURVE",
"254 696 CURVE SMOOTH",
"172 600 OFFCURVE",
"29 362 OFFCURVE",
"29 236 CURVE SMOOTH",
"29 202 OFFCURVE",
"93 202 OFFCURVE",
"116 202 CURVE SMOOTH",
"133 202 OFFCURVE",
"209 200 OFFCURVE",
"209 219 CURVE SMOOTH",
"209 233 OFFCURVE",
"187 236 OFFCURVE",
"177 236 CURVE SMOOTH",
"159 236 OFFCURVE",
"141 233 OFFCURVE",
"123 233 CURVE SMOOTH",
"101 233 OFFCURVE",
"73 236 OFFCURVE",
"73 266 CURVE SMOOTH",
"73 352 OFFCURVE",
"252 674 OFFCURVE",
"328 712 CURVE SMOOTH",
"336 716 OFFCURVE",
"354 716 OFFCURVE",
"363 716 CURVE SMOOTH",
"382 716 OFFCURVE",
"400 713 OFFCURVE",
"419 713 CURVE SMOOTH",
"430 713 OFFCURVE",
"437 712 OFFCURVE",
"437 726 CURVE SMOOTH"
);
}
);
width = 439;
}
);
note = bracketleft;
unicode = 005B;
},
{
glyphname = backslash;
lastChange = "2020-01-01 22:28:51 +0000";
layers = (
{
hints = (
{
horizontal = 1;
place = "{571, 22}";
type = Stem;
}
);
layerId = "61E7180A-0B32-4047-B910-001D8BB62225";
paths = (
{
closed = 1;
nodes = (
"644 189 LINE",
"644 194 OFFCURVE",
"641 197 OFFCURVE",
"638 200 CURVE SMOOTH",
"515 327 OFFCURVE",
"428 460 OFFCURVE",
"325 599 CURVE SMOOTH",
"247 704 OFFCURVE",
"152 807 OFFCURVE",
"69 807 CURVE SMOOTH",
"48 807 OFFCURVE",
"23 802 OFFCURVE",
"15 780 CURVE",
"20 775 LINE",
"31 778 OFFCURVE",
"41 785 OFFCURVE",
"52 785 CURVE SMOOTH",
"187 785 OFFCURVE",
"502 225 OFFCURVE",
"639 185 CURVE"
);
}
);
width = 650;
}
);
note = backslash;
unicode = 005C;
},
{
glyphname = bracketright;
lastChange = "2020-01-01 22:28:51 +0000";
layers = (
{
hints = (
{
horizontal = 1;
place = "{503, 35}";
type = Stem;
},
{
place = "{367, 44}";
type = Stem;
}
);
layerId = "61E7180A-0B32-4047-B910-001D8BB62225";
paths = (
{
closed = 1;
nodes = (
"411 749 OFFCURVE",
"390 752 OFFCURVE",
"364 752 CURVE SMOOTH",
"334 752 OFFCURVE",
"264 752 OFFCURVE",
"254 715 CURVE",
"257 713 LINE",
"284 713 OFFCURVE",
"312 716 OFFCURVE",
"340 716 CURVE SMOOTH",
"348 716 OFFCURVE",
"356 716 OFFCURVE",
"365 713 CURVE",
"366 706 OFFCURVE",
"367 698 OFFCURVE",
"367 691 CURVE SMOOTH",
"367 581 OFFCURVE",
"261 354 OFFCURVE",
"188 272 CURVE SMOOTH",
"129 206 OFFCURVE",
"23 260 OFFCURVE",
"13 206 CURVE",
"24 200 OFFCURVE",
"54 202 OFFCURVE",
"69 202 CURVE SMOOTH",
"114 202 OFFCURVE",
"173 203 OFFCURVE",
"206 236 CURVE SMOOTH",
"308 339 OFFCURVE",
"411 572 OFFCURVE",
"411 717 CURVE SMOOTH"
);
}
);
width = 417;
}
);
note = bracketright;
unicode = 005D;
},
{
glyphname = asciicircum;
lastChange = "2020-01-01 22:28:51 +0000";
layers = (
{
hints = (
{
horizontal = 1;
place = "{287, 21}";
target = up;
type = BottomGhost;
},
{
horizontal = 1;
place = "{387, -20}";
target = down;
type = TopGhost;
}
);
layerId = "61E7180A-0B32-4047-B910-001D8BB62225";
paths = (
{
closed = 1;
nodes = (
"299 514 LINE",
"268 539 OFFCURVE",
"239 567 OFFCURVE",
"216 599 CURVE",
"212 602 LINE",
"195 599 OFFCURVE",
"91 523 OFFCURVE",
"89 509 CURVE",
"93 504 LINE",
"107 506 OFFCURVE",
"179 559 OFFCURVE",
"195 570 CURVE",
"209 551 OFFCURVE",
"269 501 OFFCURVE",
"293 501 CURVE SMOOTH",
"297 501 OFFCURVE",
"302 503 OFFCURVE",
"302 508 CURVE"
);
}
);
width = 278;
}
);
note = asciicircum;
unicode = 005E;
},
{
glyphname = underscore;
lastChange = "2020-01-01 22:28:51 +0000";
layers = (
{
hints = (
{
horizontal = 1;
place = "{-45, 26}";
type = Stem;
}
);
layerId = "61E7180A-0B32-4047-B910-001D8BB62225";
paths = (
{
closed = 1;
nodes = (
"595 175 LINE",
"594 185 OFFCURVE",
"585 196 OFFCURVE",
"574 196 CURVE SMOOTH",
"19 196 LINE SMOOTH",
"11 196 OFFCURVE",
"6 189 OFFCURVE",
"6 182 CURVE SMOOTH",
"6 175 OFFCURVE",
"10 160 OFFCURVE",
"19 160 CURVE SMOOTH",
"68 160 OFFCURVE",
"116 164 OFFCURVE",
"164 164 CURVE SMOOTH",
"306 167 OFFCURVE",
"448 170 OFFCURVE",
"590 170 CURVE"
);
}
);
width = 605;
}
);
note = underscore;
unicode = 005F;
},
{
glyphname = grave;
lastChange = "2020-01-01 22:28:51 +0000";
layers = (
{
hints = (
{
horizontal = 1;
place = "{299, 21}";
target = up;
type = BottomGhost;
},
{
horizontal = 1;
place = "{401, -20}";
target = down;
type = TopGhost;
}
);
layerId = "61E7180A-0B32-4047-B910-001D8BB62225";
paths = (
{
closed = 1;
nodes = (
"145 526 OFFCURVE",
"35 615 OFFCURVE",
"21 615 CURVE SMOOTH",
"13 615 OFFCURVE",
"7 608 OFFCURVE",
"7 599 CURVE SMOOTH",
"7 583 OFFCURVE",
"21 572 OFFCURVE",
"35 566 CURVE SMOOTH",
"49 559 OFFCURVE",
"131 514 OFFCURVE",
"137 514 CURVE SMOOTH",
"141 514 OFFCURVE",
"145 516 OFFCURVE",
"145 521 CURVE SMOOTH"
);
}
);
width = 158;
}
);
note = grave;
unicode = 0060;
},
{
glyphname = a;
lastChange = "2020-01-01 22:37:55 +0000";
layers = (
{
hints = (
{
horizontal = 1;
place = "{-1, 21}";
type = Stem;
},
{
horizontal = 1;
place = "{152, -20}";
target = down;
type = TopGhost;
},
{
horizontal = 1;
place = "{249, 18}";
type = Stem;
},
{
place = "{18, 35}";
type = Stem;
},
{
place = "{158, 40}";
type = Stem;
},
{
place = "{247, 14}";
type = Stem;
},
{
horizontal = 1;
place = "{-2, 20}";
type = Stem;
}
);
layerId = "61E7180A-0B32-4047-B910-001D8BB62225";
paths = (
{
closed = 1;
nodes = (
"323 368 OFFCURVE",
"312 372 OFFCURVE",
"305 359 CURVE SMOOTH",
"290 326 OFFCURVE",
"240 231 OFFCURVE",
"209 233 CURVE SMOOTH",
"199 233 OFFCURVE",
"195 247 OFFCURVE",
"201 278 CURVE SMOOTH",
"211 323 OFFCURVE",
"255 402 OFFCURVE",
"271 418 CURVE",
"260 416 OFFCURVE",
"249 420 OFFCURVE",
"239 421 CURVE SMOOTH",
"215 422 OFFCURVE",
"205 404 OFFCURVE",
"188 373 CURVE SMOOTH",
"169 336 OFFCURVE",
"148 299 OFFCURVE",
"122 268 CURVE SMOOTH",
"86 226 OFFCURVE",
"45 220 OFFCURVE",
"53 272 CURVE SMOOTH",
"57 301 OFFCURVE",
"77 338 OFFCURVE",
"83 348 CURVE SMOOTH",
"110 392 OFFCURVE",
"149 437 OFFCURVE",
"183 455 CURVE SMOOTH",
"211 470 OFFCURVE",
"239 464 OFFCURVE",
"247 437 CURVE",
"260 434 OFFCURVE",
"266 447 OFFCURVE",
"255 458 CURVE SMOOTH",
"239 475 OFFCURVE",
"218 482 OFFCURVE",
"195 482 CURVE SMOOTH",
"155 481 OFFCURVE",
"110 458 OFFCURVE",
"81 424 CURVE SMOOTH",
"-32 288 OFFCURVE",
"25 157 OFFCURVE",
"111 239 CURVE SMOOTH",
"133 260 OFFCURVE",
"153 290 OFFCURVE",
"165 310 CURVE",
"143 231 OFFCURVE",
"178 212 OFFCURVE",
"203 213 CURVE SMOOTH",
"248 217 OFFCURVE",
"293 307 OFFCURVE",
"316 353 CURVE SMOOTH"
);
}
);
width = 263;
}
);
note = a;
unicode = 0061;
},
{
glyphname = b;
lastChange = "2020-01-01 22:37:09 +0000";
layers = (
{
hints = (
{
horizontal = 1;
place = "{464, -20}";
target = down;
type = TopGhost;
}
);
layerId = "61E7180A-0B32-4047-B910-001D8BB62225";
paths = (
{
closed = 1;
nodes = (
"132 545 OFFCURVE",
"33 321 OFFCURVE",
"-18 254 CURVE SMOOTH",
"-23 247 OFFCURVE",
"-18 241 OFFCURVE",
"-12 246 CURVE SMOOTH",
"3 260 OFFCURVE",
"33 309 OFFCURVE",
"68 377 CURVE",
"53 347 OFFCURVE",
"41 318 OFFCURVE",
"35 295 CURVE SMOOTH",
"21 241 OFFCURVE",
"53 197 OFFCURVE",
"138 220 CURVE SMOOTH",
"201 236 OFFCURVE",
"247 308 OFFCURVE",
"260 371 CURVE SMOOTH",
"270 419 OFFCURVE",
"255 468 OFFCURVE",
"200 476 CURVE SMOOTH",
"167 482 OFFCURVE",
"167 459 OFFCURVE",
"190 461 CURVE SMOOTH",
"237 466 OFFCURVE",
"238 418 OFFCURVE",
"218 368 CURVE SMOOTH",
"206 338 OFFCURVE",
"183 300 OFFCURVE",
"162 275 CURVE SMOOTH",
"136 244 OFFCURVE",
"115 229 OFFCURVE",
"98 233 CURVE SMOOTH",
"47 243 OFFCURVE",
"79 349 OFFCURVE",
"117 425 CURVE SMOOTH",
"167 524 OFFCURVE",
"255 647 OFFCURVE",
"282 675 CURVE",
"272 673 OFFCURVE",
"260 677 OFFCURVE",
"251 678 CURVE SMOOTH",
"247 678 LINE SMOOTH",
"230 679 OFFCURVE",
"215 668 OFFCURVE",
"197 641 CURVE SMOOTH"
);
}
);
width = 259;
}
);
note = b;
unicode = 0062;
},
{
glyphname = c;
lastChange = "2020-01-01 22:28:11 +0000";
layers = (
{
hints = (
{
horizontal = 1;
place = "{-3, 21}";
target = up;
type = BottomGhost;
},
{
horizontal = 1;
place = "{248, 17}";
type = Stem;
}
);
layerId = "61E7180A-0B32-4047-B910-001D8BB62225";
paths = (
{
closed = 1;
nodes = (
"260 367 OFFCURVE",
"250 371 OFFCURVE",
"243 357 CURVE SMOOTH",
"213 298 OFFCURVE",
"177 225 OFFCURVE",
"112 225 CURVE SMOOTH",
"80 225 OFFCURVE",
"68 253 OFFCURVE",
"68 283 CURVE SMOOTH",
"68 326 OFFCURVE",
"95 378 OFFCURVE",
"109 398 CURVE SMOOTH",
"130 428 OFFCURVE",
"162 462 OFFCURVE",
"189 462 CURVE SMOOTH",
"203 462 OFFCURVE",
"211 452 OFFCURVE",
"204 425 CURVE SMOOTH",
"200 412 OFFCURVE",
"189 397 OFFCURVE",
"181 387 CURVE",
"197 371 OFFCURVE",
"228 402 OFFCURVE",
"231 427 CURVE SMOOTH",
"235 458 OFFCURVE",
"217 479 OFFCURVE",
"179 479 CURVE SMOOTH",
"143 479 OFFCURVE",
"107 457 OFFCURVE",
"79 419 CURVE SMOOTH",
"25 347 OFFCURVE",
"-14 212 OFFCURVE",
"104 212 CURVE SMOOTH",
"187 212 OFFCURVE",
"217 274 OFFCURVE",
"254 352 CURVE SMOOTH"
);
}
);
width = 195;
}
);
note = c;
unicode = 0063;
},
{
glyphname = d;
lastChange = "2020-01-01 22:28:11 +0000";
layers = (
{
hints = (
{
horizontal = 1;
place = "{0, 20}";
type = Stem;
}
);
layerId = "61E7180A-0B32-4047-B910-001D8BB62225";
paths = (
{
closed = 1;
nodes = (
"403 680 OFFCURVE",
"392 683 OFFCURVE",
"382 684 CURVE SMOOTH",
"358 686 OFFCURVE",
"345 679 OFFCURVE",
"331 645 CURVE SMOOTH",
"313 605 OFFCURVE",
"280 536 OFFCURVE",
"244 467 CURVE",
"190 499 OFFCURVE",
"125 473 OFFCURVE",
"83 424 CURVE SMOOTH",
"28 358 OFFCURVE",
"-14 237 OFFCURVE",
"57 218 CURVE SMOOTH",
"109 204 OFFCURVE",
"144 264 OFFCURVE",
"167 301 CURVE",
"159 270 OFFCURVE",
"165 248 OFFCURVE",
"173 235 CURVE SMOOTH",
"183 221 OFFCURVE",
"195 215 OFFCURVE",
"207 215 CURVE SMOOTH",
"267 215 OFFCURVE",
"311 312 OFFCURVE",
"329 354 CURVE SMOOTH",
"335 369 OFFCURVE",
"323 372 OFFCURVE",
"317 359 CURVE SMOOTH",
"302 327 OFFCURVE",
"258 234 OFFCURVE",
"221 234 CURVE SMOOTH",
"185 234 OFFCURVE",
"209 297 OFFCURVE",
"216 314 CURVE SMOOTH",
"260 418 OFFCURVE",
"392 660 OFFCURVE",
"414 681 CURVE"
);
},
{
closed = 1;
nodes = (
"203 389 OFFCURVE",
"165 325 OFFCURVE",
"137 286 CURVE SMOOTH",
"74 196 OFFCURVE",
"29 242 OFFCURVE",
"78 335 CURVE SMOOTH",
"118 409 OFFCURVE",
"200 492 OFFCURVE",
"238 455 CURVE"
);
}
);
width = 275;
}
);
note = d;
unicode = 0064;
},
{
glyphname = e;
lastChange = "2020-01-01 22:28:11 +0000";
layers = (
{
hints = (
{
horizontal = 1;
place = "{-3, 16}";
type = Stem;
}
);
layerId = "61E7180A-0B32-4047-B910-001D8BB62225";
paths = (
{
closed = 1;
nodes = (
"246 371 OFFCURVE",
"231 369 OFFCURVE",
"225 356 CURVE SMOOTH",
"208 316 OFFCURVE",
"167 227 OFFCURVE",
"101 227 CURVE SMOOTH",
"52 227 OFFCURVE",
"65 303 OFFCURVE",
"76 330 CURVE",
"96 330 OFFCURVE",
"145 346 OFFCURVE",
"168 363 CURVE SMOOTH",
"216 400 OFFCURVE",
"238 451 OFFCURVE",
"209 473 CURVE SMOOTH",
"176 497 OFFCURVE",
"119 469 OFFCURVE",
"81 424 CURVE SMOOTH",
"48 385 OFFCURVE",
"23 329 OFFCURVE",
"23 284 CURVE SMOOTH",
"24 236 OFFCURVE",
"58 212 OFFCURVE",
"95 212 CURVE SMOOTH",
"179 212 OFFCURVE",
"211 295 OFFCURVE",
"239 355 CURVE SMOOTH"
);
},
{
closed = 1;
nodes = (
"134 353 OFFCURVE",
"95 343 OFFCURVE",
"81 343 CURVE",
"88 356 OFFCURVE",
"107 389 OFFCURVE",
"126 413 CURVE SMOOTH",
"218 525 OFFCURVE",
"222 428 OFFCURVE",
"161 376 CURVE SMOOTH"
);
}
);
width = 185;
}
);
note = e;
unicode = 0065;
},
{
glyphname = f;
lastChange = "2020-01-01 22:28:51 +0000";
layers = (
{
hints = (
{
horizontal = 1;
place = "{-1, 21}";
target = up;
type = BottomGhost;
},
{
horizontal = 1;
place = "{470, -20}";
target = down;
type = TopGhost;
}
);
layerId = "61E7180A-0B32-4047-B910-001D8BB62225";
paths = (
{
closed = 1;
nodes = (
"261 679 OFFCURVE",
"248 684 OFFCURVE",
"239 684 CURVE SMOOTH",
"208 684 OFFCURVE",
"192 664 OFFCURVE",
"176 632 CURVE SMOOTH",
"134 554 OFFCURVE",
"76 433 OFFCURVE",
"22 311 CURVE",
"12 313 OFFCURVE",
"2 309 OFFCURVE",
"-5 303 CURVE SMOOTH",
"-20 293 OFFCURVE",
"-26 260 OFFCURVE",
"-11 236 CURVE",
"-55 132 OFFCURVE",
"-89 41 OFFCURVE",
"-88 -8 CURVE SMOOTH",
"-87 -38 OFFCURVE",
"-70 -46 OFFCURVE",
"-49 -47 CURVE SMOOTH",
"32 -50 OFFCURVE",
"89 109 OFFCURVE",
"80 214 CURVE",
"134 214 OFFCURVE",
"175 293 OFFCURVE",
"203 356 CURVE SMOOTH",
"208 367 OFFCURVE",
"197 371 OFFCURVE",
"191 361 CURVE SMOOTH",
"167 308 OFFCURVE",
"124 225 OFFCURVE",
"79 228 CURVE",
"78 231 OFFCURVE",
"77 235 OFFCURVE",
"77 238 CURVE SMOOTH",
"71 264 OFFCURVE",
"62 282 OFFCURVE",
"53 294 CURVE",
"128 463 OFFCURVE",
"225 636 OFFCURVE",
"272 680 CURVE"
);
},
{
closed = 1;
nodes = (
"62 225 OFFCURVE",
"60 225 OFFCURVE",
"59 225 CURVE SMOOTH",
"45 225 OFFCURVE",
"33 231 OFFCURVE",
"29 239 CURVE",
"35 253 OFFCURVE",
"39 263 OFFCURVE",
"45 277 CURVE",
"49 272 OFFCURVE",
"53 266 OFFCURVE",
"56 259 CURVE SMOOTH",
"60 249 OFFCURVE",
"62 238 OFFCURVE",
"63 225 CURVE"
);
},
{
closed = 1;
nodes = (
"66 144 OFFCURVE",
"39 52 OFFCURVE",
"2 4 CURVE SMOOTH",
"-27 -35 OFFCURVE",
"-62 -50 OFFCURVE",
"-41 38 CURVE SMOOTH",
"-29 87 OFFCURVE",
"-5 157 OFFCURVE",
"21 223 CURVE",
"31 215 OFFCURVE",
"50 209 OFFCURVE",
"65 211 CURVE"
);
}
);
width = 149;
}
);
note = f;
unicode = 0066;
},
{
glyphname = g;
lastChange = "2020-01-01 22:28:51 +0000";
layers = (
{
hints = (
{
horizontal = 1;
place = "{-237, 15}";
type = Stem;
}
);
layerId = "61E7180A-0B32-4047-B910-001D8BB62225";
paths = (
{
closed = 1;
nodes = (
"355 368 OFFCURVE",
"343 372 OFFCURVE",
"336 359 CURVE SMOOTH",
"329 344 OFFCURVE",
"317 312 OFFCURVE",
"293 279 CURVE SMOOTH",
"278 259 OFFCURVE",
"258 243 OFFCURVE",
"240 230 CURVE",
"256 290 OFFCURVE",
"260 353 OFFCURVE",
"250 413 CURVE",
"238 404 OFFCURVE",
"214 417 OFFCURVE",
"203 383 CURVE SMOOTH",
"189 335 OFFCURVE",
"116 221 OFFCURVE",
"72 239 CURVE SMOOTH",
"33 257 OFFCURVE",
"75 347 OFFCURVE",
"130 409 CURVE SMOOTH",
"176 460 OFFCURVE",
"231 490 OFFCURVE",
"251 437 CURVE SMOOTH",
"259 414 OFFCURVE",
"285 437 OFFCURVE",
"259 458 CURVE SMOOTH",
"203 503 OFFCURVE",
"129 477 OFFCURVE",
"85 424 CURVE SMOOTH",
"29 358 OFFCURVE",
"-16 250 OFFCURVE",
"59 218 CURVE",
"119 200 OFFCURVE",
"179 301 OFFCURVE",
"203 347 CURVE",
"206 339 OFFCURVE",
"206 315 OFFCURVE",
"203 286 CURVE SMOOTH",
"200 256 OFFCURVE",
"194 229 OFFCURVE",
"185 203 CURVE",
"128 179 OFFCURVE",
"59 165 OFFCURVE",
"-14 122 CURVE SMOOTH",
"-50 101 OFFCURVE",
"-80 72 OFFCURVE",
"-80 35 CURVE SMOOTH",
"-80 -4 OFFCURVE",
"-56 -23 OFFCURVE",
"-9 -23 CURVE SMOOTH",
"100 -23 OFFCURVE",
"199 111 OFFCURVE",
"232 206 CURVE",
"287 232 OFFCURVE",
"309 274 OFFCURVE",
"347 353 CURVE SMOOTH"
);
},
{
closed = 1;
nodes = (
"167 155 OFFCURVE",
"153 131 OFFCURVE",
"135 105 CURVE SMOOTH",
"114 77 OFFCURVE",
"91 50 OFFCURVE",
"68 32 CURVE SMOOTH",
"50 18 OFFCURVE",
"5 -8 OFFCURVE",
"-27 -8 CURVE SMOOTH",
"-89 -8 OFFCURVE",
"-62 68 OFFCURVE",
"-14 100 CURVE SMOOTH",
"34 131 OFFCURVE",
"97 153 OFFCURVE",
"152 172 CURVE SMOOTH",
"161 175 OFFCURVE",
"170 178 OFFCURVE",
"178 181 CURVE"
);
}
);
width = 294;
}
);
note = g;
unicode = 0067;
},
{
glyphname = h;
lastChange = "2020-01-01 22:28:51 +0000";
layers = (
{
hints = (
{
horizontal = 1;
place = "{-3, 16}";
type = Stem;
},
{
horizontal = 1;
place = "{-5, 21}";
target = up;
type = BottomGhost;
},
{
horizontal = 1;
place = "{-1, 21}";
target = up;
type = BottomGhost;
}
);
layerId = "61E7180A-0B32-4047-B910-001D8BB62225";
paths = (
{
closed = 1;
nodes = (
"309 368 OFFCURVE",
"298 373 OFFCURVE",
"291 359 CURVE SMOOTH",
"275 327 OFFCURVE",
"224 225 OFFCURVE",
"190 227 CURVE SMOOTH",
"180 228 OFFCURVE",
"173 236 OFFCURVE",
"179 267 CURVE SMOOTH",
"188 320 OFFCURVE",
"269 461 OFFCURVE",
"269 461 CURVE",
"243 470 OFFCURVE",
"166 422 OFFCURVE",
"130 390 CURVE SMOOTH",
"110 373 OFFCURVE",
"89 350 OFFCURVE",
"69 324 CURVE",
"131 449 OFFCURVE",
"228 633 OFFCURVE",
"261 667 CURVE",
"251 665 OFFCURVE",
"239 669 OFFCURVE",
"230 670 CURVE SMOOTH",
"206 671 OFFCURVE",
"194 654 OFFCURVE",
"176 623 CURVE SMOOTH",
"104 488 OFFCURVE",
"31 335 OFFCURVE",
"-30 209 CURVE",
"-23 214 OFFCURVE",
"-16 213 OFFCURVE",
"-5 214 CURVE SMOOTH",
"11 214 OFFCURVE",
"18 215 OFFCURVE",
"23 225 CURVE SMOOTH",
"66 308 OFFCURVE",
"103 350 OFFCURVE",
"128 374 CURVE SMOOTH",
"186 428 OFFCURVE",
"200 407 OFFCURVE",
"182 378 CURVE SMOOTH",
"161 344 OFFCURVE",
"146 319 OFFCURVE",
"140 299 CURVE SMOOTH",
"118 230 OFFCURVE",
"154 212 OFFCURVE",
"180 212 CURVE SMOOTH",
"236 212 OFFCURVE",
"277 300 OFFCURVE",
"302 352 CURVE SMOOTH"
);
}
);
width = 249;
}
);
note = h;
unicode = 0068;
},
{
glyphname = i;
lastChange = "2020-01-01 22:28:51 +0000";
layers = (
{
hints = (
{
horizontal = 1;
place = "{0, 21}";
target = up;
type = BottomGhost;
},
{
horizontal = 1;
place = "{283, 62}";
type = Stem;
}
);
layerId = "61E7180A-0B32-4047-B910-001D8BB62225";
paths = (
{
closed = 1;
nodes = (
"161 545 OFFCURVE",
"149 559 OFFCURVE",
"132 559 CURVE SMOOTH",
"116 559 OFFCURVE",
"99 545 OFFCURVE",
"96 528 CURVE SMOOTH",
"94 511 OFFCURVE",
"105 497 OFFCURVE",
"122 497 CURVE SMOOTH",
"140 497 OFFCURVE",
"155 511 OFFCURVE",
"158 528 CURVE SMOOTH"
);
},
{
closed = 1;
nodes = (
"54 284 OFFCURVE",
"62 300 OFFCURVE",
"62 300 CURVE",
"122 440 LINE SMOOTH",
"130 458 OFFCURVE",
"130 467 OFFCURVE",
"106 467 CURVE SMOOTH",
"65 466 LINE",
"68 462 OFFCURVE",
"78 449 OFFCURVE",
"72 434 CURVE SMOOTH",
"24 312 LINE SMOOTH",
"8 273 OFFCURVE",
"8 215 OFFCURVE",
"65 215 CURVE SMOOTH",
"120 215 OFFCURVE",
"163 310 OFFCURVE",
"182 352 CURVE SMOOTH",
"189 367 OFFCURVE",
"179 372 OFFCURVE",
"173 359 CURVE SMOOTH",
"152 317 OFFCURVE",
"127 270 OFFCURVE",
"102 245 CURVE SMOOTH",
"94 238 OFFCURVE",
"80 230 OFFCURVE",
"68 231 CURVE SMOOTH",
"47 233 OFFCURVE",
"46 254 OFFCURVE",
"53 278 CURVE SMOOTH"
);
}
);
width = 131;
}
);
leftKerningGroup = i;
note = i;
unicode = 0069;
},
{
glyphname = j;
lastChange = "2020-01-01 22:28:51 +0000";
layers = (
{
hints = (
{
horizontal = 1;
place = "{-237, 15}";
type = Stem;
},
{
horizontal = 1;
place = "{283, 62}";
type = Stem;
}
);
layerId = "61E7180A-0B32-4047-B910-001D8BB62225";
paths = (
{
closed = 1;
nodes = (
"32 310 OFFCURVE",
"10 264 OFFCURVE",
"-8 228 CURVE SMOOTH",
"-15 214 OFFCURVE",
"-24 199 OFFCURVE",
"-32 185 CURVE",
"-93 167 OFFCURVE",
"-164 155 OFFCURVE",
"-215 131 CURVE SMOOTH",
"-244 117 OFFCURVE",
"-271 97 OFFCURVE",
"-285 69 CURVE SMOOTH",
"-308 27 OFFCURVE",
"-300 -23 OFFCURVE",
"-225 -23 CURVE SMOOTH",
"-114 -23 OFFCURVE",
"-40 92 OFFCURVE",
"8 177 CURVE",
"116 216 OFFCURVE",
"135 248 OFFCURVE",
"186 353 CURVE SMOOTH",
"194 368 OFFCURVE",
"182 373 OFFCURVE",
"176 359 CURVE SMOOTH",
"168 345 OFFCURVE",
"155 314 OFFCURVE",
"131 279 CURVE SMOOTH",
"97 230 OFFCURVE",
"65 218 OFFCURVE",
"20 201 CURVE",
"37 234 OFFCURVE",
"53 267 OFFCURVE",
"67 300 CURVE SMOOTH",
"127 440 LINE SMOOTH",
"135 458 OFFCURVE",
"135 467 OFFCURVE",
"111 467 CURVE SMOOTH",
"70 466 LINE",
"73 462 OFFCURVE",
"84 448 OFFCURVE",
"77 434 CURVE SMOOTH",
"38 348 LINE SMOOTH",
"33 338 OFFCURVE",
"40 336 OFFCURVE",
"44 336 CURVE"
);
},
{
closed = 1;
nodes = (
"-52 151 OFFCURVE",
"-57 141 OFFCURVE",
"-63 133 CURVE SMOOTH",
"-97 86 OFFCURVE",
"-177 -8 OFFCURVE",
"-243 -8 CURVE SMOOTH",
"-307 -8 OFFCURVE",
"-279 81 OFFCURVE",
"-202 114 CURVE SMOOTH",
"-159 133 OFFCURVE",
"-95 148 OFFCURVE",
"-47 161 CURVE"
);
},
{
closed = 1;
nodes = (
"161 545 OFFCURVE",
"149 559 OFFCURVE",
"132 559 CURVE SMOOTH",
"116 559 OFFCURVE",
"99 545 OFFCURVE",
"96 528 CURVE SMOOTH",
"94 511 OFFCURVE",
"105 497 OFFCURVE",
"122 497 CURVE SMOOTH",
"140 497 OFFCURVE",
"155 511 OFFCURVE",
"158 528 CURVE SMOOTH"
);
}
);
width = 133;
}
);
note = j;
unicode = 006A;
},
{
glyphname = k;
lastChange = "2020-01-01 22:28:51 +0000";
layers = (
{
hints = (
{
horizontal = 1;
place = "{0, 21}";
target = up;
type = BottomGhost;
},
{
horizontal = 1;
place = "{464, -20}";
target = down;
type = TopGhost;
}
);
layerId = "61E7180A-0B32-4047-B910-001D8BB62225";
paths = (
{
closed = 1;
nodes = (
"132 545 OFFCURVE",
"33 321 OFFCURVE",
"-18 254 CURVE SMOOTH",
"-23 247 OFFCURVE",
"-18 239 OFFCURVE",
"-12 244 CURVE SMOOTH",
"3 258 OFFCURVE",
"33 312 OFFCURVE",
"68 377 CURVE",
"45 326 OFFCURVE",
"20 283 OFFCURVE",
"6 231 CURVE SMOOTH",
"3 221 OFFCURVE",
"2 215 OFFCURVE",
"12 215 CURVE SMOOTH",
"25 215 OFFCURVE",
"45 215 OFFCURVE",
"59 215 CURVE",
"47 225 OFFCURVE",
"67 306 OFFCURVE",
"80 332 CURVE",
"101 360 OFFCURVE",
"122 383 OFFCURVE",
"142 400 CURVE SMOOTH",
"228 473 OFFCURVE",
"261 421 OFFCURVE",
"214 383 CURVE SMOOTH",
"197 368 OFFCURVE",
"171 359 OFFCURVE",
"155 360 CURVE",
"138 359 OFFCURVE",
"110 323 OFFCURVE",
"119 274 CURVE SMOOTH",
"127 235 OFFCURVE",
"150 213 OFFCURVE",
"177 210 CURVE SMOOTH",
"221 206 OFFCURVE",
"267 218 OFFCURVE",
"326 354 CURVE SMOOTH",
"332 366 OFFCURVE",
"323 373 OFFCURVE",
"317 361 CURVE SMOOTH",
"296 317 OFFCURVE",
"275 278 OFFCURVE",
"256 258 CURVE SMOOTH",
"187 185 OFFCURVE",
"139 278 OFFCURVE",
"167 348 CURVE",
"200 351 OFFCURVE",
"221 362 OFFCURVE",
"243 377 CURVE SMOOTH",
"300 418 OFFCURVE",
"309 502 OFFCURVE",
"212 466 CURVE SMOOTH",
"169 449 OFFCURVE",
"122 400 OFFCURVE",
"90 361 CURVE",
"98 383 OFFCURVE",
"107 405 OFFCURVE",
"117 425 CURVE SMOOTH",
"167 524 OFFCURVE",
"244 646 OFFCURVE",
"282 675 CURVE",
"272 673 OFFCURVE",
"260 677 OFFCURVE",
"251 678 CURVE SMOOTH",
"247 678 LINE SMOOTH",
"230 679 OFFCURVE",
"215 668 OFFCURVE",
"197 641 CURVE SMOOTH"
);
}
);
width = 272;
}
);
note = k;
unicode = 006B;
},
{
glyphname = l;
lastChange = "2020-01-01 22:28:51 +0000";
layers = (
{
hints = (
{
horizontal = 1;
place = "{-2, 21}";
target = up;
type = BottomGhost;
}
);
layerId = "61E7180A-0B32-4047-B910-001D8BB62225";
paths = (
{
closed = 1;
nodes = (
"292 704 OFFCURVE",
"211 715 OFFCURVE",
"158 626 CURVE SMOOTH",
"114 553 OFFCURVE",
"67 445 OFFCURVE",
"44 361 CURVE SMOOTH",
"31 316 OFFCURVE",
"-5 213 OFFCURVE",
"79 213 CURVE SMOOTH",
"155 213 OFFCURVE",
"194 314 OFFCURVE",
"212 354 CURVE SMOOTH",
"219 369 OFFCURVE",
"208 371 OFFCURVE",
"201 358 CURVE SMOOTH",
"191 338 OFFCURVE",
"170 298 OFFCURVE",
"146 263 CURVE SMOOTH",
"106 207 OFFCURVE",
"46 220 OFFCURVE",
"68 310 CURVE SMOOTH",
"73 329 OFFCURVE",
"80 347 OFFCURVE",
"84 359 CURVE",
"158 426 OFFCURVE",
"203 507 OFFCURVE",
"238 584 CURVE SMOOTH"
);
},
{
closed = 1;
nodes = (
"197 526 OFFCURVE",
"143 437 OFFCURVE",
"90 383 CURVE",
"113 443 OFFCURVE",
"172 578 OFFCURVE",
"209 629 CURVE SMOOTH",
"249 687 OFFCURVE",
"242 630 OFFCURVE",
"227 596 CURVE SMOOTH"
);
}
);
width = 159;
}
);
note = l;
unicode = 006C;
},
{
glyphname = m;
lastChange = "2020-01-01 22:28:51 +0000";
layers = (
{
hints = (
{
horizontal = 1;
place = "{-3, 18}";
type = Stem;
},
{
horizontal = 1;
place = "{-4, 21}";
target = up;
type = BottomGhost;
},
{
horizontal = 1;
place = "{0, 21}";
target = up;
type = BottomGhost;
}
);
layerId = "61E7180A-0B32-4047-B910-001D8BB62225";
paths = (
{
closed = 1;
nodes = (
"441 368 OFFCURVE",
"429 373 OFFCURVE",
"423 359 CURVE SMOOTH",
"407 325 OFFCURVE",
"359 230 OFFCURVE",
"320 230 CURVE SMOOTH",
"311 230 OFFCURVE",
"302 236 OFFCURVE",
"308 267 CURVE SMOOTH",
"318 320 OFFCURVE",
"398 461 OFFCURVE",
"398 461 CURVE",
"373 470 OFFCURVE",
"295 422 OFFCURVE",
"259 390 CURVE SMOOTH",
"236 370 OFFCURVE",
"212 341 OFFCURVE",
"197 323 CURVE",
"215 359 OFFCURVE",
"238 396 OFFCURVE",
"251 428 CURVE SMOOTH",
"258 443 OFFCURVE",
"254 455 OFFCURVE",
"240 461 CURVE SMOOTH",
"215 470 OFFCURVE",
"167 422 OFFCURVE",
"131 390 CURVE SMOOTH",
"107 370 OFFCURVE",
"83 341 OFFCURVE",
"68 323 CURVE",
"95 377 OFFCURVE",
"137 452 OFFCURVE",
"159 464 CURVE",
"149 461 OFFCURVE",
"137 466 OFFCURVE",
"128 467 CURVE SMOOTH",
"104 468 OFFCURVE",
"94 455 OFFCURVE",
"74 419 CURVE SMOOTH",
"38 352 OFFCURVE",
"8 282 OFFCURVE",
"-28 211 CURVE",
"-20 215 OFFCURVE",
"-14 215 OFFCURVE",
"-3 215 CURVE SMOOTH",
"14 215 OFFCURVE",
"20 216 OFFCURVE",
"26 227 CURVE SMOOTH",
"68 310 OFFCURVE",
"104 350 OFFCURVE",
"129 374 CURVE SMOOTH",
"208 447 OFFCURVE",
"184 392 OFFCURVE",
"159 341 CURVE SMOOTH",
"146 314 OFFCURVE",
"133 289 OFFCURVE",
"128 256 CURVE SMOOTH",
"124 234 OFFCURVE",
"134 215 OFFCURVE",
"152 215 CURVE",
"161 260 OFFCURVE",
"225 344 OFFCURVE",
"257 374 CURVE SMOOTH",
"315 428 OFFCURVE",
"329 407 OFFCURVE",
"311 378 CURVE SMOOTH",
"290 344 OFFCURVE",
"275 319 OFFCURVE",
"269 299 CURVE SMOOTH",
"247 230 OFFCURVE",
"283 212 OFFCURVE",
"310 212 CURVE SMOOTH",
"367 212 OFFCURVE",
"411 307 OFFCURVE",
"434 353 CURVE SMOOTH"
);
}
);
width = 380;
}
);
note = m;
unicode = 006D;
},
{
glyphname = n;
lastChange = "2020-01-01 22:28:51 +0000";
layers = (
{
hints = (
{
horizontal = 1;
place = "{-1, 21}";
target = up;
type = BottomGhost;
},
{
horizontal = 1;
place = "{-5, 21}";
target = up;
type = BottomGhost;
},
{
horizontal = 1;
place = "{-3, 18}";
type = Stem;
}
);
layerId = "61E7180A-0B32-4047-B910-001D8BB62225";
paths = (
{
closed = 1;
nodes = (
"312 368 OFFCURVE",
"300 373 OFFCURVE",
"294 359 CURVE SMOOTH",
"278 328 OFFCURVE",
"230 230 OFFCURVE",
"191 230 CURVE SMOOTH",
"182 230 OFFCURVE",
"173 236 OFFCURVE",
"179 267 CURVE SMOOTH",
"189 320 OFFCURVE",
"269 461 OFFCURVE",
"269 461 CURVE",
"244 470 OFFCURVE",
"167 422 OFFCURVE",
"131 390 CURVE SMOOTH",
"107 370 OFFCURVE",
"83 341 OFFCURVE",
"68 323 CURVE",
"95 377 OFFCURVE",
"137 452 OFFCURVE",
"159 464 CURVE",
"149 461 OFFCURVE",
"137 466 OFFCURVE",
"128 467 CURVE SMOOTH",
"104 468 OFFCURVE",
"94 455 OFFCURVE",
"74 419 CURVE SMOOTH",
"38 352 OFFCURVE",
"7 281 OFFCURVE",
"-29 209 CURVE",
"-22 214 OFFCURVE",
"-15 213 OFFCURVE",
"-4 214 CURVE SMOOTH",
"12 214 OFFCURVE",
"19 215 OFFCURVE",
"25 225 CURVE SMOOTH",
"67 308 OFFCURVE",
"104 350 OFFCURVE",
"129 374 CURVE SMOOTH",
"187 428 OFFCURVE",
"200 407 OFFCURVE",
"182 378 CURVE SMOOTH",
"161 344 OFFCURVE",
"147 319 OFFCURVE",
"141 299 CURVE SMOOTH",
"119 230 OFFCURVE",
"155 212 OFFCURVE",
"181 212 CURVE SMOOTH",
"239 212 OFFCURVE",
"282 307 OFFCURVE",
"305 353 CURVE SMOOTH"
);
}
);
width = 251;
}
);
note = n;
unicode = 006E;
},
{
glyphname = o;
lastChange = "2020-01-01 22:28:51 +0000";
layers = (
{
hints = (
{
horizontal = 1;
place = "{0, 19}";
type = Stem;
},
{
horizontal = 1;
place = "{0, 105}";
type = Stem;
}
);
layerId = "61E7180A-0B32-4047-B910-001D8BB62225";
paths = (
{
closed = 1;
nodes = (
"311 367 OFFCURVE",
"299 370 OFFCURVE",
"295 362 CURVE SMOOTH",
"277 326 OFFCURVE",
"238 233 OFFCURVE",
"190 233 CURVE SMOOTH",
"172 233 OFFCURVE",
"161 241 OFFCURVE",
"155 252 CURVE",
"183 279 OFFCURVE",
"206 314 OFFCURVE",
"218 341 CURVE SMOOTH",
"246 407 OFFCURVE",
"238 476 OFFCURVE",
"181 477 CURVE SMOOTH",
"130 479 OFFCURVE",
"68 420 OFFCURVE",
"38 351 CURVE SMOOTH",
"10 284 OFFCURVE",
"18 216 OFFCURVE",
"75 215 CURVE SMOOTH",
"97 214 OFFCURVE",
"119 224 OFFCURVE",
"140 240 CURVE",
"150 229 OFFCURVE",
"166 221 OFFCURVE",
"188 221 CURVE SMOOTH",
"251 221 OFFCURVE",
"293 327 OFFCURVE",
"306 356 CURVE SMOOTH"
);
},
{
closed = 1;
nodes = (
"224 444 OFFCURVE",
"220 391 OFFCURVE",
"191 329 CURVE SMOOTH",
"184 315 OFFCURVE",
"176 301 OFFCURVE",
"167 289 CURVE",
"168 292 OFFCURVE",
"169 294 OFFCURVE",
"169 297 CURVE SMOOTH",
"169 309 OFFCURVE",
"159 320 OFFCURVE",
"146 320 CURVE SMOOTH",
"128 320 OFFCURVE",
"121 305 OFFCURVE",
"120 287 CURVE SMOOTH",
"120 276 OFFCURVE",
"124 263 OFFCURVE",
"132 251 CURVE",
"114 236 OFFCURVE",
"95 228 OFFCURVE",
"81 232 CURVE SMOOTH",
"54 240 OFFCURVE",
"61 293 OFFCURVE",
"90 354 CURVE SMOOTH",
"118 413 OFFCURVE",
"164 461 OFFCURVE",
"197 452 CURVE SMOOTH"
);
}
);
width = 251;
}
);
note = o;
unicode = 006F;
},
{
glyphname = p;
lastChange = "2020-01-01 22:28:51 +0000";
layers = (
{
hints = (
{
horizontal = 1;
place = "{16, 9}";
type = Stem;
},
{
place = "{53, 11}";
type = Stem;
},
{
place = "{117, 114}";
type = Stem;
}
);
layerId = "61E7180A-0B32-4047-B910-001D8BB62225";
paths = (
{
closed = 1;
nodes = (
"179 491 OFFCURVE",
"119 388 OFFCURVE",
"96 351 CURVE",
"106 377 OFFCURVE",
"116 416 OFFCURVE",
"117 441 CURVE SMOOTH",
"119 478 OFFCURVE",
"112 474 OFFCURVE",
"90 472 CURVE SMOOTH",
"84 471 OFFCURVE",
"53 466 OFFCURVE",
"53 466 CURVE",
"71 462 OFFCURVE",
"63 405 OFFCURVE",
"49 372 CURVE SMOOTH",
"45 363 OFFCURVE",
"38 346 OFFCURVE",
"34 338 CURVE SMOOTH",
"29 328 OFFCURVE",
"43 332 OFFCURVE",
"51 345 CURVE",
"38 277 OFFCURVE",
"-90 33 OFFCURVE",
"-109 15 CURVE",
"-98 17 OFFCURVE",
"-87 12 OFFCURVE",
"-77 11 CURVE SMOOTH",
"-53 10 OFFCURVE",
"-42 18 OFFCURVE",
"-27 50 CURVE",
"44 228 LINE",
"98 197 OFFCURVE",
"164 222 OFFCURVE",
"205 272 CURVE SMOOTH",
"260 338 OFFCURVE",
"302 458 OFFCURVE",
"230 477 CURVE SMOOTH"
);
},
{
closed = 1;
nodes = (
"170 286 OFFCURVE",
"87 203 OFFCURVE",
"50 239 CURVE",
"86 305 OFFCURVE",
"122 371 OFFCURVE",
"151 410 CURVE SMOOTH",
"215 499 OFFCURVE",
"260 452 OFFCURVE",
"210 360 CURVE SMOOTH"
);
}
);
width = 252;
}
);
note = p;
unicode = 0070;
},
{
glyphname = q;
lastChange = "2020-01-01 22:28:51 +0000";
layers = (
{
hints = (
{
horizontal = 1;
place = "{-215, 21}";
target = up;
type = BottomGhost;
}
);
layerId = "61E7180A-0B32-4047-B910-001D8BB62225";
paths = (
{
closed = 1;
nodes = (
"264 403 OFFCURVE",
"252 407 OFFCURVE",
"243 407 CURVE SMOOTH",
"224 409 OFFCURVE",
"217 403 OFFCURVE",
"197 370 CURVE SMOOTH",
"178 338 OFFCURVE",
"112 222 OFFCURVE",
"72 239 CURVE SMOOTH",
"1 271 OFFCURVE",
"208 553 OFFCURVE",
"251 437 CURVE SMOOTH",
"259 414 OFFCURVE",
"285 437 OFFCURVE",
"258 458 CURVE SMOOTH",
"203 503 OFFCURVE",
"129 477 OFFCURVE",
"85 424 CURVE SMOOTH",
"29 358 OFFCURVE",
"-16 250 OFFCURVE",
"59 218 CURVE",
"91 208 OFFCURVE",
"121 232 OFFCURVE",
"142 257 CURVE SMOOTH",
"149 266 OFFCURVE",
"190 325 OFFCURVE",
"194 333 CURVE",
"163 263 OFFCURVE",
"142 233 OFFCURVE",
"81 93 CURVE SMOOTH",
"66 60 OFFCURVE",
"60 40 OFFCURVE",
"77 22 CURVE SMOOTH",
"83 15 OFFCURVE",
"93 8 OFFCURVE",
"98 -1 CURVE",
"105 46 OFFCURVE",
"217 316 OFFCURVE",
"275 404 CURVE"
);
}
);
width = 257;
}
);
note = q;
unicode = 0071;
},
{
glyphname = r;
lastChange = "2020-01-01 22:28:51 +0000";
layers = (
{
hints = (
{
horizontal = 1;
place = "{152, -20}";
target = down;
type = TopGhost;
},
{
horizontal = 1;
place = "{219, 21}";
type = Stem;
},
{
place = "{88, 44}";
type = Stem;
}
);
layerId = "61E7180A-0B32-4047-B910-001D8BB62225";
paths = (
{
closed = 1;
nodes = (
"255 367 OFFCURVE",
"245 372 OFFCURVE",
"239 359 CURVE SMOOTH",
"223 327 OFFCURVE",
"176 233 OFFCURVE",
"146 234 CURVE SMOOTH",
"101 236 OFFCURVE",
"177 374 OFFCURVE",
"188 397 CURVE SMOOTH",
"197 416 OFFCURVE",
"209 444 OFFCURVE",
"204 455 CURVE",
"167 451 OFFCURVE",
"128 450 OFFCURVE",
"101 452 CURVE",
"113 461 OFFCURVE",
"137 481 OFFCURVE",
"142 502 CURVE SMOOTH",
"152 552 OFFCURVE",
"104 571 OFFCURVE",
"96 529 CURVE SMOOTH",
"81 445 OFFCURVE",
"40 332 OFFCURVE",
"-20 254 CURVE SMOOTH",
"-24 247 OFFCURVE",
"-20 239 OFFCURVE",
"-14 244 CURVE SMOOTH",
"23 279 OFFCURVE",
"59 362 OFFCURVE",
"77 410 CURVE SMOOTH",
"86 434 LINE",
"128 433 OFFCURVE",
"155 423 OFFCURVE",
"144 398 CURVE SMOOTH",
"136 380 OFFCURVE",
"109 341 OFFCURVE",
"98 310 CURVE SMOOTH",
"68 232 OFFCURVE",
"113 209 OFFCURVE",
"139 215 CURVE SMOOTH",
"188 227 OFFCURVE",
"226 307 OFFCURVE",
"248 352 CURVE SMOOTH"
);
}
);
width = 195;
}
);
note = r;
unicode = 0072;
},
{
glyphname = s;
lastChange = "2020-01-01 22:28:51 +0000";
layers = (
{
hints = (
{
horizontal = 1;
place = "{-3, 106}";
type = Stem;
},
{
place = "{114, 46}";
type = Stem;
},
{
place = "{50, 65}";
type = Stem;
}
);
layerId = "61E7180A-0B32-4047-B910-001D8BB62225";
paths = (
{
closed = 1;
nodes = (
"251 364 OFFCURVE",
"239 368 OFFCURVE",
"236 361 CURVE SMOOTH",
"220 330 OFFCURVE",
"197 284 OFFCURVE",
"179 263 CURVE SMOOTH",
"161 240 OFFCURVE",
"137 224 OFFCURVE",
"112 228 CURVE SMOOTH",
"107 229 LINE",
"136 248 OFFCURVE",
"158 283 OFFCURVE",
"160 312 CURVE SMOOTH",
"161 345 OFFCURVE",
"145 372 OFFCURVE",
"133 401 CURVE SMOOTH",
"122 428 OFFCURVE",
"114 479 OFFCURVE",
"149 496 CURVE SMOOTH",
"156 500 OFFCURVE",
"165 498 OFFCURVE",
"173 495 CURVE SMOOTH",
"186 488 OFFCURVE",
"189 501 OFFCURVE",
"176 508 CURVE SMOOTH",
"168 512 OFFCURVE",
"159 513 OFFCURVE",
"148 512 CURVE SMOOTH",
"122 508 OFFCURVE",
"99 476 OFFCURVE",
"86 447 CURVE SMOOTH",
"66 404 OFFCURVE",
"41 356 OFFCURVE",
"21 317 CURVE",
"-15 316 OFFCURVE",
"-32 212 OFFCURVE",
"59 212 CURVE SMOOTH",
"68 212 OFFCURVE",
"79 215 OFFCURVE",
"89 219 CURVE",
"174 194 OFFCURVE",
"219 294 OFFCURVE",
"247 356 CURVE SMOOTH"
);
},
{
closed = 1;
nodes = (
"112 272 OFFCURVE",
"98 247 OFFCURVE",
"81 234 CURVE",
"64 242 OFFCURVE",
"48 263 OFFCURVE",
"50 292 CURVE SMOOTH",
"50 317 OFFCURVE",
"34 316 OFFCURVE",
"34 316 CURVE",
"52 349 OFFCURVE",
"84 414 OFFCURVE",
"104 455 CURVE",
"98 421 OFFCURVE",
"116 359 OFFCURVE",
"114 312 CURVE SMOOTH"
);
},
{
closed = 1;
nodes = (
"64 225 OFFCURVE",
"59 224 OFFCURVE",
"53 224 CURVE SMOOTH",
"24 224 OFFCURVE",
"14 260 OFFCURVE",
"38 284 CURVE",
"40 255 OFFCURVE",
"53 237 OFFCURVE",
"68 227 CURVE"
);
}
);
width = 192;
}
);
leftKerningGroup = s;
note = s;
unicode = 0073;
},
{
glyphname = t;
lastChange = "2020-01-01 22:28:51 +0000";
layers = (
{
hints = (
{
horizontal = 1;
place = "{269, 17}";
type = Stem;
}
);
layerId = "61E7180A-0B32-4047-B910-001D8BB62225";
paths = (
{
closed = 1;
nodes = (
"191 500 LINE",
"203 521 OFFCURVE",
"213 542 OFFCURVE",
"224 564 CURVE SMOOTH",
"279 684 OFFCURVE",
"198 697 OFFCURVE",
"146 606 CURVE SMOOTH",
"128 574 OFFCURVE",
"109 537 OFFCURVE",
"92 500 CURVE",
"47 500 LINE SMOOTH",
"38 500 OFFCURVE",
"37 483 OFFCURVE",
"45 483 CURVE SMOOTH",
"84 483 LINE",
"60 425 OFFCURVE",
"32 343 OFFCURVE",
"26 292 CURVE SMOOTH",
"14 209 OFFCURVE",
"89 197 OFFCURVE",
"129 236 CURVE SMOOTH",
"157 263 OFFCURVE",
"170 284 OFFCURVE",
"203 353 CURVE SMOOTH",
"210 368 OFFCURVE",
"199 371 OFFCURVE",
"193 357 CURVE SMOOTH",
"173 317 OFFCURVE",
"148 269 OFFCURVE",
"113 244 CURVE SMOOTH",
"89 226 OFFCURVE",
"54 233 OFFCURVE",
"65 283 CURVE",
"65 283 OFFCURVE",
"76 340 OFFCURVE",
"83 359 CURVE",
"127 400 OFFCURVE",
"157 440 OFFCURVE",
"182 483 CURVE",
"226 483 LINE SMOOTH",
"233 483 OFFCURVE",
"235 500 OFFCURVE",
"227 500 CURVE SMOOTH"
);
},
{
closed = 1;
nodes = (
"202 551 OFFCURVE",
"189 525 OFFCURVE",
"175 500 CURVE",
"137 500 LINE",
"156 542 OFFCURVE",
"173 584 OFFCURVE",
"191 609 CURVE SMOOTH",
"237 674 OFFCURVE",
"227 608 OFFCURVE",
"212 576 CURVE SMOOTH"
);
},
{
closed = 1;
nodes = (
"165 483 LINE",
"143 447 OFFCURVE",
"118 413 OFFCURVE",
"89 383 CURVE",
"100 410 OFFCURVE",
"114 446 OFFCURVE",
"130 483 CURVE"
);
}
);
width = 150;
}
);
note = t;
unicode = 0074;
},
{
glyphname = u;
lastChange = "2020-01-01 22:28:51 +0000";
layers = (
{
hints = (
{
horizontal = 1;
place = "{1, 19}";
type = Stem;
},
{
horizontal = 1;
place = "{258, -20}";
target = down;
type = TopGhost;
}
);
layerId = "61E7180A-0B32-4047-B910-001D8BB62225";
paths = (
{
closed = 1;
nodes = (
"329 368 OFFCURVE",
"317 373 OFFCURVE",
"311 359 CURVE SMOOTH",
"285 305 OFFCURVE",
"248 234 OFFCURVE",
"211 234 CURVE SMOOTH",
"200 235 OFFCURVE",
"190 247 OFFCURVE",
"197 279 CURVE SMOOTH",
"201 305 OFFCURVE",
"226 356 OFFCURVE",
"247 398 CURVE SMOOTH",
"269 445 OFFCURVE",
"277 455 OFFCURVE",
"299 473 CURVE",
"296 473 OFFCURVE",
"278 473 OFFCURVE",
"258 473 CURVE SMOOTH",
"244 473 OFFCURVE",
"235 469 OFFCURVE",
"229 457 CURVE SMOOTH",
"200 398 OFFCURVE",
"159 310 OFFCURVE",
"117 261 CURVE SMOOTH",
"68 205 OFFCURVE",
"37 235 OFFCURVE",
"73 313 CURVE SMOOTH",
"86 341 OFFCURVE",
"120 410 OFFCURVE",
"120 410 CURVE",
"140 451 OFFCURVE",
"151 460 OFFCURVE",
"168 473 CURVE",
"165 473 OFFCURVE",
"143 473 OFFCURVE",
"122 473 CURVE SMOOTH",
"108 473 OFFCURVE",
"99 469 OFFCURVE",
"93 457 CURVE SMOOTH",
"82 434 OFFCURVE",
"66 403 OFFCURVE",
"51 374 CURVE SMOOTH",
"47 365 OFFCURVE",
"42 356 OFFCURVE",
"38 348 CURVE SMOOTH",
"33 338 OFFCURVE",
"40 336 OFFCURVE",
"44 336 CURVE",
"31 309 OFFCURVE",
"12 281 OFFCURVE",
"19 249 CURVE SMOOTH",
"25 221 OFFCURVE",
"51 215 OFFCURVE",
"66 215 CURVE SMOOTH",
"103 215 OFFCURVE",
"142 266 OFFCURVE",
"167 311 CURVE",
"148 251 OFFCURVE",
"168 215 OFFCURVE",
"202 215 CURVE SMOOTH",
"257 215 OFFCURVE",
"297 302 OFFCURVE",
"321 353 CURVE SMOOTH"
);
}
);
width = 268;
}
);
note = u;
rightKerningGroup = u;
unicode = 0075;
},
{
glyphname = v;
lastChange = "2020-01-01 22:28:51 +0000";
layers = (
{
hints = (
{
horizontal = 1;
place = "{252, 22}";
type = Stem;
},
{
place = "{28, 40}";
type = Stem;
},
{
place = "{173, 70}";
type = Stem;
},
{
place = "{64, 52}";
type = Stem;
}
);
layerId = "61E7180A-0B32-4047-B910-001D8BB62225";
paths = (
{
closed = 1;
nodes = (
"254 500 OFFCURVE",
"197 500 OFFCURVE",
"176 433 CURVE SMOOTH",
"170 413 OFFCURVE",
"172 381 OFFCURVE",
"182 358 CURVE",
"152 284 OFFCURVE",
"112 221 OFFCURVE",
"76 236 CURVE SMOOTH",
"56 245 OFFCURVE",
"75 301 OFFCURVE",
"94 350 CURVE SMOOTH",
"104 375 OFFCURVE",
"115 416 OFFCURVE",
"116 441 CURVE SMOOTH",
"117 478 OFFCURVE",
"110 474 OFFCURVE",
"89 472 CURVE SMOOTH",
"83 471 OFFCURVE",
"52 466 OFFCURVE",
"52 466 CURVE",
"72 461 OFFCURVE",
"65 402 OFFCURVE",
"50 373 CURVE SMOOTH",
"45 364 OFFCURVE",
"41 356 OFFCURVE",
"36 347 CURVE SMOOTH",
"32 337 OFFCURVE",
"41 332 OFFCURVE",
"50 345 CURVE",
"29 287 OFFCURVE",
"10 220 OFFCURVE",
"55 211 CURVE SMOOTH",
"158 190 OFFCURVE",
"221 409 OFFCURVE",
"239 463 CURVE",
"239 464 OFFCURVE",
"239 466 OFFCURVE",
"240 467 CURVE"
);
}
);
width = 197;
}
);
note = v;
unicode = 0076;
},
{
glyphname = w;
lastChange = "2020-01-01 22:28:51 +0000";
layers = (
{
hints = (
{
horizontal = 1;
place = "{0, 21}";
target = up;
type = BottomGhost;
}
);
layerId = "61E7180A-0B32-4047-B910-001D8BB62225";
paths = (
{
closed = 1;
nodes = (
"389 500 OFFCURVE",
"335 500 OFFCURVE",
"315 434 CURVE SMOOTH",
"309 413 OFFCURVE",
"311 382 OFFCURVE",
"321 359 CURVE",
"293 287 OFFCURVE",
"254 225 OFFCURVE",
"211 228 CURVE SMOOTH",
"163 231 OFFCURVE",
"218 347 OFFCURVE",
"227 366 CURVE SMOOTH",
"246 407 OFFCURVE",
"252 419 OFFCURVE",
"268 445 CURVE SMOOTH",
"277 461 OFFCURVE",
"292 467 OFFCURVE",
"298 473 CURVE",
"296 473 OFFCURVE",
"272 473 OFFCURVE",
"252 473 CURVE SMOOTH",
"239 473 OFFCURVE",
"229 469 OFFCURVE",
"224 457 CURVE SMOOTH",
"206 421 OFFCURVE",
"148 290 OFFCURVE",
"102 246 CURVE SMOOTH",
"65 210 OFFCURVE",
"41 243 OFFCURVE",
"73 313 CURVE SMOOTH",
"86 341 OFFCURVE",
"120 410 OFFCURVE",
"120 410 CURVE",
"140 451 OFFCURVE",
"151 460 OFFCURVE",
"168 473 CURVE",
"165 473 OFFCURVE",
"142 473 OFFCURVE",
"122 473 CURVE SMOOTH",
"108 473 OFFCURVE",
"99 469 OFFCURVE",
"93 457 CURVE SMOOTH",
"82 434 OFFCURVE",
"66 404 OFFCURVE",
"51 374 CURVE SMOOTH",
"47 365 OFFCURVE",
"42 356 OFFCURVE",
"38 348 CURVE SMOOTH",
"33 338 OFFCURVE",
"40 336 OFFCURVE",
"44 336 CURVE",
"31 309 OFFCURVE",
"12 281 OFFCURVE",
"19 249 CURVE SMOOTH",
"23 227 OFFCURVE",
"44 215 OFFCURVE",
"65 215 CURVE SMOOTH",
"107 215 OFFCURVE",
"148 284 OFFCURVE",
"165 316 CURVE",
"155 284 OFFCURVE",
"151 224 OFFCURVE",
"191 215 CURVE SMOOTH",
"300 191 OFFCURVE",
"358 411 OFFCURVE",
"374 464 CURVE",
"374 465 OFFCURVE",
"374 467 OFFCURVE",
"375 467 CURVE"
);
}
);
width = 357;
}
);
note = w;
unicode = 0077;
},
{
glyphname = x;
lastChange = "2020-01-01 22:28:51 +0000";
layers = (
{
hints = (
{
horizontal = 1;
place = "{0, 21}";
target = up;
type = BottomGhost;
}
);
layerId = "61E7180A-0B32-4047-B910-001D8BB62225";
paths = (
{
closed = 1;
nodes = (
"309 365 OFFCURVE",
"300 373 OFFCURVE",
"293 359 CURVE SMOOTH",
"264 304 OFFCURVE",
"227 223 OFFCURVE",
"179 233 CURVE SMOOTH",
"161 237 OFFCURVE",
"152 272 OFFCURVE",
"159 315 CURVE",
"175 363 OFFCURVE",
"210 417 OFFCURVE",
"240 446 CURVE",
"242 438 OFFCURVE",
"249 433 OFFCURVE",
"259 433 CURVE SMOOTH",
"272 433 OFFCURVE",
"286 443 OFFCURVE",
"289 457 CURVE SMOOTH",
"293 477 OFFCURVE",
"275 483 OFFCURVE",
"259 479 CURVE SMOOTH",
"237 473 OFFCURVE",
"196 422 OFFCURVE",
"170 371 CURVE",
"178 413 OFFCURVE",
"180 461 OFFCURVE",
"140 466 CURVE SMOOTH",
"125 467 OFFCURVE",
"111 460 OFFCURVE",
"98 449 CURVE SMOOTH",
"78 431 OFFCURVE",
"47 368 OFFCURVE",
"33 338 CURVE SMOOTH",
"26 322 OFFCURVE",
"33 316 OFFCURVE",
"40 328 CURVE SMOOTH",
"49 344 OFFCURVE",
"77 399 OFFCURVE",
"86 414 CURVE SMOOTH",
"115 461 OFFCURVE",
"135 449 OFFCURVE",
"135 425 CURVE SMOOTH",
"136 407 OFFCURVE",
"132 389 OFFCURVE",
"128 368 CURVE",
"107 299 OFFCURVE",
"58 226 OFFCURVE",
"28 212 CURVE SMOOTH",
"11 204 OFFCURVE",
"-2 204 OFFCURVE",
"-11 212 CURVE SMOOTH",
"-17 219 OFFCURVE",
"-30 207 OFFCURVE",
"-23 200 CURVE SMOOTH",
"-8 185 OFFCURVE",
"15 188 OFFCURVE",
"33 197 CURVE SMOOTH",
"60 209 OFFCURVE",
"94 254 OFFCURVE",
"119 303 CURVE",
"119 299 OFFCURVE",
"119 293 OFFCURVE",
"119 288 CURVE SMOOTH",
"117 255 OFFCURVE",
"136 215 OFFCURVE",
"173 215 CURVE SMOOTH",
"245 215 OFFCURVE",
"279 305 OFFCURVE",
"304 355 CURVE SMOOTH"
);
}
);
width = 250;
}
);
note = x;
unicode = 0078;
},
{
glyphname = y;
lastChange = "2020-01-01 22:28:51 +0000";
layers = (
{
hints = (
{
horizontal = 1;
place = "{-237, 15}";
type = Stem;
},
{
horizontal = 1;
place = "{258, -20}";
target = down;
type = TopGhost;
}
);
layerId = "61E7180A-0B32-4047-B910-001D8BB62225";
paths = (
{
closed = 1;
nodes = (
"359 366 OFFCURVE",
"348 371 OFFCURVE",
"341 358 CURVE SMOOTH",
"334 344 OFFCURVE",
"317 309 OFFCURVE",
"294 275 CURVE SMOOTH",
"265 233 OFFCURVE",
"219 211 OFFCURVE",
"186 201 CURVE",
"208 260 OFFCURVE",
"227 323 OFFCURVE",
"246 373 CURVE SMOOTH",
"265 423 OFFCURVE",
"276 453 OFFCURVE",
"305 473 CURVE",
"264 473 OFFCURVE",
"305 473 OFFCURVE",
"264 473 CURVE SMOOTH",
"250 473 OFFCURVE",
"241 469 OFFCURVE",
"235 457 CURVE SMOOTH",
"206 398 OFFCURVE",
"159 310 OFFCURVE",
"117 261 CURVE SMOOTH",
"68 205 OFFCURVE",
"37 235 OFFCURVE",
"73 313 CURVE SMOOTH",
"94 358 OFFCURVE",
"115 402 OFFCURVE",
"140 446 CURVE SMOOTH",
"149 461 OFFCURVE",
"161 467 OFFCURVE",
"168 473 CURVE",
"165 473 OFFCURVE",
"143 473 OFFCURVE",
"122 473 CURVE SMOOTH",
"108 473 OFFCURVE",
"99 469 OFFCURVE",
"93 457 CURVE SMOOTH",
"82 434 OFFCURVE",
"66 403 OFFCURVE",
"51 374 CURVE SMOOTH",
"47 365 OFFCURVE",
"42 356 OFFCURVE",
"38 348 CURVE SMOOTH",
"33 338 OFFCURVE",
"40 336 OFFCURVE",
"44 336 CURVE",
"31 309 OFFCURVE",
"12 281 OFFCURVE",
"19 249 CURVE SMOOTH",
"25 221 OFFCURVE",
"51 215 OFFCURVE",
"66 215 CURVE SMOOTH",
"124 215 OFFCURVE",
"173 308 OFFCURVE",
"198 353 CURVE",
"186 314 OFFCURVE",
"162 234 OFFCURVE",
"134 185 CURVE",
"73 167 OFFCURVE",
"2 155 OFFCURVE",
"-49 131 CURVE SMOOTH",
"-78 117 OFFCURVE",
"-105 97 OFFCURVE",
"-119 69 CURVE SMOOTH",
"-142 27 OFFCURVE",
"-134 -23 OFFCURVE",
"-59 -23 CURVE SMOOTH",
"52 -23 OFFCURVE",
"126 92 OFFCURVE",
"173 177 CURVE",
"281 216 OFFCURVE",
"301 248 OFFCURVE",
"352 351 CURVE SMOOTH"
);
},
{
closed = 1;
nodes = (
"114 151 OFFCURVE",
"109 141 OFFCURVE",
"104 133 CURVE SMOOTH",
"69 86 OFFCURVE",
"-11 -8 OFFCURVE",
"-77 -8 CURVE SMOOTH",
"-141 -8 OFFCURVE",
"-113 81 OFFCURVE",
"-36 114 CURVE SMOOTH",
"7 133 OFFCURVE",
"71 148 OFFCURVE",
"120 161 CURVE"
);
}
);
width = 299;
}
);
note = y;
unicode = 0079;
},
{
glyphname = z;
lastChange = "2020-01-01 22:28:51 +0000";
layers = (
{
hints = (
{
horizontal = 1;
place = "{152, -20}";
target = down;
type = TopGhost;
},
{
horizontal = 1;
place = "{226, 38}";
type = Stem;
},
{
place = "{-145, 26}";
type = Stem;
},
{
place = "{146, 45}";
type = Stem;
},
{
place = "{173, 41}";
type = Stem;
}
);
layerId = "61E7180A-0B32-4047-B910-001D8BB62225";
paths = (
{
closed = 1;
nodes = (
"317 368 OFFCURVE",
"305 372 OFFCURVE",
"299 359 CURVE SMOOTH",
"269 297 OFFCURVE",
"233 234 OFFCURVE",
"183 224 CURVE",
"187 236 OFFCURVE",
"191 269 OFFCURVE",
"191 279 CURVE SMOOTH",
"191 307 OFFCURVE",
"177 329 OFFCURVE",
"140 328 CURVE",
"187 356 OFFCURVE",
"212 398 OFFCURVE",
"213 431 CURVE SMOOTH",
"216 492 OFFCURVE",
"119 500 OFFCURVE",
"74 417 CURVE SMOOTH",
"57 387 OFFCURVE",
"43 358 OFFCURVE",
"29 332 CURVE SMOOTH",
"21 314 OFFCURVE",
"32 311 OFFCURVE",
"38 323 CURVE SMOOTH",
"50 347 OFFCURVE",
"69 383 OFFCURVE",
"78 398 CURVE SMOOTH",
"124 477 OFFCURVE",
"199 431 OFFCURVE",
"164 377 CURVE SMOOTH",
"154 362 OFFCURVE",
"129 326 OFFCURVE",
"80 311 CURVE SMOOTH",
"68 307 OFFCURVE",
"74 292 OFFCURVE",
"86 296 CURVE SMOOTH",
"98 301 OFFCURVE",
"109 305 OFFCURVE",
"119 311 CURVE",
"162 318 OFFCURVE",
"144 242 OFFCURVE",
"133 206 CURVE",
"38 176 OFFCURVE",
"-90 146 OFFCURVE",
"-131 85 CURVE SMOOTH",
"-170 23 OFFCURVE",
"-122 -35 OFFCURVE",
"-45 -13 CURVE SMOOTH",
"63 19 OFFCURVE",
"140 101 OFFCURVE",
"179 206 CURVE",
"242 218 OFFCURVE",
"275 283 OFFCURVE",
"309 353 CURVE SMOOTH"
);
},
{
closed = 1;
nodes = (
"86 81 OFFCURVE",
"-10 13 OFFCURVE",
"-68 0 CURVE SMOOTH",
"-147 -17 OFFCURVE",
"-126 84 OFFCURVE",
"-60 122 CURVE SMOOTH",
"-17 149 OFFCURVE",
"59 167 OFFCURVE",
"126 188 CURVE"
);
}
);
width = 256;
}
);
note = z;
unicode = 007A;
},
{
glyphname = z.alt;
lastChange = "2020-01-01 22:28:51 +0000";
layers = (
{
hints = (
{
horizontal = 1;
place = "{-9, 21}";
target = up;
type = BottomGhost;
},
{
horizontal = 1;
place = "{211, 25}";
type = Stem;
},
{
horizontal = 1;
place = "{211, 47}";
type = Stem;
}
);
layerId = "61E7180A-0B32-4047-B910-001D8BB62225";
paths = (
{
closed = 1;
nodes = (
"239 208 OFFCURVE",
"284 290 OFFCURVE",
"318 372 CURVE SMOOTH",
"324 386 OFFCURVE",
"311 385 OFFCURVE",
"308 378 CURVE SMOOTH",
"290 342 OFFCURVE",
"254 257 OFFCURVE",
"209 245 CURVE SMOOTH",
"186 239 OFFCURVE",
"142 251 OFFCURVE",
"118 258 CURVE",
"164 300 OFFCURVE",
"210 402 OFFCURVE",
"261 430 CURVE SMOOTH",
"268 434 OFFCURVE",
"279 435 OFFCURVE",
"280 449 CURVE SMOOTH",
"280 458 OFFCURVE",
"274 465 OFFCURVE",
"267 465 CURVE SMOOTH",
"260 465 OFFCURVE",
"253 450 OFFCURVE",
"234 450 CURVE SMOOTH",
"212 450 OFFCURVE",
"190 472 OFFCURVE",
"165 472 CURVE SMOOTH",
"134 472 OFFCURVE",
"100 464 OFFCURVE",
"63 398 CURVE SMOOTH",
"56 385 OFFCURVE",
"24 320 OFFCURVE",
"19 311 CURVE SMOOTH",
"11 296 OFFCURVE",
"23 296 OFFCURVE",
"29 305 CURVE SMOOTH",
"82 411 OFFCURVE",
"100 425 OFFCURVE",
"147 425 CURVE SMOOTH",
"167 425 OFFCURVE",
"192 419 OFFCURVE",
"210 415 CURVE",
"170 374 OFFCURVE",
"119 278 OFFCURVE",
"82 260 CURVE",
"72 254 OFFCURVE",
"24 239 OFFCURVE",
"19 230 CURVE SMOOTH",
"14 221 OFFCURVE",
"11 206 OFFCURVE",
"28 206 CURVE SMOOTH",
"45 206 OFFCURVE",
"59 217 OFFCURVE",
"74 221 CURVE SMOOTH",
"94 225 OFFCURVE",
"137 212 OFFCURVE",
"182 210 CURVE SMOOTH"
);
}
);
width = 256;
}
);
note = z.alt;
unicode = E001;
},
{
glyphname = z.stroke;
lastChange = "2020-01-01 22:28:51 +0000";
layers = (
{
hints = (
{
horizontal = 1;
place = "{117, 14}";
type = Stem;
},
{
place = "{94, 141}";
type = Stem;
}
);
layerId = "61E7180A-0B32-4047-B910-001D8BB62225";
paths = (
{
closed = 1;
nodes = (
"240 332 OFFCURVE",
"236 346 OFFCURVE",
"224 346 CURVE SMOOTH",
"209 346 OFFCURVE",
"197 347 OFFCURVE",
"185 347 CURVE",
"210 383 OFFCURVE",
"236 416 OFFCURVE",
"261 430 CURVE SMOOTH",
"268 434 OFFCURVE",
"279 435 OFFCURVE",
"280 449 CURVE SMOOTH",
"280 458 OFFCURVE",
"274 465 OFFCURVE",
"267 465 CURVE SMOOTH",
"260 465 OFFCURVE",
"253 450 OFFCURVE",
"234 450 CURVE SMOOTH",
"212 450 OFFCURVE",
"190 472 OFFCURVE",
"165 472 CURVE SMOOTH",
"134 472 OFFCURVE",
"100 464 OFFCURVE",
"63 398 CURVE SMOOTH",
"56 385 OFFCURVE",
"24 320 OFFCURVE",
"19 311 CURVE SMOOTH",
"11 296 OFFCURVE",
"23 296 OFFCURVE",
"29 305 CURVE SMOOTH",
"82 411 OFFCURVE",
"100 425 OFFCURVE",
"147 425 CURVE SMOOTH",
"167 425 OFFCURVE",
"192 419 OFFCURVE",
"210 415 CURVE",
"194 398 OFFCURVE",
"180 376 OFFCURVE",
"160 347 CURVE",
"134 348 OFFCURVE",
"116 348 OFFCURVE",
"103 348 CURVE SMOOTH",
"87 348 OFFCURVE",
"95 321 OFFCURVE",
"103 323 CURVE",
"146 327 LINE",
"122 296 OFFCURVE",
"100 268 OFFCURVE",
"82 260 CURVE",
"72 254 OFFCURVE",
"24 239 OFFCURVE",
"19 230 CURVE SMOOTH",
"14 221 OFFCURVE",
"11 206 OFFCURVE",
"28 206 CURVE SMOOTH",
"45 206 OFFCURVE",
"59 217 OFFCURVE",
"74 221 CURVE SMOOTH",
"94 225 OFFCURVE",
"137 212 OFFCURVE",
"182 210 CURVE SMOOTH",
"239 208 OFFCURVE",
"284 290 OFFCURVE",
"318 372 CURVE SMOOTH",
"324 386 OFFCURVE",
"311 385 OFFCURVE",
"308 378 CURVE SMOOTH",
"290 342 OFFCURVE",
"254 257 OFFCURVE",
"209 245 CURVE SMOOTH",
"186 239 OFFCURVE",
"142 251 OFFCURVE",
"118 258 CURVE",
"137 276 OFFCURVE",
"152 299 OFFCURVE",
"173 329 CURVE",
"190 331 OFFCURVE",
"207 332 OFFCURVE",
"226 332 CURVE SMOOTH"
);
}
);
width = 256;
}
);
note = z.stroke;
unicode = E002;
},
{
glyphname = braceleft;
lastChange = "2020-01-01 22:29:08 +0000";
layers = (
{
hints = (
{
horizontal = 1;
place = "{-98, 17}";
type = Stem;
},
{
horizontal = 1;
place = "{218, 20}";
type = Stem;
},
{
place = "{96, 38}";
type = Stem;
}
);
layerId = "61E7180A-0B32-4047-B910-001D8BB62225";
paths = (
{
closed = 1;
nodes = (
"313 759 LINE SMOOTH",
"263 759 OFFCURVE",
"227 750 OFFCURVE",
"203 733 CURVE SMOOTH",
"158 698 OFFCURVE",
"148 605 OFFCURVE",
"137 555 CURVE SMOOTH",
"130 518 OFFCURVE",
"119 492 OFFCURVE",
"102 479 CURVE SMOOTH",
"86 466 OFFCURVE",
"58 458 OFFCURVE",
"16 453 CURVE",
"16 453 OFFCURVE",
"-2 433 OFFCURVE",
"11 433 CURVE SMOOTH",
"33 433 OFFCURVE",
"49 431 OFFCURVE",
"60 426 CURVE SMOOTH",
"71 422 OFFCURVE",
"80 415 OFFCURVE",
"86 407 CURVE SMOOTH",
"98 393 OFFCURVE",
"99 368 OFFCURVE",
"92 331 CURVE SMOOTH",
"85 296 OFFCURVE",
"46 179 OFFCURVE",
"79 143 CURVE SMOOTH",
"95 125 OFFCURVE",
"128 116 OFFCURVE",
"177 116 CURVE SMOOTH",
"181 116 LINE SMOOTH",
"188 116 OFFCURVE",
"192 134 OFFCURVE",
"183 133 CURVE SMOOTH",
"149 133 OFFCURVE",
"127 139 OFFCURVE",
"116 152 CURVE SMOOTH",
"104 165 OFFCURVE",
"103 191 OFFCURVE",
"110 228 CURVE SMOOTH",
"118 265 OFFCURVE",
"148 365 OFFCURVE",
"128 402 CURVE SMOOTH",
"116 422 OFFCURVE",
"91 435 OFFCURVE",
"50 443 CURVE",
"97 451 OFFCURVE",
"131 467 OFFCURVE",
"150 491 CURVE SMOOTH",
"199 550 OFFCURVE",
"186 679 OFFCURVE",
"235 722 CURVE SMOOTH",
"250 735 OFFCURVE",
"276 742 OFFCURVE",
"312 742 CURVE SMOOTH",
"318 742 OFFCURVE",
"333 759 OFFCURVE",
"316 759 CURVE SMOOTH"
);
}
);
width = 277;
}
);
note = braceleft;
unicode = 007B;
},
{
glyphname = bar;
lastChange = "2020-01-01 22:29:08 +0000";
layers = (
{
hints = (
{
place = "{166, 32}";
type = Stem;
}
);
layerId = "61E7180A-0B32-4047-B910-001D8BB62225";
paths = (
{
closed = 1;
nodes = (
"198 41 LINE",
"198 776 LINE",
"166 776 LINE",
"166 41 LINE"
);
}
);
width = 364;
}
);
note = bar;
unicode = 007C;
},
{
glyphname = braceright;
lastChange = "2020-01-01 22:29:08 +0000";
layers = (
{
hints = (
{
horizontal = 1;
place = "{208, 20}";
type = Stem;
},
{
horizontal = 1;
place = "{524, 17}";
type = Stem;
},
{
place = "{240, 38}";
type = Stem;
},
{
place = "{284, 42}";
type = Stem;
}
);
layerId = "61E7180A-0B32-4047-B910-001D8BB62225";
paths = (
{
closed = 1;
nodes = (
"320 446 OFFCURVE",
"296 455 OFFCURVE",
"286 467 CURVE SMOOTH",
"250 515 OFFCURVE",
"358 675 OFFCURVE",
"315 730 CURVE SMOOTH",
"302 748 OFFCURVE",
"269 756 OFFCURVE",
"218 756 CURVE SMOOTH",
"215 756 LINE",
"215 756 OFFCURVE",
"195 739 OFFCURVE",
"210 739 CURVE SMOOTH",
"246 739 OFFCURVE",
"269 732 OFFCURVE",
"278 719 CURVE SMOOTH",
"287 705 OFFCURVE",
"285 680 OFFCURVE",
"274 644 CURVE SMOOTH",
"263 608 OFFCURVE",
"227 511 OFFCURVE",
"245 473 CURVE SMOOTH",
"256 452 OFFCURVE",
"279 439 OFFCURVE",
"317 432 CURVE",
"274 424 OFFCURVE",
"242 410 OFFCURVE",
"220 391 CURVE SMOOTH",
"156 332 OFFCURVE",
"160 197 OFFCURVE",
"105 153 CURVE SMOOTH",
"89 140 OFFCURVE",
"62 133 OFFCURVE",
"26 133 CURVE SMOOTH",
"16 133 OFFCURVE",
"11 117 OFFCURVE",
"20 116 CURVE SMOOTH",
"23 116 LINE SMOOTH",
"72 116 OFFCURVE",
"109 125 OFFCURVE",
"134 142 CURVE SMOOTH",
"213 197 OFFCURVE",
"198 348 OFFCURVE",
"262 396 CURVE SMOOTH",
"285 414 OFFCURVE",
"315 422 OFFCURVE",
"351 422 CURVE",
"351 422 OFFCURVE",
"371 442 OFFCURVE",
"358 443 CURVE SMOOTH"
);
}
);
width = 364;
}
);
note = braceright;
unicode = 007D;
},
{
glyphname = asciitilde;
lastChange = "2020-01-01 22:29:08 +0000";
layers = (
{
hints = (
{
horizontal = 1;
place = "{340, 33}";
type = Stem;
}
);
layerId = "61E7180A-0B32-4047-B910-001D8BB62225";
paths = (
{
closed = 1;
nodes = (
"341 588 OFFCURVE",
"326 590 OFFCURVE",
"324 587 CURVE SMOOTH",
"316 569 OFFCURVE",
"303 558 OFFCURVE",
"283 560 CURVE SMOOTH",
"253 563 OFFCURVE",
"224 585 OFFCURVE",
"192 587 CURVE SMOOTH",
"158 590 OFFCURVE",
"133 557 OFFCURVE",
"119 531 CURVE",
"117 527 OFFCURVE",
"134 525 OFFCURVE",
"136 530 CURVE",
"143 544 OFFCURVE",
"157 556 OFFCURVE",
"175 554 CURVE SMOOTH",
"206 552 OFFCURVE",
"234 528 OFFCURVE",
"266 525 CURVE SMOOTH",
"301 522 OFFCURVE",
"326 557 OFFCURVE",
"340 585 CURVE SMOOTH"
);
}
);
width = 364;
}
);
note = asciitilde;
unicode = 007E;
},
{
glyphname = Adieresis;
lastChange = "2020-01-01 22:29:08 +0000";
layers = (
{
hints = (
{
horizontal = 1;
place = "{602, 50}";
type = Stem;
},
{
place = "{480, 50}";
type = Stem;
},
{
place = "{577, 50}";
type = Stem;
}
);
layerId = "61E7180A-0B32-4047-B910-001D8BB62225";
paths = (
{
closed = 1;
nodes = (
"645 755 OFFCURVE",
"596 794 OFFCURVE",
"516 794 CURVE SMOOTH",
"370 794 OFFCURVE",
"245 704 OFFCURVE",
"150 599 CURVE",
"123 611 OFFCURVE",
"101 627 OFFCURVE",
"84 646 CURVE SMOOTH",
"67 665 OFFCURVE",
"59 683 OFFCURVE",
"68 705 CURVE SMOOTH",
"77 723 OFFCURVE",
"64 731 OFFCURVE",
"55 719 CURVE",
"38 707 OFFCURVE",
"41 659 OFFCURVE",
"62 635 CURVE SMOOTH",
"80 614 OFFCURVE",
"107 597 OFFCURVE",
"137 583 CURVE",
"111 554 OFFCURVE",
"89 521 OFFCURVE",
"71 488 CURVE SMOOTH",
"-5 352 OFFCURVE",
"-5 219 OFFCURVE",
"68 188 CURVE SMOOTH",
"174 143 OFFCURVE",
"314 286 OFFCURVE",
"376 359 CURVE",
"342 314 OFFCURVE",
"323 167 OFFCURVE",
"407 167 CURVE SMOOTH",
"449 167 OFFCURVE",
"491 197 OFFCURVE",
"517 231 CURVE SMOOTH",
"545 268 OFFCURVE",
"573 321 OFFCURVE",
"587 351 CURVE SMOOTH",
"595 369 OFFCURVE",
"581 368 OFFCURVE",
"574 354 CURVE SMOOTH",
"557 317 OFFCURVE",
"532 278 OFFCURVE",
"509 248 CURVE SMOOTH",
"449 174 OFFCURVE",
"375 155 OFFCURVE",
"398 282 CURVE SMOOTH",
"412 356 OFFCURVE",
"455 436 OFFCURVE",
"497 483 CURVE SMOOTH",
"540 530 OFFCURVE",
"500 591 OFFCURVE",
"454 504 CURVE SMOOTH",
"414 431 OFFCURVE",
"335 333 OFFCURVE",
"257 268 CURVE SMOOTH",
"119 153 OFFCURVE",
"0 187 OFFCURVE",
"77 378 CURVE SMOOTH",
"104 445 OFFCURVE",
"158 529 OFFCURVE",
"185 567 CURVE",
"256 545 OFFCURVE",
"327 542 OFFCURVE",
"412 550 CURVE SMOOTH",
"587 566 OFFCURVE",
"645 644 OFFCURVE",
"645 699 CURVE SMOOTH"
);
},
{
closed = 1;
nodes = (
"614 634 OFFCURVE",
"536 578 OFFCURVE",
"412 568 CURVE SMOOTH",
"317 560 OFFCURVE",
"256 563 OFFCURVE",
"197 582 CURVE",
"281 683 OFFCURVE",
"378 775 OFFCURVE",
"518 775 CURVE SMOOTH",
"573 775 OFFCURVE",
"614 752 OFFCURVE",
"614 708 CURVE SMOOTH"
);
},
{
closed = 1;
nodes = (
"626 857 OFFCURVE",
"615 866 OFFCURVE",
"601 866 CURVE SMOOTH",
"587 866 OFFCURVE",
"577 856 OFFCURVE",
"577 842 CURVE SMOOTH",
"577 827 OFFCURVE",
"588 817 OFFCURVE",
"602 817 CURVE SMOOTH",
"617 817 OFFCURVE",
"626 827 OFFCURVE",
"626 842 CURVE SMOOTH"
);
},
{
closed = 1;
nodes = (
"530 857 OFFCURVE",
"518 866 OFFCURVE",
"504 866 CURVE SMOOTH",
"490 866 OFFCURVE",
"480 856 OFFCURVE",
"480 842 CURVE SMOOTH",
"480 827 OFFCURVE",
"491 817 OFFCURVE",
"506 817 CURVE SMOOTH",
"520 817 OFFCURVE",
"530 827 OFFCURVE",
"530 842 CURVE SMOOTH"
);
}
);
width = 534;
}
);
note = Adieresis;
unicode = 00C4;
},
{
glyphname = Aring;
lastChange = "2020-01-01 22:29:08 +0000";
layers = (
{
hints = (
{
horizontal = 1;
place = "{560, 11}";
type = Stem;
},
{
horizontal = 1;
place = "{643, 14}";
type = Stem;
},
{
place = "{530, 13}";
type = Stem;
},
{
place = "{611, 14}";
type = Stem;
},
{
horizontal = 1;
place = "{527, 13}";
type = Stem;
},
{
horizontal = 1;
place = "{610, 14}";
type = Stem;
},
{
place = "{540, 13}";
type = Stem;
},
{
place = "{622, 14}";
type = Stem;
}
);
layerId = "61E7180A-0B32-4047-B910-001D8BB62225";
paths = (
{
closed = 1;
nodes = (
"645 755 OFFCURVE",
"596 794 OFFCURVE",
"516 794 CURVE SMOOTH",
"370 794 OFFCURVE",
"245 704 OFFCURVE",
"150 599 CURVE",
"123 611 OFFCURVE",
"101 627 OFFCURVE",
"84 646 CURVE SMOOTH",
"67 665 OFFCURVE",
"59 683 OFFCURVE",
"68 705 CURVE SMOOTH",
"77 723 OFFCURVE",
"64 731 OFFCURVE",
"55 719 CURVE",
"38 707 OFFCURVE",
"41 659 OFFCURVE",
"62 635 CURVE SMOOTH",
"80 614 OFFCURVE",
"107 597 OFFCURVE",
"137 583 CURVE",
"111 554 OFFCURVE",
"89 521 OFFCURVE",
"71 488 CURVE SMOOTH",
"-5 352 OFFCURVE",
"-5 219 OFFCURVE",
"68 188 CURVE SMOOTH",
"174 143 OFFCURVE",
"314 286 OFFCURVE",
"376 359 CURVE",
"360 326 OFFCURVE",
"345 278 OFFCURVE",
"350 238 CURVE SMOOTH",
"362 119 OFFCURVE",
"474 180 OFFCURVE",
"518 240 CURVE SMOOTH",
"546 277 OFFCURVE",
"574 324 OFFCURVE",
"585 354 CURVE SMOOTH",
"592 373 OFFCURVE",
"580 368 OFFCURVE",
"573 354 CURVE SMOOTH",
"557 317 OFFCURVE",
"532 278 OFFCURVE",
"509 248 CURVE SMOOTH",
"449 174 OFFCURVE",
"375 155 OFFCURVE",
"398 282 CURVE SMOOTH",
"412 356 OFFCURVE",
"455 436 OFFCURVE",
"497 483 CURVE SMOOTH",
"540 530 OFFCURVE",
"500 591 OFFCURVE",
"454 504 CURVE SMOOTH",
"414 431 OFFCURVE",
"335 333 OFFCURVE",
"257 268 CURVE SMOOTH",
"119 153 OFFCURVE",
"0 187 OFFCURVE",
"77 378 CURVE SMOOTH",
"104 445 OFFCURVE",
"158 529 OFFCURVE",
"185 567 CURVE",
"256 545 OFFCURVE",
"327 542 OFFCURVE",
"412 550 CURVE SMOOTH",
"587 566 OFFCURVE",
"645 644 OFFCURVE",
"645 699 CURVE SMOOTH"
);
},
{
closed = 1;
nodes = (
"614 634 OFFCURVE",
"536 578 OFFCURVE",
"412 568 CURVE SMOOTH",
"317 560 OFFCURVE",
"256 563 OFFCURVE",
"197 582 CURVE",
"281 683 OFFCURVE",
"378 775 OFFCURVE",
"518 775 CURVE SMOOTH",
"573 775 OFFCURVE",
"614 752 OFFCURVE",
"614 708 CURVE SMOOTH"
);
},
{
closed = 1;
nodes = (
"567 875 OFFCURVE",
"578 887 OFFCURVE",
"591 888 CURVE SMOOTH",
"604 889 OFFCURVE",
"614 877 OFFCURVE",
"612 861 CURVE SMOOTH",
"611 845 OFFCURVE",
"600 832 OFFCURVE",
"587 832 CURVE SMOOTH",
"574 832 OFFCURVE",
"565 844 OFFCURVE",
"566 860 CURVE SMOOTH"
);
},
{
closed = 1;
nodes = (
"536 836 OFFCURVE",
"557 818 OFFCURVE",
"584 819 CURVE SMOOTH",
"612 820 OFFCURVE",
"636 839 OFFCURVE",
"639 861 CURVE SMOOTH",
"641 883 OFFCURVE",
"622 901 OFFCURVE",
"594 900 CURVE SMOOTH",
"567 899 OFFCURVE",
"542 881 OFFCURVE",
"539 858 CURVE SMOOTH"
);
}
);
width = 534;
}
);
note = Aring;
unicode = 00C5;
},
{
glyphname = Ccedilla;
lastChange = "2020-01-01 22:29:08 +0000";
layers = (
{
hints = (
{
horizontal = 1;
place = "{-227, 13}";
type = Stem;
},
{
horizontal = 1;
place = "{-113, 14}";
type = Stem;
},
{
place = "{339, 28}";
type = Stem;
}
);
layerId = "61E7180A-0B32-4047-B910-001D8BB62225";
paths = (
{
closed = 1;
nodes = (
"593 367 OFFCURVE",
"582 372 OFFCURVE",
"576 359 CURVE SMOOTH",
"545 295 OFFCURVE",
"518 246 OFFCURVE",
"453 208 CURVE SMOOTH",
"379 164 OFFCURVE",
"282 152 OFFCURVE",
"202 176 CURVE SMOOTH",
"7 236 OFFCURVE",
"130 540 OFFCURVE",
"157 575 CURVE",
"196 494 OFFCURVE",
"265 459 OFFCURVE",
"343 448 CURVE SMOOTH",
"652 403 OFFCURVE",
"758 764 OFFCURVE",
"466 797 CURVE SMOOTH",
"347 810 OFFCURVE",
"235 764 OFFCURVE",
"154 659 CURVE",
"146 700 OFFCURVE",
"140 755 OFFCURVE",
"148 802 CURVE SMOOTH",
"152 823 OFFCURVE",
"136 818 OFFCURVE",
"133 806 CURVE SMOOTH",
"118 750 OFFCURVE",
"124 680 OFFCURVE",
"136 634 CURVE",
"32 503 OFFCURVE",
"-16 242 OFFCURVE",
"173 162 CURVE SMOOTH",
"281 116 OFFCURVE",
"388 143 OFFCURVE",
"464 196 CURVE SMOOTH",
"528 241 OFFCURVE",
"553 286 OFFCURVE",
"585 352 CURVE SMOOTH"
);
},
{
closed = 1;
nodes = (
"692 737 OFFCURVE",
"625 436 OFFCURVE",
"354 466 CURVE SMOOTH",
"272 475 OFFCURVE",
"206 513 OFFCURVE",
"172 599 CURVE",
"246 713 OFFCURVE",
"361 785 OFFCURVE",
"473 768 CURVE SMOOTH"
);
},
{
closed = 1;
nodes = (
"368 101 OFFCURVE",
"312 115 OFFCURVE",
"278 115 CURVE SMOOTH",
"269 115 OFFCURVE",
"259 114 OFFCURVE",
"249 113 CURVE",
"248 117 OFFCURVE",
"278 135 OFFCURVE",
"282 139 CURVE",
"281 141 OFFCURVE",
"279 145 OFFCURVE",
"276 145 CURVE SMOOTH",
"273 145 OFFCURVE",
"224 107 OFFCURVE",
"218 101 CURVE SMOOTH",
"216 99 OFFCURVE",
"215 98 OFFCURVE",
"215 95 CURVE SMOOTH",
"215 88 OFFCURVE",
"223 83 OFFCURVE",
"230 83 CURVE SMOOTH",
"237 83 OFFCURVE",
"255 101 OFFCURVE",
"284 101 CURVE SMOOTH",
"309 101 OFFCURVE",
"340 88 OFFCURVE",
"340 59 CURVE SMOOTH",
"340 48 OFFCURVE",
"335 37 OFFCURVE",
"329 28 CURVE SMOOTH",
"316 7 OFFCURVE",
"281 1 OFFCURVE",
"257 1 CURVE SMOOTH",
"239 1 OFFCURVE",
"206 5 OFFCURVE",
"193 20 CURVE SMOOTH",
"190 23 OFFCURVE",
"186 28 OFFCURVE",
"182 28 CURVE SMOOTH",
"179 28 OFFCURVE",
"177 26 OFFCURVE",
"177 23 CURVE SMOOTH",
"177 -4 OFFCURVE",
"253 -12 OFFCURVE",
"272 -12 CURVE SMOOTH",
"290 -12 OFFCURVE",
"313 -10 OFFCURVE",
"329 1 CURVE SMOOTH",
"347 14 OFFCURVE",
"368 34 OFFCURVE",
"368 58 CURVE SMOOTH"
);
}
);
width = 533;
}
);
note = Ccedilla;
unicode = 00C7;
},
{
glyphname = Eacute;
lastChange = "2020-01-01 22:29:08 +0000";
layers = (
{
hints = (
{
horizontal = 1;
place = "{636, 15}";
type = Stem;
}
);
layerId = "61E7180A-0B32-4047-B910-001D8BB62225";
paths = (
{
closed = 1;
nodes = (
"570 419 OFFCURVE",
"545 406 OFFCURVE",
"579 398 CURVE SMOOTH",
"620 388 OFFCURVE",
"593 335 OFFCURVE",
"538 292 CURVE SMOOTH",
"473 242 OFFCURVE",
"362 190 OFFCURVE",
"246 190 CURVE SMOOTH",
"-12 190 OFFCURVE",
"47 442 OFFCURVE",
"203 485 CURVE SMOOTH",
"299 512 OFFCURVE",
"392 479 OFFCURVE",
"401 509 CURVE",
"412 562 OFFCURVE",
"223 524 OFFCURVE",
"243 642 CURVE SMOOTH",
"260 738 OFFCURVE",
"416 809 OFFCURVE",
"533 798 CURVE SMOOTH",
"671 784 OFFCURVE",
"587 650 OFFCURVE",
"518 643 CURVE SMOOTH",
"485 639 OFFCURVE",
"478 620 OFFCURVE",
"521 629 CURVE SMOOTH",
"672 663 OFFCURVE",
"711 796 OFFCURVE",
"536 816 CURVE SMOOTH",
"417 830 OFFCURVE",
"197 752 OFFCURVE",
"186 623 CURVE SMOOTH",
"182 579 OFFCURVE",
"234 545 OFFCURVE",
"276 530 CURVE",
"252 529 OFFCURVE",
"226 524 OFFCURVE",
"200 517 CURVE SMOOTH",
"-45 443 OFFCURVE",
"-59 173 OFFCURVE",
"243 173 CURVE SMOOTH",
"367 173 OFFCURVE",
"494 213 OFFCURVE",
"569 272 CURVE SMOOTH",
"635 323 OFFCURVE",
"650 380 OFFCURVE",
"595 407 CURVE SMOOTH"
);
},
{
closed = 1;
nodes = (
"663 925 OFFCURVE",
"660 934 OFFCURVE",
"653 938 CURVE SMOOTH",
"638 945 OFFCURVE",
"621 938 OFFCURVE",
"609 929 CURVE SMOOTH",
"597 919 OFFCURVE",
"520 866 OFFCURVE",
"517 860 CURVE",
"515 857 OFFCURVE",
"515 853 OFFCURVE",
"519 851 CURVE SMOOTH",
"524 848 OFFCURVE",
"653 905 OFFCURVE",
"659 917 CURVE SMOOTH"
);
}
);
width = 677;
}
);
note = Eacute;
unicode = 00C9;
},
{
glyphname = Ntilde;
lastChange = "2020-01-01 22:29:08 +0000";
layers = (
{
hints = (
{
horizontal = 1;
place = "{654, 33}";
type = Stem;
}
);
layerId = "61E7180A-0B32-4047-B910-001D8BB62225";
paths = (
{
closed = 1;
nodes = (
"893 797 OFFCURVE",
"807 800 OFFCURVE",
"737 767 CURVE SMOOTH",
"679 740 OFFCURVE",
"615 679 OFFCURVE",
"559 611 CURVE SMOOTH",
"521 566 OFFCURVE",
"487 518 OFFCURVE",
"460 476 CURVE SMOOTH",
"446 454 OFFCURVE",
"417 399 OFFCURVE",
"456 484 CURVE SMOOTH",
"482 540 OFFCURVE",
"512 601 OFFCURVE",
"518 659 CURVE SMOOTH",
"541 843 OFFCURVE",
"350 832 OFFCURVE",
"226 764 CURVE SMOOTH",
"140 717 OFFCURVE",
"56 641 OFFCURVE",
"20 555 CURVE SMOOTH",
"-43 402 OFFCURVE",
"38 306 OFFCURVE",
"134 306 CURVE SMOOTH",
"332 306 OFFCURVE",
"430 589 OFFCURVE",
"252 546 CURVE SMOOTH",
"245 545 OFFCURVE",
"239 533 OFFCURVE",
"254 534 CURVE SMOOTH",
"387 551 OFFCURVE",
"293 320 OFFCURVE",
"136 320 CURVE SMOOTH",
"-13 320 OFFCURVE",
"13 595 OFFCURVE",
"234 732 CURVE SMOOTH",
"363 812 OFFCURVE",
"513 827 OFFCURVE",
"470 630 CURVE SMOOTH",
"434 471 OFFCURVE",
"317 237 OFFCURVE",
"280 183 CURVE",
"274 159 OFFCURVE",
"329 161 OFFCURVE",
"342 188 CURVE SMOOTH",
"391 290 OFFCURVE",
"468 470 OFFCURVE",
"574 599 CURVE SMOOTH",
"627 662 OFFCURVE",
"685 709 OFFCURVE",
"740 735 CURVE SMOOTH",
"793 761 OFFCURVE",
"841 760 OFFCURVE",
"832 707 CURVE SMOOTH",
"820 630 OFFCURVE",
"682 377 OFFCURVE",
"656 299 CURVE SMOOTH",
"615 178 OFFCURVE",
"645 110 OFFCURVE",
"747 105 CURVE SMOOTH",
"802 103 OFFCURVE",
"815 158 OFFCURVE",
"764 134 CURVE SMOOTH",
"677 94 OFFCURVE",
"652 186 OFFCURVE",
"720 335 CURVE SMOOTH",
"794 497 OFFCURVE",
"890 626 OFFCURVE",
"891 716 CURVE SMOOTH"
);
},
{
closed = 1;
nodes = (
"871 902 OFFCURVE",
"855 905 OFFCURVE",
"854 901 CURVE SMOOTH",
"845 884 OFFCURVE",
"833 872 OFFCURVE",
"812 875 CURVE SMOOTH",
"782 877 OFFCURVE",
"754 899 OFFCURVE",
"722 902 CURVE SMOOTH",
"687 905 OFFCURVE",
"662 871 OFFCURVE",
"648 845 CURVE",
"647 842 OFFCURVE",
"664 839 OFFCURVE",
"665 844 CURVE",
"673 858 OFFCURVE",
"686 870 OFFCURVE",
"704 869 CURVE SMOOTH",
"735 866 OFFCURVE",
"764 842 OFFCURVE",
"795 839 CURVE SMOOTH",
"830 836 OFFCURVE",
"856 872 OFFCURVE",
"869 899 CURVE SMOOTH"
);
}
);
width = 779;
}
);
note = Ntilde;
unicode = 00D1;
},
{
glyphname = Odieresis;
lastChange = "2020-01-01 22:29:08 +0000";
layers = (
{
hints = (
{
horizontal = 1;
place = "{612, 50}";
type = Stem;
},
{
place = "{372, 50}";
type = Stem;
},
{
place = "{469, 50}";
type = Stem;
}
);
layerId = "61E7180A-0B32-4047-B910-001D8BB62225";
paths = (
{
closed = 1;
nodes = (
"689 643 OFFCURVE",
"672 644 OFFCURVE",
"667 633 CURVE SMOOTH",
"648 596 OFFCURVE",
"610 566 OFFCURVE",
"569 539 CURVE",
"584 909 OFFCURVE",
"9 845 OFFCURVE",
"38 557 CURVE SMOOTH",
"42 516 OFFCURVE",
"64 485 OFFCURVE",
"96 463 CURVE",
"45 332 OFFCURVE",
"88 206 OFFCURVE",
"173 179 CURVE SMOOTH",
"332 127 OFFCURVE",
"503 290 OFFCURVE",
"549 432 CURVE SMOOTH",
"558 461 OFFCURVE",
"564 487 OFFCURVE",
"566 512 CURVE",
"614 542 OFFCURVE",
"650 581 OFFCURVE",
"678 625 CURVE SMOOTH"
);
},
{
closed = 1;
nodes = (
"401 449 OFFCURVE",
"236 425 OFFCURVE",
"148 468 CURVE",
"179 539 OFFCURVE",
"297 712 OFFCURVE",
"391 683 CURVE SMOOTH",
"401 680 OFFCURVE",
"408 687 OFFCURVE",
"397 693 CURVE SMOOTH",
"284 757 OFFCURVE",
"151 581 OFFCURVE",
"110 494 CURVE",
"93 508 OFFCURVE",
"83 527 OFFCURVE",
"80 551 CURVE SMOOTH",
"40 818 OFFCURVE",
"559 911 OFFCURVE",
"524 515 CURVE"
);
},
{
closed = 1;
nodes = (
"517 471 OFFCURVE",
"512 452 OFFCURVE",
"506 435 CURVE SMOOTH",
"454 288 OFFCURVE",
"307 138 OFFCURVE",
"176 203 CURVE SMOOTH",
"103 239 OFFCURVE",
"101 347 OFFCURVE",
"137 442 CURVE",
"236 402 OFFCURVE",
"395 422 OFFCURVE",
"519 488 CURVE"
);
},
{
closed = 1;
nodes = (
"518 866 OFFCURVE",
"507 876 OFFCURVE",
"493 876 CURVE SMOOTH",
"479 876 OFFCURVE",
"469 866 OFFCURVE",
"469 851 CURVE SMOOTH",
"469 836 OFFCURVE",
"480 827 OFFCURVE",
"494 827 CURVE SMOOTH",
"509 827 OFFCURVE",
"518 837 OFFCURVE",
"518 851 CURVE SMOOTH"
);
},
{
closed = 1;
nodes = (
"422 866 OFFCURVE",
"410 876 OFFCURVE",
"396 876 CURVE SMOOTH",
"382 876 OFFCURVE",
"372 866 OFFCURVE",
"372 851 CURVE SMOOTH",
"372 836 OFFCURVE",
"383 827 OFFCURVE",
"398 827 CURVE SMOOTH",
"412 827 OFFCURVE",
"422 837 OFFCURVE",
"422 851 CURVE SMOOTH"
);
}
);
width = 588;
}
);
note = Odieresis;
unicode = 00D6;
},
{
glyphname = Udieresis;
lastChange = "2020-01-01 22:29:08 +0000";
layers = (
{
hints = (
{
horizontal = 1;
place = "{520, 50}";
type = Stem;
},
{
place = "{600, 50}";
type = Stem;
},
{
place = "{697, 50}";
type = Stem;
}
);
layerId = "61E7180A-0B32-4047-B910-001D8BB62225";
paths = (
{
closed = 1;
nodes = (
"731 581 OFFCURVE",
"714 571 OFFCURVE",
"698 542 CURVE SMOOTH",
"667 486 OFFCURVE",
"622 380 OFFCURVE",
"572 308 CURVE SMOOTH",
"489 188 OFFCURVE",
"413 176 OFFCURVE",
"404 254 CURVE SMOOTH",
"393 363 OFFCURVE",
"511 534 OFFCURVE",
"538 653 CURVE SMOOTH",
"557 735 OFFCURVE",
"548 811 OFFCURVE",
"474 842 CURVE SMOOTH",
"407 872 OFFCURVE",
"315 857 OFFCURVE",
"230 809 CURVE SMOOTH",
"-136 610 OFFCURVE",
"-15 242 OFFCURVE",
"209 337 CURVE SMOOTH",
"375 407 OFFCURVE",
"399 653 OFFCURVE",
"245 588 CURVE SMOOTH",
"239 586 OFFCURVE",
"209 566 OFFCURVE",
"248 575 CURVE SMOOTH",
"392 608 OFFCURVE",
"313 392 OFFCURVE",
"210 354 CURVE SMOOTH",
"2 276 OFFCURVE",
"-72 609 OFFCURVE",
"228 785 CURVE SMOOTH",
"314 834 OFFCURVE",
"416 856 OFFCURVE",
"478 818 CURVE SMOOTH",
"514 797 OFFCURVE",
"512 728 OFFCURVE",
"494 656 CURVE SMOOTH",
"466 547 OFFCURVE",
"345 355 OFFCURVE",
"362 254 CURVE SMOOTH",
"377 158 OFFCURVE",
"483 158 OFFCURVE",
"583 287 CURVE SMOOTH",
"602 311 OFFCURVE",
"617 335 OFFCURVE",
"629 354 CURVE",
"616 290 OFFCURVE",
"602 169 OFFCURVE",
"673 156 CURVE SMOOTH",
"696 152 OFFCURVE",
"714 176 OFFCURVE",
"678 173 CURVE SMOOTH",
"637 171 OFFCURVE",
"646 263 OFFCURVE",
"668 344 CURVE SMOOTH",
"682 397 OFFCURVE",
"703 444 OFFCURVE",
"713 465 CURVE SMOOTH",
"733 511 OFFCURVE",
"776 563 OFFCURVE",
"740 581 CURVE"
);
},
{
closed = 1;
nodes = (
"746 774 OFFCURVE",
"735 784 OFFCURVE",
"721 784 CURVE SMOOTH",
"707 784 OFFCURVE",
"697 773 OFFCURVE",
"697 759 CURVE SMOOTH",
"697 744 OFFCURVE",
"708 734 OFFCURVE",
"722 734 CURVE SMOOTH",
"737 734 OFFCURVE",
"746 745 OFFCURVE",
"746 759 CURVE SMOOTH"
);
},
{
closed = 1;
nodes = (
"650 774 OFFCURVE",
"638 784 OFFCURVE",
"624 784 CURVE SMOOTH",
"610 784 OFFCURVE",
"600 773 OFFCURVE",
"600 759 CURVE SMOOTH",
"600 744 OFFCURVE",
"611 734 OFFCURVE",
"626 734 CURVE SMOOTH",
"640 734 OFFCURVE",
"650 745 OFFCURVE",
"650 759 CURVE SMOOTH"
);
}
);
width = 707;
}
);
leftKerningGroup = U;
note = Udieresis;
unicode = 00DC;
},
{
glyphname = aacute;
lastChange = "2020-01-01 22:29:08 +0000";
layers = (
{
hints = (
{
horizontal = 1;
place = "{296, 15}";
type = Stem;
}
);
layerId = "61E7180A-0B32-4047-B910-001D8BB62225";
paths = (
{
closed = 1;
nodes = (
"323 368 OFFCURVE",
"312 372 OFFCURVE",
"305 359 CURVE SMOOTH",
"290 326 OFFCURVE",
"240 231 OFFCURVE",
"209 233 CURVE SMOOTH",
"199 233 OFFCURVE",
"195 247 OFFCURVE",
"201 278 CURVE SMOOTH",
"211 323 OFFCURVE",
"255 402 OFFCURVE",
"271 418 CURVE",
"260 416 OFFCURVE",
"249 420 OFFCURVE",
"239 421 CURVE SMOOTH",
"215 422 OFFCURVE",
"205 404 OFFCURVE",
"188 373 CURVE SMOOTH",
"169 336 OFFCURVE",
"148 299 OFFCURVE",
"122 268 CURVE SMOOTH",
"86 226 OFFCURVE",
"45 220 OFFCURVE",
"53 272 CURVE SMOOTH",
"57 301 OFFCURVE",
"77 338 OFFCURVE",
"83 348 CURVE SMOOTH",
"110 392 OFFCURVE",
"149 437 OFFCURVE",
"183 455 CURVE SMOOTH",
"211 470 OFFCURVE",
"239 464 OFFCURVE",
"247 437 CURVE",
"260 434 OFFCURVE",
"266 447 OFFCURVE",
"255 458 CURVE SMOOTH",
"212 505 OFFCURVE",
"126 477 OFFCURVE",
"81 424 CURVE SMOOTH",
"-32 288 OFFCURVE",
"25 157 OFFCURVE",
"111 239 CURVE SMOOTH",
"133 260 OFFCURVE",
"153 290 OFFCURVE",
"165 310 CURVE",
"143 231 OFFCURVE",
"178 212 OFFCURVE",
"203 213 CURVE SMOOTH",
"248 217 OFFCURVE",
"293 307 OFFCURVE",
"316 353 CURVE SMOOTH"
);
},
{
closed = 1;
nodes = (
"312 584 OFFCURVE",
"309 593 OFFCURVE",
"302 597 CURVE SMOOTH",
"287 605 OFFCURVE",
"270 597 OFFCURVE",
"258 588 CURVE SMOOTH",
"246 578 OFFCURVE",
"169 526 OFFCURVE",
"166 520 CURVE",
"164 517 OFFCURVE",
"164 512 OFFCURVE",
"168 510 CURVE SMOOTH",
"173 508 OFFCURVE",
"302 564 OFFCURVE",
"308 577 CURVE SMOOTH"
);
}
);
width = 263;
}
);
note = aacute;
unicode = 00E1;
},
{
glyphname = agrave;
lastChange = "2020-01-01 22:29:08 +0000";
layers = (
{
hints = (
{
horizontal = 1;
place = "{399, -20}";
target = down;
type = TopGhost;
}
);
layerId = "61E7180A-0B32-4047-B910-001D8BB62225";
paths = (
{
closed = 1;
nodes = (
"323 368 OFFCURVE",
"312 372 OFFCURVE",
"305 359 CURVE SMOOTH",
"290 326 OFFCURVE",
"240 231 OFFCURVE",
"209 233 CURVE SMOOTH",
"199 233 OFFCURVE",
"195 247 OFFCURVE",
"201 278 CURVE SMOOTH",
"211 323 OFFCURVE",
"255 402 OFFCURVE",
"271 418 CURVE",
"260 416 OFFCURVE",
"249 420 OFFCURVE",
"239 421 CURVE SMOOTH",
"215 422 OFFCURVE",
"205 404 OFFCURVE",
"188 373 CURVE SMOOTH",
"169 336 OFFCURVE",
"148 299 OFFCURVE",
"122 268 CURVE SMOOTH",
"86 226 OFFCURVE",
"45 220 OFFCURVE",
"53 272 CURVE SMOOTH",
"57 301 OFFCURVE",
"77 338 OFFCURVE",
"83 348 CURVE SMOOTH",
"110 392 OFFCURVE",
"149 437 OFFCURVE",
"183 455 CURVE SMOOTH",
"211 470 OFFCURVE",
"239 464 OFFCURVE",
"247 437 CURVE",
"260 434 OFFCURVE",
"266 447 OFFCURVE",
"255 458 CURVE SMOOTH",
"212 505 OFFCURVE",
"126 477 OFFCURVE",
"81 424 CURVE SMOOTH",
"-32 288 OFFCURVE",
"25 157 OFFCURVE",
"111 239 CURVE SMOOTH",
"133 260 OFFCURVE",
"153 290 OFFCURVE",
"165 310 CURVE",
"143 231 OFFCURVE",
"178 212 OFFCURVE",
"203 213 CURVE SMOOTH",
"248 217 OFFCURVE",
"293 307 OFFCURVE",
"316 353 CURVE SMOOTH"
);
},
{
closed = 1;
nodes = (
"242 524 OFFCURVE",
"133 614 OFFCURVE",
"119 614 CURVE SMOOTH",
"110 614 OFFCURVE",
"104 607 OFFCURVE",
"104 598 CURVE SMOOTH",
"104 581 OFFCURVE",
"119 571 OFFCURVE",
"132 564 CURVE SMOOTH",
"146 557 OFFCURVE",
"228 512 OFFCURVE",
"235 512 CURVE SMOOTH",
"239 512 OFFCURVE",
"242 515 OFFCURVE",
"242 519 CURVE SMOOTH"
);
}
);
width = 263;
}
);
note = agrave;
unicode = 00E0;
},
{
glyphname = acircumflex;
lastChange = "2020-01-01 22:29:08 +0000";
layers = (
{
hints = (
{
horizontal = 1;
place = "{-1, 21}";
type = Stem;
},
{
horizontal = 1;
place = "{152, -20}";
target = down;
type = TopGhost;
},
{
horizontal = 1;
place = "{249, 18}";
type = Stem;
},
{
horizontal = 1;
place = "{361, 26}";
type = Stem;
},
{
place = "{18, 35}";
type = Stem;
},
{
place = "{158, 40}";
type = Stem;
},
{
place = "{247, 14}";
type = Stem;
},
{
horizontal = 1;
place = "{-2, 20}";
type = Stem;
}
);
layerId = "61E7180A-0B32-4047-B910-001D8BB62225";
paths = (
{
closed = 1;
nodes = (
"323 368 OFFCURVE",
"312 372 OFFCURVE",
"305 359 CURVE SMOOTH",
"290 326 OFFCURVE",
"240 231 OFFCURVE",
"209 233 CURVE SMOOTH",
"199 233 OFFCURVE",
"195 247 OFFCURVE",
"201 278 CURVE SMOOTH",
"211 323 OFFCURVE",
"255 402 OFFCURVE",
"271 418 CURVE",
"260 416 OFFCURVE",
"249 420 OFFCURVE",
"239 421 CURVE SMOOTH",
"215 422 OFFCURVE",
"205 404 OFFCURVE",
"188 373 CURVE SMOOTH",
"169 336 OFFCURVE",
"148 299 OFFCURVE",
"122 268 CURVE SMOOTH",
"86 226 OFFCURVE",
"45 220 OFFCURVE",
"53 272 CURVE SMOOTH",
"57 301 OFFCURVE",
"77 338 OFFCURVE",
"83 348 CURVE SMOOTH",
"110 392 OFFCURVE",
"149 437 OFFCURVE",
"183 455 CURVE SMOOTH",
"211 470 OFFCURVE",
"239 464 OFFCURVE",
"247 437 CURVE",
"260 434 OFFCURVE",
"266 447 OFFCURVE",
"255 458 CURVE SMOOTH",
"212 505 OFFCURVE",
"126 477 OFFCURVE",
"81 424 CURVE SMOOTH",
"-32 288 OFFCURVE",
"25 157 OFFCURVE",
"111 239 CURVE SMOOTH",
"133 260 OFFCURVE",
"153 290 OFFCURVE",
"165 310 CURVE",
"143 231 OFFCURVE",
"178 212 OFFCURVE",
"203 213 CURVE SMOOTH",
"248 217 OFFCURVE",
"293 307 OFFCURVE",
"316 353 CURVE SMOOTH"
);
},
{
closed = 1;
nodes = (
"281 602 LINE",
"280 605 OFFCURVE",
"252 602 OFFCURVE",
"252 602 CURVE",
"140 522 LINE SMOOTH",
"134 518 OFFCURVE",
"152 515 OFFCURVE",
"159 522 CURVE",
"169 527 OFFCURVE",
"258 575 OFFCURVE",
"258 575 CURVE",
"293 522 LINE SMOOTH",
"296 517 OFFCURVE",
"311 515 OFFCURVE",
"308 522 CURVE"
);
}
);
width = 263;
}
);
note = acircumflex;
unicode = 00E2;
},
{
glyphname = adieresis;
lastChange = "2020-01-01 22:29:08 +0000";
layers = (
{
hints = (
{
horizontal = 1;
place = "{320, 50}";
type = Stem;
},
{
place = "{161, 50}";
type = Stem;
},
{
place = "{258, 50}";
type = Stem;
}
);
layerId = "61E7180A-0B32-4047-B910-001D8BB62225";
paths = (
{
closed = 1;
nodes = (
"323 368 OFFCURVE",
"312 372 OFFCURVE",
"305 359 CURVE SMOOTH",
"290 326 OFFCURVE",
"240 231 OFFCURVE",
"209 233 CURVE SMOOTH",
"199 233 OFFCURVE",
"195 247 OFFCURVE",
"201 278 CURVE SMOOTH",
"211 323 OFFCURVE",
"255 402 OFFCURVE",
"271 418 CURVE",
"260 416 OFFCURVE",
"249 420 OFFCURVE",
"239 421 CURVE SMOOTH",
"215 422 OFFCURVE",
"205 404 OFFCURVE",
"188 373 CURVE SMOOTH",
"169 336 OFFCURVE",
"148 299 OFFCURVE",
"122 268 CURVE SMOOTH",
"86 226 OFFCURVE",
"45 220 OFFCURVE",
"53 272 CURVE SMOOTH",
"57 301 OFFCURVE",
"77 338 OFFCURVE",
"83 348 CURVE SMOOTH",
"110 392 OFFCURVE",
"149 437 OFFCURVE",
"183 455 CURVE SMOOTH",
"211 470 OFFCURVE",
"239 464 OFFCURVE",
"247 437 CURVE",
"260 434 OFFCURVE",
"266 447 OFFCURVE",
"255 458 CURVE SMOOTH",
"212 505 OFFCURVE",
"126 477 OFFCURVE",
"81 424 CURVE SMOOTH",
"-32 288 OFFCURVE",
"25 157 OFFCURVE",
"111 239 CURVE SMOOTH",
"133 260 OFFCURVE",
"153 290 OFFCURVE",
"165 310 CURVE",
"143 231 OFFCURVE",
"178 212 OFFCURVE",
"203 213 CURVE SMOOTH",
"248 217 OFFCURVE",
"293 307 OFFCURVE",
"316 353 CURVE SMOOTH"
);
},
{
closed = 1;
nodes = (
"308 574 OFFCURVE",
"296 584 OFFCURVE",
"282 584 CURVE SMOOTH",
"268 584 OFFCURVE",
"258 573 OFFCURVE",
"258 559 CURVE SMOOTH",
"258 544 OFFCURVE",
"269 534 OFFCURVE",
"284 534 CURVE SMOOTH",
"298 534 OFFCURVE",
"308 545 OFFCURVE",
"308 559 CURVE SMOOTH"
);
},
{
closed = 1;
nodes = (
"211 574 OFFCURVE",
"200 584 OFFCURVE",
"185 584 CURVE SMOOTH",
"171 584 OFFCURVE",
"161 573 OFFCURVE",
"161 559 CURVE SMOOTH",
"161 544 OFFCURVE",
"173 534 OFFCURVE",
"187 534 CURVE SMOOTH",
"201 534 OFFCURVE",
"211 545 OFFCURVE",
"211 559 CURVE SMOOTH"
);
}
);
width = 263;
}
);
note = adieresis;
unicode = 00E4;
},
{
glyphname = atilde;
lastChange = "2020-01-01 22:29:08 +0000";
layers = (
{
hints = (
{
horizontal = 1;
place = "{360, 33}";
type = Stem;
}
);
layerId = "61E7180A-0B32-4047-B910-001D8BB62225";
paths = (
{
closed = 1;
nodes = (
"323 368 OFFCURVE",
"312 372 OFFCURVE",
"305 359 CURVE SMOOTH",
"290 326 OFFCURVE",
"240 231 OFFCURVE",
"209 233 CURVE SMOOTH",
"199 233 OFFCURVE",
"195 247 OFFCURVE",
"201 278 CURVE SMOOTH",
"211 323 OFFCURVE",
"255 402 OFFCURVE",
"271 418 CURVE",
"260 416 OFFCURVE",
"249 420 OFFCURVE",
"239 421 CURVE SMOOTH",
"215 422 OFFCURVE",
"205 404 OFFCURVE",
"188 373 CURVE SMOOTH",
"169 336 OFFCURVE",
"148 299 OFFCURVE",
"122 268 CURVE SMOOTH",
"86 226 OFFCURVE",
"45 220 OFFCURVE",
"53 272 CURVE SMOOTH",
"57 301 OFFCURVE",
"77 338 OFFCURVE",
"83 348 CURVE SMOOTH",
"110 392 OFFCURVE",
"149 437 OFFCURVE",
"183 455 CURVE SMOOTH",
"211 470 OFFCURVE",
"239 464 OFFCURVE",
"247 437 CURVE",
"260 434 OFFCURVE",
"266 447 OFFCURVE",
"255 458 CURVE SMOOTH",
"212 505 OFFCURVE",
"126 477 OFFCURVE",
"81 424 CURVE SMOOTH",
"-32 288 OFFCURVE",
"25 157 OFFCURVE",
"111 239 CURVE SMOOTH",
"133 260 OFFCURVE",
"153 290 OFFCURVE",
"165 310 CURVE",
"143 231 OFFCURVE",
"178 212 OFFCURVE",
"203 213 CURVE SMOOTH",
"248 217 OFFCURVE",
"293 307 OFFCURVE",
"316 353 CURVE SMOOTH"
);
},
{
closed = 1;
nodes = (
"337 608 OFFCURVE",
"321 611 OFFCURVE",
"320 607 CURVE SMOOTH",
"311 590 OFFCURVE",
"299 578 OFFCURVE",
"278 581 CURVE SMOOTH",
"248 583 OFFCURVE",
"220 605 OFFCURVE",
"188 608 CURVE SMOOTH",
"153 611 OFFCURVE",
"128 577 OFFCURVE",
"114 551 CURVE",
"113 548 OFFCURVE",
"130 545 OFFCURVE",
"131 550 CURVE",
"139 564 OFFCURVE",
"152 576 OFFCURVE",
"170 575 CURVE SMOOTH",
"201 572 OFFCURVE",
"230 548 OFFCURVE",
"261 545 CURVE SMOOTH",
"296 542 OFFCURVE",
"322 578 OFFCURVE",
"335 605 CURVE SMOOTH"
);
}
);
width = 263;
}
);
note = atilde;
unicode = 00E3;
},
{
glyphname = aring;
lastChange = "2020-01-01 22:29:08 +0000";
layers = (
{
hints = (
{
horizontal = 1;
place = "{251, 13}";
type = Stem;
},
{
horizontal = 1;
place = "{333, 14}";
type = Stem;
},
{
place = "{185, 13}";
type = Stem;
},
{
place = "{266, 14}";
type = Stem;
}
);
layerId = "61E7180A-0B32-4047-B910-001D8BB62225";
paths = (
{
closed = 1;
nodes = (
"323 368 OFFCURVE",
"312 372 OFFCURVE",
"305 359 CURVE SMOOTH",
"290 326 OFFCURVE",
"240 231 OFFCURVE",
"209 233 CURVE SMOOTH",
"199 233 OFFCURVE",
"195 247 OFFCURVE",
"201 278 CURVE SMOOTH",
"211 323 OFFCURVE",
"255 402 OFFCURVE",
"271 418 CURVE",
"260 416 OFFCURVE",
"249 420 OFFCURVE",
"239 421 CURVE SMOOTH",
"215 422 OFFCURVE",
"205 404 OFFCURVE",
"188 373 CURVE SMOOTH",
"169 336 OFFCURVE",
"148 299 OFFCURVE",
"122 268 CURVE SMOOTH",
"86 226 OFFCURVE",
"45 220 OFFCURVE",
"53 272 CURVE SMOOTH",
"57 301 OFFCURVE",
"77 338 OFFCURVE",
"83 348 CURVE SMOOTH",
"110 392 OFFCURVE",
"149 437 OFFCURVE",
"183 455 CURVE SMOOTH",
"211 470 OFFCURVE",
"239 464 OFFCURVE",
"247 437 CURVE",
"260 434 OFFCURVE",
"266 447 OFFCURVE",
"255 458 CURVE SMOOTH",
"212 505 OFFCURVE",
"126 477 OFFCURVE",
"81 424 CURVE SMOOTH",
"-32 288 OFFCURVE",
"25 157 OFFCURVE",
"111 239 CURVE SMOOTH",
"133 260 OFFCURVE",
"153 290 OFFCURVE",
"165 310 CURVE",
"143 231 OFFCURVE",
"178 212 OFFCURVE",
"203 213 CURVE SMOOTH",
"248 217 OFFCURVE",
"293 307 OFFCURVE",
"316 353 CURVE SMOOTH"
);
},
{
closed = 1;
nodes = (
"212 599 OFFCURVE",
"223 611 OFFCURVE",
"236 611 CURVE SMOOTH",
"248 612 OFFCURVE",
"258 600 OFFCURVE",
"257 584 CURVE SMOOTH",
"255 569 OFFCURVE",
"245 555 OFFCURVE",
"231 555 CURVE SMOOTH",
"218 555 OFFCURVE",
"209 567 OFFCURVE",
"210 583 CURVE SMOOTH"
);
},
{
closed = 1;
nodes = (
"181 560 OFFCURVE",
"201 542 OFFCURVE",
"229 542 CURVE SMOOTH",
"257 543 OFFCURVE",
"281 562 OFFCURVE",
"284 584 CURVE SMOOTH",
"286 606 OFFCURVE",
"266 624 OFFCURVE",
"239 623 CURVE SMOOTH",
"212 622 OFFCURVE",
"186 604 OFFCURVE",
"184 581 CURVE SMOOTH"
);
}
);
width = 263;
}
);
note = aring;
unicode = 00E5;
},
{
glyphname = ccedilla;
lastChange = "2020-01-01 22:29:08 +0000";
layers = (
{
hints = (
{
horizontal = 1;
place = "{-156, 13}";
type = Stem;
},
{
horizontal = 1;
place = "{-43, 14}";
type = Stem;
},
{
place = "{175, 28}";
type = Stem;
}
);
layerId = "61E7180A-0B32-4047-B910-001D8BB62225";
paths = (
{
closed = 1;
nodes = (
"260 367 OFFCURVE",
"250 371 OFFCURVE",
"243 357 CURVE SMOOTH",
"213 298 OFFCURVE",
"177 225 OFFCURVE",
"112 225 CURVE SMOOTH",
"80 225 OFFCURVE",
"68 253 OFFCURVE",
"68 283 CURVE SMOOTH",
"68 326 OFFCURVE",
"95 378 OFFCURVE",
"109 398 CURVE SMOOTH",
"130 428 OFFCURVE",
"162 462 OFFCURVE",
"189 462 CURVE SMOOTH",
"203 462 OFFCURVE",
"211 452 OFFCURVE",
"204 425 CURVE SMOOTH",
"200 412 OFFCURVE",
"189 397 OFFCURVE",
"181 387 CURVE",
"197 371 OFFCURVE",
"228 402 OFFCURVE",
"231 427 CURVE SMOOTH",
"235 458 OFFCURVE",
"217 479 OFFCURVE",
"179 479 CURVE SMOOTH",
"143 479 OFFCURVE",
"107 457 OFFCURVE",
"79 419 CURVE SMOOTH",
"25 347 OFFCURVE",
"-14 212 OFFCURVE",
"104 212 CURVE SMOOTH",
"187 212 OFFCURVE",
"217 274 OFFCURVE",
"254 352 CURVE SMOOTH"
);
},
{
closed = 1;
nodes = (
"203 171 OFFCURVE",
"148 185 OFFCURVE",
"114 185 CURVE SMOOTH",
"104 185 OFFCURVE",
"95 185 OFFCURVE",
"85 183 CURVE",
"84 188 OFFCURVE",
"113 206 OFFCURVE",
"118 209 CURVE",
"117 212 OFFCURVE",
"115 215 OFFCURVE",
"112 215 CURVE SMOOTH",
"109 215 OFFCURVE",
"59 177 OFFCURVE",
"54 172 CURVE SMOOTH",
"52 170 OFFCURVE",
"51 168 OFFCURVE",
"51 165 CURVE SMOOTH",
"51 158 OFFCURVE",
"59 154 OFFCURVE",
"65 154 CURVE SMOOTH",
"73 154 OFFCURVE",
"91 172 OFFCURVE",
"119 172 CURVE SMOOTH",
"145 172 OFFCURVE",
"176 158 OFFCURVE",
"176 129 CURVE SMOOTH",
"176 119 OFFCURVE",
"171 107 OFFCURVE",
"165 98 CURVE SMOOTH",
"152 77 OFFCURVE",
"116 71 OFFCURVE",
"93 71 CURVE SMOOTH",
"74 71 OFFCURVE",
"42 76 OFFCURVE",
"29 90 CURVE SMOOTH",
"26 93 OFFCURVE",
"22 98 OFFCURVE",
"17 98 CURVE SMOOTH",
"14 98 OFFCURVE",
"13 96 OFFCURVE",
"13 93 CURVE SMOOTH",
"13 67 OFFCURVE",
"89 59 OFFCURVE",
"107 59 CURVE SMOOTH",
"125 59 OFFCURVE",
"149 61 OFFCURVE",
"164 71 CURVE SMOOTH",
"183 84 OFFCURVE",
"203 104 OFFCURVE",
"203 128 CURVE SMOOTH"
);
}
);
width = 195;
}
);
note = ccedilla;
unicode = 00E7;
},
{
glyphname = eacute;
lastChange = "2020-01-01 22:29:08 +0000";
layers = (
{
hints = (
{
horizontal = 1;
place = "{296, 15}";
type = Stem;
}
);
layerId = "61E7180A-0B32-4047-B910-001D8BB62225";
paths = (
{
closed = 1;
nodes = (
"246 371 OFFCURVE",
"231 369 OFFCURVE",
"225 356 CURVE SMOOTH",
"208 316 OFFCURVE",
"167 227 OFFCURVE",
"101 227 CURVE SMOOTH",
"52 227 OFFCURVE",
"65 303 OFFCURVE",
"76 330 CURVE",
"96 330 OFFCURVE",
"145 346 OFFCURVE",
"168 363 CURVE SMOOTH",
"216 400 OFFCURVE",
"238 451 OFFCURVE",
"209 473 CURVE SMOOTH",
"176 497 OFFCURVE",
"119 469 OFFCURVE",
"81 424 CURVE SMOOTH",
"48 385 OFFCURVE",
"23 329 OFFCURVE",
"23 284 CURVE SMOOTH",
"24 236 OFFCURVE",
"58 212 OFFCURVE",
"95 212 CURVE SMOOTH",
"179 212 OFFCURVE",
"211 295 OFFCURVE",
"239 355 CURVE SMOOTH"
);
},
{
closed = 1;
nodes = (
"134 353 OFFCURVE",
"95 343 OFFCURVE",
"81 343 CURVE",
"88 356 OFFCURVE",
"107 389 OFFCURVE",
"126 413 CURVE SMOOTH",
"218 525 OFFCURVE",
"222 428 OFFCURVE",
"161 376 CURVE SMOOTH"
);
},
{
closed = 1;
nodes = (
"299 584 OFFCURVE",
"296 593 OFFCURVE",
"289 597 CURVE SMOOTH",
"274 605 OFFCURVE",
"257 597 OFFCURVE",
"245 588 CURVE SMOOTH",
"233 578 OFFCURVE",
"156 526 OFFCURVE",
"153 520 CURVE",
"151 517 OFFCURVE",
"152 512 OFFCURVE",
"155 510 CURVE SMOOTH",
"161 508 OFFCURVE",
"290 564 OFFCURVE",
"296 577 CURVE SMOOTH"
);
}
);
width = 185;
}
);
note = eacute;
unicode = 00E9;
},
{
glyphname = egrave;
lastChange = "2020-01-01 22:29:08 +0000";
layers = (
{
hints = (
{
horizontal = 1;
place = "{-3, 16}";
type = Stem;
},
{
horizontal = 1;
place = "{392, -20}";
target = down;
type = TopGhost;
}
);
layerId = "61E7180A-0B32-4047-B910-001D8BB62225";
paths = (
{
closed = 1;
nodes = (
"246 371 OFFCURVE",
"231 369 OFFCURVE",
"225 356 CURVE SMOOTH",
"208 316 OFFCURVE",
"167 227 OFFCURVE",
"101 227 CURVE SMOOTH",
"52 227 OFFCURVE",
"65 303 OFFCURVE",
"76 330 CURVE",
"96 330 OFFCURVE",
"145 346 OFFCURVE",
"168 363 CURVE SMOOTH",
"216 400 OFFCURVE",
"238 451 OFFCURVE",
"209 473 CURVE SMOOTH",
"176 497 OFFCURVE",
"119 469 OFFCURVE",
"81 424 CURVE SMOOTH",
"48 385 OFFCURVE",
"23 329 OFFCURVE",
"23 284 CURVE SMOOTH",
"24 236 OFFCURVE",
"58 212 OFFCURVE",
"95 212 CURVE SMOOTH",
"179 212 OFFCURVE",
"211 295 OFFCURVE",
"239 355 CURVE SMOOTH"
);
},
{
closed = 1;
nodes = (
"134 353 OFFCURVE",
"95 343 OFFCURVE",
"81 343 CURVE",
"88 356 OFFCURVE",
"107 389 OFFCURVE",
"126 413 CURVE SMOOTH",
"218 525 OFFCURVE",
"222 428 OFFCURVE",
"161 376 CURVE SMOOTH"
);
},
{
closed = 1;
nodes = (
"215 518 OFFCURVE",
"106 607 OFFCURVE",
"92 607 CURVE SMOOTH",
"83 607 OFFCURVE",
"77 600 OFFCURVE",
"77 591 CURVE SMOOTH",
"77 575 OFFCURVE",
"92 564 OFFCURVE",
"105 557 CURVE SMOOTH",
"119 551 OFFCURVE",
"201 506 OFFCURVE",
"208 506 CURVE SMOOTH",
"212 506 OFFCURVE",
"215 508 OFFCURVE",
"215 512 CURVE SMOOTH"
);
}
);
width = 185;
}
);
note = egrave;
unicode = 00E8;
},
{
glyphname = ecircumflex;
lastChange = "2020-01-01 22:29:08 +0000";
layers = (
{
hints = (
{
horizontal = 1;
place = "{-3, 16}";
type = Stem;
}
);
layerId = "61E7180A-0B32-4047-B910-001D8BB62225";
paths = (
{
closed = 1;
nodes = (
"246 371 OFFCURVE",
"231 369 OFFCURVE",
"225 356 CURVE SMOOTH",
"208 316 OFFCURVE",
"167 227 OFFCURVE",
"101 227 CURVE SMOOTH",
"52 227 OFFCURVE",
"65 303 OFFCURVE",
"76 330 CURVE",
"96 330 OFFCURVE",
"145 346 OFFCURVE",
"168 363 CURVE SMOOTH",
"216 400 OFFCURVE",
"238 451 OFFCURVE",
"209 473 CURVE SMOOTH",
"176 497 OFFCURVE",
"119 469 OFFCURVE",
"81 424 CURVE SMOOTH",
"48 385 OFFCURVE",
"23 329 OFFCURVE",
"23 284 CURVE SMOOTH",
"24 236 OFFCURVE",
"58 212 OFFCURVE",
"95 212 CURVE SMOOTH",
"179 212 OFFCURVE",
"211 295 OFFCURVE",
"239 355 CURVE SMOOTH"
);
},
{
closed = 1;
nodes = (
"134 353 OFFCURVE",
"95 343 OFFCURVE",
"81 343 CURVE",
"88 356 OFFCURVE",
"107 389 OFFCURVE",
"126 413 CURVE SMOOTH",
"218 525 OFFCURVE",
"222 428 OFFCURVE",
"161 376 CURVE SMOOTH"
);
},
{
closed = 1;
nodes = (
"248 602 LINE",
"247 605 OFFCURVE",
"219 602 OFFCURVE",
"219 602 CURVE",
"107 522 LINE SMOOTH",
"101 518 OFFCURVE",
"119 515 OFFCURVE",
"126 522 CURVE",
"136 527 OFFCURVE",
"225 575 OFFCURVE",
"225 575 CURVE",
"260 522 LINE SMOOTH",
"263 517 OFFCURVE",
"278 515 OFFCURVE",
"275 522 CURVE"
);
}
);
width = 185;
}
);
note = ecircumflex;
unicode = 00EA;
},
{
glyphname = edieresis;
lastChange = "2020-01-01 22:29:08 +0000";
layers = (
{
hints = (
{
horizontal = 1;
place = "{305, 50}";
type = Stem;
},
{
place = "{121, 50}";
type = Stem;
},
{
place = "{218, 50}";
type = Stem;
}
);
layerId = "61E7180A-0B32-4047-B910-001D8BB62225";
paths = (
{
closed = 1;
nodes = (
"246 371 OFFCURVE",
"231 369 OFFCURVE",
"225 356 CURVE SMOOTH",
"208 316 OFFCURVE",
"167 227 OFFCURVE",
"101 227 CURVE SMOOTH",
"52 227 OFFCURVE",
"65 303 OFFCURVE",
"76 330 CURVE",
"96 330 OFFCURVE",
"145 346 OFFCURVE",
"168 363 CURVE SMOOTH",
"216 400 OFFCURVE",
"238 451 OFFCURVE",
"209 473 CURVE SMOOTH",
"176 497 OFFCURVE",
"119 469 OFFCURVE",
"81 424 CURVE SMOOTH",
"48 385 OFFCURVE",
"23 329 OFFCURVE",
"23 284 CURVE SMOOTH",
"24 236 OFFCURVE",
"58 212 OFFCURVE",
"95 212 CURVE SMOOTH",
"179 212 OFFCURVE",
"211 295 OFFCURVE",
"239 355 CURVE SMOOTH"
);
},
{
closed = 1;
nodes = (
"134 353 OFFCURVE",
"95 343 OFFCURVE",
"81 343 CURVE",
"88 356 OFFCURVE",
"107 389 OFFCURVE",
"126 413 CURVE SMOOTH",
"218 525 OFFCURVE",
"222 428 OFFCURVE",
"161 376 CURVE SMOOTH"
);
},
{
closed = 1;
nodes = (
"267 560 OFFCURVE",
"256 569 OFFCURVE",
"242 569 CURVE SMOOTH",
"227 569 OFFCURVE",
"218 559 OFFCURVE",
"218 545 CURVE SMOOTH",
"218 530 OFFCURVE",
"229 520 OFFCURVE",
"243 520 CURVE SMOOTH",
"257 520 OFFCURVE",
"267 530 OFFCURVE",
"267 545 CURVE SMOOTH"
);
},
{
closed = 1;
nodes = (
"170 560 OFFCURVE",
"159 569 OFFCURVE",
"145 569 CURVE SMOOTH",
"131 569 OFFCURVE",
"121 559 OFFCURVE",
"121 545 CURVE SMOOTH",
"121 530 OFFCURVE",
"132 520 OFFCURVE",
"146 520 CURVE SMOOTH",
"161 520 OFFCURVE",
"170 530 OFFCURVE",
"170 545 CURVE SMOOTH"
);
}
);
width = 185;
}
);
note = edieresis;
unicode = 00EB;
},
{
glyphname = iacute;
lastChange = "2020-01-01 22:29:08 +0000";
layers = (
{
hints = (
{
horizontal = 1;
place = "{0, 16}";
type = Stem;
},
{
place = "{8, 36}";
type = Stem;
},
{
horizontal = 1;
place = "{311, 15}";
type = Stem;
}
);
layerId = "61E7180A-0B32-4047-B910-001D8BB62225";
paths = (
{
closed = 1;
nodes = (
"185 367 OFFCURVE",
"174 372 OFFCURVE",
"167 359 CURVE SMOOTH",
"147 317 OFFCURVE",
"122 270 OFFCURVE",
"97 245 CURVE SMOOTH",
"89 238 OFFCURVE",
"75 230 OFFCURVE",
"64 231 CURVE SMOOTH",
"42 233 OFFCURVE",
"41 254 OFFCURVE",
"48 278 CURVE SMOOTH",
"50 284 OFFCURVE",
"57 300 OFFCURVE",
"57 300 CURVE",
"77 352 OFFCURVE",
"135 446 OFFCURVE",
"135 446 CURVE",
"143 461 OFFCURVE",
"157 467 OFFCURVE",
"163 473 CURVE",
"125 473 LINE SMOOTH",
"101 473 OFFCURVE",
"103 473 OFFCURVE",
"84 437 CURVE SMOOTH",
"19 312 LINE SMOOTH",
"-1 275 OFFCURVE",
"4 215 OFFCURVE",
"59 215 CURVE SMOOTH",
"116 215 OFFCURVE",
"158 310 OFFCURVE",
"177 352 CURVE SMOOTH"
);
},
{
closed = 1;
nodes = (
"287 600 OFFCURVE",
"284 609 OFFCURVE",
"277 613 CURVE SMOOTH",
"262 620 OFFCURVE",
"245 613 OFFCURVE",
"233 604 CURVE SMOOTH",
"221 594 OFFCURVE",
"144 542 OFFCURVE",
"141 536 CURVE",
"139 533 OFFCURVE",
"140 528 OFFCURVE",
"143 526 CURVE SMOOTH",
"149 524 OFFCURVE",
"278 580 OFFCURVE",
"284 593 CURVE SMOOTH"
);
}
);
width = 126;
}
);
note = iacute;
unicode = 00ED;
},
{
glyphname = igrave;
lastChange = "2020-01-01 22:29:08 +0000";
layers = (
{
hints = (
{
horizontal = 1;
place = "{0, 16}";
type = Stem;
},
{
place = "{8, 36}";
type = Stem;
}
);
layerId = "61E7180A-0B32-4047-B910-001D8BB62225";
paths = (
{
closed = 1;
nodes = (
"185 367 OFFCURVE",
"174 372 OFFCURVE",
"167 359 CURVE SMOOTH",
"147 317 OFFCURVE",
"122 270 OFFCURVE",
"97 245 CURVE SMOOTH",
"89 238 OFFCURVE",
"75 230 OFFCURVE",
"64 231 CURVE SMOOTH",
"42 233 OFFCURVE",
"41 254 OFFCURVE",
"48 278 CURVE SMOOTH",
"50 284 OFFCURVE",
"57 300 OFFCURVE",
"57 300 CURVE",
"77 352 OFFCURVE",
"135 446 OFFCURVE",
"135 446 CURVE",
"143 461 OFFCURVE",
"157 467 OFFCURVE",
"163 473 CURVE",
"125 473 LINE SMOOTH",
"101 473 OFFCURVE",
"103 473 OFFCURVE",
"84 437 CURVE SMOOTH",
"19 312 LINE SMOOTH",
"-1 275 OFFCURVE",
"4 215 OFFCURVE",
"59 215 CURVE SMOOTH",
"116 215 OFFCURVE",
"158 310 OFFCURVE",
"177 352 CURVE SMOOTH"
);
},
{
closed = 1;
nodes = (
"179 526 OFFCURVE",
"69 615 OFFCURVE",
"55 615 CURVE SMOOTH",
"47 615 OFFCURVE",
"41 608 OFFCURVE",
"41 599 CURVE SMOOTH",
"41 583 OFFCURVE",
"55 572 OFFCURVE",
"68 566 CURVE SMOOTH",
"83 559 OFFCURVE",
"164 514 OFFCURVE",
"171 514 CURVE SMOOTH",
"175 514 OFFCURVE",
"179 516 OFFCURVE",
"179 521 CURVE SMOOTH"
);
}
);
width = 126;
}
);
note = igrave;
unicode = 00EC;
},
{
glyphname = icircumflex;
lastChange = "2020-01-01 22:29:08 +0000";
layers = (
{
hints = (
{
horizontal = 1;
place = "{0, 16}";
type = Stem;
},
{
place = "{8, 36}";
type = Stem;
}
);
layerId = "61E7180A-0B32-4047-B910-001D8BB62225";
paths = (
{
closed = 1;
nodes = (
"185 367 OFFCURVE",
"174 372 OFFCURVE",
"167 359 CURVE SMOOTH",
"147 317 OFFCURVE",
"122 270 OFFCURVE",
"97 245 CURVE SMOOTH",
"89 238 OFFCURVE",
"75 230 OFFCURVE",
"64 231 CURVE SMOOTH",
"42 233 OFFCURVE",
"41 254 OFFCURVE",
"48 278 CURVE SMOOTH",
"50 284 OFFCURVE",
"57 300 OFFCURVE",
"57 300 CURVE",
"77 352 OFFCURVE",
"135 446 OFFCURVE",
"135 446 CURVE",
"143 461 OFFCURVE",
"157 467 OFFCURVE",
"163 473 CURVE",
"125 473 LINE SMOOTH",
"101 473 OFFCURVE",
"103 473 OFFCURVE",
"84 437 CURVE SMOOTH",
"19 312 LINE SMOOTH",
"-1 275 OFFCURVE",
"4 215 OFFCURVE",
"59 215 CURVE SMOOTH",
"116 215 OFFCURVE",
"158 310 OFFCURVE",
"177 352 CURVE SMOOTH"
);
},
{
closed = 1;
nodes = (
"210 599 LINE",
"209 602 OFFCURVE",
"182 599 OFFCURVE",
"182 599 CURVE",
"70 519 LINE SMOOTH",
"64 515 OFFCURVE",
"81 512 OFFCURVE",
"89 519 CURVE",
"98 524 OFFCURVE",
"188 572 OFFCURVE",
"188 572 CURVE",
"222 519 LINE SMOOTH",
"225 514 OFFCURVE",
"240 512 OFFCURVE",
"237 519 CURVE"
);
}
);
width = 126;
}
);
note = icircumflex;
unicode = 00EE;
},
{
glyphname = idieresis;
lastChange = "2020-01-01 22:29:08 +0000";
layers = (
{
hints = (
{
horizontal = 1;
place = "{0, 16}";
type = Stem;
},
{
place = "{8, 36}";
type = Stem;
},
{
horizontal = 1;
place = "{297, 50}";
type = Stem;
},
{
place = "{80, 50}";
type = Stem;
},
{
place = "{177, 50}";
type = Stem;
}
);
layerId = "61E7180A-0B32-4047-B910-001D8BB62225";
paths = (
{
closed = 1;
nodes = (
"185 367 OFFCURVE",
"174 372 OFFCURVE",
"167 359 CURVE SMOOTH",
"147 317 OFFCURVE",
"122 270 OFFCURVE",
"97 245 CURVE SMOOTH",
"89 238 OFFCURVE",
"75 230 OFFCURVE",
"64 231 CURVE SMOOTH",
"42 233 OFFCURVE",
"41 254 OFFCURVE",
"48 278 CURVE SMOOTH",
"50 284 OFFCURVE",
"57 300 OFFCURVE",
"57 300 CURVE",
"77 352 OFFCURVE",
"135 446 OFFCURVE",
"135 446 CURVE",
"143 461 OFFCURVE",
"157 467 OFFCURVE",
"163 473 CURVE",
"125 473 LINE SMOOTH",
"101 473 OFFCURVE",
"103 473 OFFCURVE",
"84 437 CURVE SMOOTH",
"19 312 LINE SMOOTH",
"-1 275 OFFCURVE",
"4 215 OFFCURVE",
"59 215 CURVE SMOOTH",
"116 215 OFFCURVE",
"158 310 OFFCURVE",
"177 352 CURVE SMOOTH"
);
},
{
closed = 1;
nodes = (
"227 551 OFFCURVE",
"215 561 OFFCURVE",
"201 561 CURVE SMOOTH",
"187 561 OFFCURVE",
"177 551 OFFCURVE",
"177 536 CURVE SMOOTH",
"177 521 OFFCURVE",
"188 512 OFFCURVE",
"203 512 CURVE SMOOTH",
"217 512 OFFCURVE",
"227 522 OFFCURVE",
"227 536 CURVE SMOOTH"
);
},
{
closed = 1;
nodes = (
"130 551 OFFCURVE",
"119 561 OFFCURVE",
"104 561 CURVE SMOOTH",
"90 561 OFFCURVE",
"80 551 OFFCURVE",
"80 536 CURVE SMOOTH",
"80 521 OFFCURVE",
"92 512 OFFCURVE",
"106 512 CURVE SMOOTH",
"120 512 OFFCURVE",
"130 522 OFFCURVE",
"130 536 CURVE SMOOTH"
);
}
);
width = 126;
}
);
note = idieresis;
unicode = 00EF;
},
{
glyphname = ntilde;
lastChange = "2020-01-01 22:29:08 +0000";
layers = (
{
hints = (
{
horizontal = 1;
place = "{336, 33}";
type = Stem;
}
);
layerId = "61E7180A-0B32-4047-B910-001D8BB62225";
paths = (
{
closed = 1;
nodes = (
"312 368 OFFCURVE",
"300 373 OFFCURVE",
"294 359 CURVE SMOOTH",
"278 328 OFFCURVE",
"230 230 OFFCURVE",
"191 230 CURVE SMOOTH",
"182 230 OFFCURVE",
"173 236 OFFCURVE",
"179 267 CURVE SMOOTH",
"189 320 OFFCURVE",
"269 461 OFFCURVE",
"269 461 CURVE",
"244 470 OFFCURVE",
"167 422 OFFCURVE",
"131 390 CURVE SMOOTH",
"107 370 OFFCURVE",
"83 341 OFFCURVE",
"68 323 CURVE",
"95 377 OFFCURVE",
"137 452 OFFCURVE",
"159 464 CURVE",
"149 461 OFFCURVE",
"137 466 OFFCURVE",
"128 467 CURVE SMOOTH",
"104 468 OFFCURVE",
"94 455 OFFCURVE",
"74 419 CURVE SMOOTH",
"38 352 OFFCURVE",
"7 281 OFFCURVE",
"-29 209 CURVE",
"-22 214 OFFCURVE",
"-15 213 OFFCURVE",
"-4 214 CURVE SMOOTH",
"12 214 OFFCURVE",
"19 215 OFFCURVE",
"25 225 CURVE SMOOTH",
"67 308 OFFCURVE",
"104 350 OFFCURVE",
"129 374 CURVE SMOOTH",
"187 428 OFFCURVE",
"200 407 OFFCURVE",
"182 378 CURVE SMOOTH",
"161 344 OFFCURVE",
"147 319 OFFCURVE",
"141 299 CURVE SMOOTH",
"119 230 OFFCURVE",
"155 212 OFFCURVE",
"181 212 CURVE SMOOTH",
"239 212 OFFCURVE",
"282 307 OFFCURVE",
"305 353 CURVE SMOOTH"
);
},
{
closed = 1;
nodes = (
"329 584 OFFCURVE",
"314 587 OFFCURVE",
"312 583 CURVE SMOOTH",
"304 566 OFFCURVE",
"291 554 OFFCURVE",
"271 557 CURVE SMOOTH",
"241 559 OFFCURVE",
"212 581 OFFCURVE",
"180 584 CURVE SMOOTH",
"146 587 OFFCURVE",
"121 553 OFFCURVE",
"107 527 CURVE",
"105 524 OFFCURVE",
"122 521 OFFCURVE",
"124 526 CURVE",
"131 540 OFFCURVE",
"145 552 OFFCURVE",
"163 551 CURVE SMOOTH",
"194 548 OFFCURVE",
"222 524 OFFCURVE",
"254 521 CURVE SMOOTH",
"289 518 OFFCURVE",
"314 554 OFFCURVE",
"328 581 CURVE SMOOTH"
);
}
);
width = 251;
}
);
note = ntilde;
unicode = 00F1;
},
{
glyphname = oacute;
lastChange = "2020-01-01 22:29:08 +0000";
layers = (
{
hints = (
{
horizontal = 1;
place = "{314, 15}";
type = Stem;
}
);
layerId = "61E7180A-0B32-4047-B910-001D8BB62225";
paths = (
{
closed = 1;
nodes = (
"311 367 OFFCURVE",
"299 370 OFFCURVE",
"295 362 CURVE SMOOTH",
"277 326 OFFCURVE",
"238 233 OFFCURVE",
"190 233 CURVE SMOOTH",
"172 233 OFFCURVE",
"161 241 OFFCURVE",
"155 252 CURVE",
"183 279 OFFCURVE",
"206 314 OFFCURVE",
"218 341 CURVE SMOOTH",
"246 407 OFFCURVE",
"238 476 OFFCURVE",
"181 477 CURVE SMOOTH",
"130 479 OFFCURVE",
"68 420 OFFCURVE",
"38 351 CURVE SMOOTH",
"10 284 OFFCURVE",
"18 216 OFFCURVE",
"75 215 CURVE SMOOTH",
"97 214 OFFCURVE",
"119 224 OFFCURVE",
"140 240 CURVE",
"150 229 OFFCURVE",
"166 221 OFFCURVE",
"188 221 CURVE SMOOTH",
"251 221 OFFCURVE",
"293 327 OFFCURVE",
"306 356 CURVE SMOOTH"
);
},
{
closed = 1;
nodes = (
"224 444 OFFCURVE",
"220 391 OFFCURVE",
"191 329 CURVE SMOOTH",
"184 315 OFFCURVE",
"176 301 OFFCURVE",
"167 289 CURVE",
"168 292 OFFCURVE",
"169 294 OFFCURVE",
"169 297 CURVE SMOOTH",
"169 309 OFFCURVE",
"159 320 OFFCURVE",
"146 320 CURVE SMOOTH",
"128 320 OFFCURVE",
"121 305 OFFCURVE",
"120 287 CURVE SMOOTH",
"120 276 OFFCURVE",
"124 263 OFFCURVE",
"132 251 CURVE",
"114 236 OFFCURVE",
"95 228 OFFCURVE",
"81 232 CURVE SMOOTH",
"54 240 OFFCURVE",
"61 293 OFFCURVE",
"90 354 CURVE SMOOTH",
"118 413 OFFCURVE",
"164 461 OFFCURVE",
"197 452 CURVE SMOOTH"
);
},
{
closed = 1;
nodes = (
"335 602 OFFCURVE",
"332 611 OFFCURVE",
"325 615 CURVE SMOOTH",
"310 623 OFFCURVE",
"293 615 OFFCURVE",
"281 606 CURVE SMOOTH",
"269 596 OFFCURVE",
"192 544 OFFCURVE",
"189 538 CURVE",
"187 535 OFFCURVE",
"188 530 OFFCURVE",
"191 528 CURVE SMOOTH",
"197 526 OFFCURVE",
"326 582 OFFCURVE",
"332 595 CURVE SMOOTH"
);
}
);
width = 251;
}
);
note = oacute;
unicode = 00F3;
},
{
glyphname = ograve;
lastChange = "2020-01-01 22:29:08 +0000";
layers = (
{
hints = (
{
horizontal = 1;
place = "{0, 19}";
type = Stem;
},
{
horizontal = 1;
place = "{401, -20}";
target = down;
type = TopGhost;
},
{
horizontal = 1;
place = "{0, 105}";
type = Stem;
}
);
layerId = "61E7180A-0B32-4047-B910-001D8BB62225";
paths = (
{
closed = 1;
nodes = (
"311 367 OFFCURVE",
"299 370 OFFCURVE",
"295 362 CURVE SMOOTH",
"277 326 OFFCURVE",
"238 233 OFFCURVE",
"190 233 CURVE SMOOTH",
"172 233 OFFCURVE",
"161 241 OFFCURVE",
"155 252 CURVE",
"183 279 OFFCURVE",
"206 314 OFFCURVE",
"218 341 CURVE SMOOTH",
"246 407 OFFCURVE",
"238 476 OFFCURVE",
"181 477 CURVE SMOOTH",
"130 479 OFFCURVE",
"68 420 OFFCURVE",
"38 351 CURVE SMOOTH",
"10 284 OFFCURVE",
"18 216 OFFCURVE",
"75 215 CURVE SMOOTH",
"97 214 OFFCURVE",
"119 224 OFFCURVE",
"140 240 CURVE",
"150 229 OFFCURVE",
"166 221 OFFCURVE",
"188 221 CURVE SMOOTH",
"251 221 OFFCURVE",
"293 327 OFFCURVE",
"306 356 CURVE SMOOTH"
);
},
{
closed = 1;
nodes = (
"224 444 OFFCURVE",
"220 391 OFFCURVE",
"191 329 CURVE SMOOTH",
"184 315 OFFCURVE",
"176 301 OFFCURVE",
"167 289 CURVE",
"168 292 OFFCURVE",
"169 294 OFFCURVE",
"169 297 CURVE SMOOTH",
"169 309 OFFCURVE",
"159 320 OFFCURVE",
"146 320 CURVE SMOOTH",
"128 320 OFFCURVE",
"121 305 OFFCURVE",
"120 287 CURVE SMOOTH",
"120 276 OFFCURVE",
"124 263 OFFCURVE",
"132 251 CURVE",
"114 236 OFFCURVE",
"95 228 OFFCURVE",
"81 232 CURVE SMOOTH",
"54 240 OFFCURVE",
"61 293 OFFCURVE",
"90 354 CURVE SMOOTH",
"118 413 OFFCURVE",
"164 461 OFFCURVE",
"197 452 CURVE SMOOTH"
);
},
{
closed = 1;
nodes = (
"232 526 OFFCURVE",
"122 615 OFFCURVE",
"108 615 CURVE SMOOTH",
"100 615 OFFCURVE",
"94 608 OFFCURVE",
"94 599 CURVE SMOOTH",
"94 583 OFFCURVE",
"108 572 OFFCURVE",
"122 566 CURVE SMOOTH",
"136 559 OFFCURVE",
"218 514 OFFCURVE",
"224 514 CURVE SMOOTH",
"228 514 OFFCURVE",
"232 516 OFFCURVE",
"232 521 CURVE SMOOTH"
);
}
);
width = 251;
}
);
note = ograve;
unicode = 00F2;
},
{
glyphname = ocircumflex;
lastChange = "2020-01-01 22:29:08 +0000";
layers = (
{
hints = (
{
horizontal = 1;
place = "{0, 19}";
type = Stem;
},
{
horizontal = 1;
place = "{0, 105}";
type = Stem;
}
);
layerId = "61E7180A-0B32-4047-B910-001D8BB62225";
paths = (
{
closed = 1;
nodes = (
"311 367 OFFCURVE",
"299 370 OFFCURVE",
"295 362 CURVE SMOOTH",
"277 326 OFFCURVE",
"238 233 OFFCURVE",
"190 233 CURVE SMOOTH",
"172 233 OFFCURVE",
"161 241 OFFCURVE",
"155 252 CURVE",
"183 279 OFFCURVE",
"206 314 OFFCURVE",
"218 341 CURVE SMOOTH",
"246 407 OFFCURVE",
"238 476 OFFCURVE",
"181 477 CURVE SMOOTH",
"130 479 OFFCURVE",
"68 420 OFFCURVE",
"38 351 CURVE SMOOTH",
"10 284 OFFCURVE",
"18 216 OFFCURVE",
"75 215 CURVE SMOOTH",
"97 214 OFFCURVE",
"119 224 OFFCURVE",
"140 240 CURVE",
"150 229 OFFCURVE",
"166 221 OFFCURVE",
"188 221 CURVE SMOOTH",
"251 221 OFFCURVE",
"293 327 OFFCURVE",
"306 356 CURVE SMOOTH"
);
},
{
closed = 1;
nodes = (
"224 444 OFFCURVE",
"220 391 OFFCURVE",
"191 329 CURVE SMOOTH",
"184 315 OFFCURVE",
"176 301 OFFCURVE",
"167 289 CURVE",
"168 292 OFFCURVE",
"169 294 OFFCURVE",
"169 297 CURVE SMOOTH",
"169 309 OFFCURVE",
"159 320 OFFCURVE",
"146 320 CURVE SMOOTH",
"128 320 OFFCURVE",
"121 305 OFFCURVE",
"120 287 CURVE SMOOTH",
"120 276 OFFCURVE",
"124 263 OFFCURVE",
"132 251 CURVE",
"114 236 OFFCURVE",
"95 228 OFFCURVE",
"81 232 CURVE SMOOTH",
"54 240 OFFCURVE",
"61 293 OFFCURVE",
"90 354 CURVE SMOOTH",
"118 413 OFFCURVE",
"164 461 OFFCURVE",
"197 452 CURVE SMOOTH"
);
},
{
closed = 1;
nodes = (
"260 602 LINE",
"260 605 OFFCURVE",
"232 602 OFFCURVE",
"232 602 CURVE",
"120 522 LINE SMOOTH",
"114 518 OFFCURVE",
"131 515 OFFCURVE",
"139 522 CURVE",
"149 527 OFFCURVE",
"238 575 OFFCURVE",
"238 575 CURVE",
"272 522 LINE SMOOTH",
"275 517 OFFCURVE",
"290 515 OFFCURVE",
"287 522 CURVE"
);
}
);
width = 251;
}
);
note = ocircumflex;
unicode = 00F4;
},
